{"glyphs":{"0":{"ha":813,"x_min":33,"x_max":779,"o":"m 393 -11 q 245 1 311 -11 q 131 48 179 14 q 58 148 83 82 q 33 321 33 214 q 63 498 33 432 q 146 597 93 564 q 269 642 199 631 q 418 653 339 653 q 567 640 500 653 q 681 594 633 628 q 753 494 728 560 q 779 321 779 429 q 749 144 779 210 q 667 44 719 78 q 544 0 614 11 q 393 -11 474 -11 m 408 107 q 452 115 432 107 q 485 144 472 122 q 506 209 499 167 q 514 321 514 251 q 506 434 514 392 q 485 499 499 476 q 452 528 472 521 q 408 536 432 536 q 364 528 383 536 q 330 499 344 521 q 308 434 315 476 q 301 321 301 392 q 308 209 301 251 q 329 144 315 167 q 363 115 343 122 q 408 107 382 107 z "},"1":{"ha":536,"x_min":18,"x_max":478,"o":"m 200 0 l 201 447 q 187 501 201 483 q 140 518 172 518 q 90 515 117 518 q 18 501 63 511 l 18 619 q 154 633 90 629 q 269 638 218 638 q 394 624 349 638 q 459 579 440 611 q 478 494 478 547 l 476 0 l 200 0 z "},"2":{"ha":811,"x_min":39,"x_max":776,"o":"m 39 0 q 39 66 39 33 q 39 132 39 99 q 47 258 39 208 q 83 335 56 308 q 164 374 110 363 q 308 386 218 386 q 374 386 350 386 q 438 386 397 386 q 503 394 475 386 q 532 439 532 403 q 510 483 532 474 q 456 493 488 492 q 398 494 424 494 q 328 494 372 494 q 234 492 272 494 q 175 486 196 489 q 136 483 164 486 q 81 474 108 479 q 43 461 54 469 q 43 498 43 476 q 43 536 43 519 q 43 553 43 553 q 64 596 43 579 q 127 622 85 613 q 233 636 169 632 q 385 640 297 640 q 585 629 500 640 q 717 575 671 618 q 764 438 764 532 q 731 302 764 346 q 638 245 697 258 q 500 232 579 232 q 454 232 481 232 q 382 232 428 232 q 325 225 344 232 q 299 204 306 218 q 292 169 292 190 l 292 143 l 776 143 l 776 0 l 39 0 z "},"3":{"ha":790,"x_min":26,"x_max":758,"o":"m 383 -6 q 273 -4 325 -6 q 175 3 221 -3 q 88 18 129 8 q 42 48 58 29 q 26 97 26 67 l 26 179 q 191 149 104 157 q 347 142 278 142 q 434 148 403 142 q 478 168 465 154 q 492 203 492 182 q 484 238 492 226 q 464 251 476 249 q 436 254 451 254 l 126 254 l 126 396 l 442 396 q 474 406 463 396 q 485 439 485 417 q 472 474 485 463 q 433 489 458 485 q 372 493 408 493 q 345 493 358 493 q 318 493 332 493 q 233 489 283 493 q 131 476 182 485 q 46 457 81 468 l 46 538 q 65 594 46 575 q 121 624 83 614 q 222 635 147 629 q 389 640 297 640 q 598 628 522 640 q 706 574 674 615 q 739 450 739 533 q 720 374 739 406 q 657 338 701 342 l 657 336 q 737 300 715 335 q 758 197 758 265 q 721 69 758 113 q 601 10 683 25 q 383 -6 519 -6 z "},"4":{"ha":865,"x_min":21,"x_max":840,"o":"m 475 0 l 475 114 l 21 114 l 21 247 l 446 578 q 522 612 475 599 q 624 632 569 625 q 725 639 678 639 q 723 618 724 636 q 722 582 722 600 q 721 560 721 564 l 721 254 l 840 254 l 840 114 l 721 114 l 721 0 l 475 0 m 292 254 l 475 254 l 475 411 l 471 404 l 303 258 l 292 254 z "},"5":{"ha":808,"x_min":38,"x_max":772,"o":"m 772 208 q 758 101 772 143 q 706 35 743 58 q 602 3 668 13 q 435 -6 536 -6 q 224 1 308 -6 q 106 17 139 7 q 60 33 75 24 q 41 65 44 43 q 38 131 38 86 l 38 181 q 219 151 126 161 q 390 142 313 142 q 476 148 440 142 q 530 171 511 154 q 549 217 549 188 q 542 253 549 240 q 523 272 536 265 q 486 279 510 278 q 376 284 436 283 q 255 283 315 285 q 144 277 194 281 q 61 269 93 274 l 61 639 l 758 639 l 758 499 l 276 499 l 276 421 q 368 421 317 421 q 470 419 419 421 q 562 417 521 418 q 624 413 603 415 q 716 376 683 403 q 760 308 749 350 q 772 208 772 265 z "},"6":{"ha":789,"x_min":33,"x_max":758,"o":"m 392 -6 q 200 3 272 -6 q 92 43 128 13 q 45 137 57 74 q 33 308 33 200 q 42 466 33 406 q 75 561 51 526 q 143 612 99 596 q 258 633 188 628 q 344 638 296 638 q 438 639 393 639 q 542 633 493 638 q 632 624 592 629 q 694 608 669 621 q 724 565 718 594 q 711 482 729 535 q 601 491 663 488 q 477 497 540 494 q 357 499 414 499 q 308 493 331 499 q 269 474 285 488 q 247 438 253 461 q 246 421 247 433 q 243 397 244 408 q 242 381 242 386 q 306 397 264 390 q 401 408 349 404 q 506 411 453 413 q 605 406 558 411 q 685 383 651 401 q 739 327 719 365 q 758 221 758 289 q 742 108 758 153 q 684 40 725 64 q 572 5 643 15 q 392 -6 501 -6 m 394 129 q 470 133 436 129 q 525 155 504 138 q 546 211 546 172 q 530 260 546 246 q 487 278 514 275 q 426 282 460 281 q 380 282 404 282 q 331 281 356 282 q 284 280 307 281 q 242 279 261 279 q 242 254 242 269 q 244 224 243 239 q 246 199 244 208 q 269 153 251 168 q 319 134 288 139 q 394 129 350 129 z "},"7":{"ha":719,"x_min":17,"x_max":729,"o":"m 93 0 l 444 497 l 17 497 l 17 636 l 596 636 q 701 596 672 636 q 686 488 729 556 q 640 419 672 464 q 565 317 607 374 q 479 199 524 260 q 397 87 435 139 q 336 0 360 35 l 93 0 z "},"8":{"ha":824,"x_min":35,"x_max":788,"o":"m 410 -6 q 210 4 285 -6 q 98 35 136 14 q 47 94 60 57 q 35 186 35 131 q 65 288 35 246 q 154 339 96 329 q 81 382 106 343 q 57 472 57 421 q 88 574 57 538 q 194 628 118 611 q 407 644 271 644 q 588 635 517 644 q 697 606 658 626 q 750 553 735 586 q 765 472 765 521 q 742 382 765 421 q 668 340 718 343 q 758 288 728 331 q 788 186 788 246 q 775 97 788 133 q 724 38 763 60 q 610 5 686 15 q 410 -6 535 -6 m 381 126 l 433 126 q 532 142 506 126 q 558 199 558 157 q 549 242 558 226 q 513 264 539 258 q 433 269 486 269 l 381 269 q 301 264 328 269 q 267 242 275 258 q 258 199 258 226 q 283 142 258 157 q 381 126 308 126 m 407 411 q 484 415 456 411 q 525 433 513 419 q 538 471 538 446 q 526 508 538 496 q 486 526 514 521 q 407 531 458 531 q 328 526 356 531 q 288 508 300 521 q 276 471 276 496 q 288 433 276 446 q 327 415 299 419 q 407 411 356 411 z "},"9":{"ha":789,"x_min":31,"x_max":754,"o":"m 65 147 q 194 138 117 142 q 354 133 272 133 q 479 140 439 133 q 531 162 519 146 q 544 203 543 178 q 545 219 544 210 q 546 236 546 228 q 546 251 546 244 q 522 246 535 249 q 493 240 510 243 q 403 225 453 232 q 275 218 353 218 q 93 262 156 218 q 31 417 31 306 q 62 558 31 510 q 173 626 93 607 q 397 644 253 644 q 590 635 518 644 q 697 594 661 625 q 743 501 732 564 q 754 331 754 438 q 746 176 754 238 q 716 81 738 115 q 655 29 694 46 q 553 6 615 13 q 442 -1 494 1 q 342 -3 390 -3 q 249 -1 293 -3 q 160 1 204 0 q 82 29 108 7 q 60 97 56 51 l 65 147 m 542 363 q 542 403 542 383 q 540 442 542 424 q 527 483 540 468 q 483 503 514 497 q 394 510 451 510 q 299 502 333 510 q 253 478 265 494 q 240 431 240 461 q 249 387 240 403 q 281 364 258 371 q 344 357 304 357 q 432 358 390 357 q 503 361 474 360 q 542 363 532 363 z "}," ":{"ha":404,"x_min":0,"x_max":0,"o":""}," ":{"ha":404,"x_min":0,"x_max":0,"o":""},"A":{"ha":896,"x_min":-3,"x_max":885,"o":"m -3 0 l 231 525 q 302 613 256 581 q 444 644 349 644 q 573 615 522 644 q 651 525 624 585 l 885 0 l 589 0 l 529 131 l 261 131 l 206 0 l -3 0 m 304 232 l 478 232 l 408 396 q 403 410 407 403 q 393 417 400 417 q 381 410 385 417 q 375 396 378 403 l 304 232 z "},"Æ":{"ha":1290,"x_min":42,"x_max":1265,"o":"m 42 0 q 140 124 97 71 q 219 224 182 178 q 293 318 256 271 q 376 423 331 365 q 483 557 421 481 q 551 615 517 597 q 623 635 586 632 q 697 639 660 639 l 1265 639 q 1265 565 1265 601 q 1265 490 1265 528 l 813 490 l 813 396 l 1221 396 l 1221 246 q 1017 246 1118 246 q 813 246 915 246 l 813 149 l 1265 149 l 1265 0 q 907 0 1086 0 q 549 0 728 0 l 549 117 l 317 117 q 272 58 294 88 q 228 0 250 29 l 42 0 m 407 225 q 478 225 443 225 q 549 225 514 225 q 549 317 549 271 q 549 410 549 364 q 541 401 544 406 q 533 393 538 397 q 524 387 528 392 q 515 375 519 382 q 462 300 489 338 q 407 225 435 263 z "},"Ǽ":{"ha":1290,"x_min":42,"x_max":1265,"o":"m 42 0 q 140 124 97 71 q 219 224 182 178 q 293 318 256 271 q 376 423 331 365 q 483 557 421 481 q 551 615 517 597 q 623 635 586 632 q 697 639 660 639 l 1265 639 q 1265 565 1265 601 q 1265 490 1265 528 l 813 490 l 813 396 l 1221 396 l 1221 246 q 1017 246 1118 246 q 813 246 915 246 l 813 149 l 1265 149 l 1265 0 q 907 0 1086 0 q 549 0 728 0 l 549 117 l 317 117 q 272 58 294 88 q 228 0 250 29 l 42 0 m 407 225 q 478 225 443 225 q 549 225 514 225 q 549 317 549 271 q 549 410 549 364 q 541 401 544 406 q 533 393 538 397 q 524 387 528 392 q 515 375 519 382 q 462 300 489 338 q 407 225 435 263 m 801 724 l 1004 911 l 1114 850 l 901 724 l 801 724 z "},"Á":{"ha":896,"x_min":-3,"x_max":885,"o":"m -3 0 l 231 525 q 302 613 256 581 q 444 644 349 644 q 573 615 522 644 q 651 525 624 585 l 885 0 l 589 0 l 529 131 l 261 131 l 206 0 l -3 0 m 304 232 l 478 232 l 408 396 q 403 410 407 403 q 393 417 400 417 q 381 410 385 417 q 375 396 378 403 l 304 232 m 363 724 l 528 890 l 638 828 l 463 724 l 363 724 z "},"Ă":{"ha":896,"x_min":-3,"x_max":885,"o":"m -3 0 l 231 525 q 302 613 256 581 q 444 644 349 644 q 573 615 522 644 q 651 525 624 585 l 885 0 l 589 0 l 529 131 l 261 131 l 206 0 l -3 0 m 304 232 l 478 232 l 408 396 q 403 410 407 403 q 393 417 400 417 q 381 410 385 417 q 375 396 378 403 l 304 232 m 442 721 q 339 732 378 721 q 282 778 300 743 q 264 878 264 813 l 264 890 l 356 890 l 356 881 q 362 845 356 861 q 386 820 368 829 q 440 811 404 811 q 496 820 478 811 q 519 845 514 829 q 525 881 525 861 l 525 890 l 617 890 l 617 878 q 599 778 617 813 q 543 732 582 743 q 442 721 504 721 z "},"Ắ":{"ha":896,"x_min":-3,"x_max":885,"o":"m -3 0 l 231 525 q 302 613 256 581 q 444 644 349 644 q 573 615 522 644 q 651 525 624 585 l 885 0 l 589 0 l 529 131 l 261 131 l 206 0 l -3 0 m 304 232 l 478 232 l 408 396 q 403 410 407 403 q 393 417 400 417 q 381 410 385 417 q 375 396 378 403 l 304 232 m 442 721 q 339 732 378 721 q 282 778 300 743 q 264 878 264 813 l 264 890 l 356 890 l 356 881 q 362 845 356 861 q 386 820 368 829 q 440 811 404 811 q 496 820 478 811 q 519 845 514 829 q 525 881 525 861 l 525 890 l 617 890 l 617 878 q 599 778 617 813 q 543 732 582 743 q 442 721 504 721 m 363 947 l 528 1114 l 638 1051 l 463 947 l 363 947 z "},"Ặ":{"ha":896,"x_min":-3,"x_max":885,"o":"m -3 0 l 231 525 q 302 613 256 581 q 444 644 349 644 q 573 615 522 644 q 651 525 624 585 l 885 0 l 589 0 l 529 131 l 261 131 l 206 0 l -3 0 m 304 232 l 478 232 l 408 396 q 403 410 407 403 q 393 417 400 417 q 381 410 385 417 q 375 396 378 403 l 304 232 m 440 -239 q 378 -235 406 -239 q 336 -214 351 -231 q 321 -161 321 -197 q 357 -97 321 -110 q 446 -83 393 -83 q 528 -97 497 -83 q 558 -161 558 -110 q 544 -214 558 -197 q 503 -235 529 -231 q 440 -239 476 -239 m 442 721 q 339 732 378 721 q 282 778 300 743 q 264 878 264 813 l 264 890 l 356 890 l 356 881 q 362 845 356 861 q 386 820 368 829 q 440 811 404 811 q 496 820 478 811 q 519 845 514 829 q 525 881 525 861 l 525 890 l 617 890 l 617 878 q 599 778 617 813 q 543 732 582 743 q 442 721 504 721 z "},"Ằ":{"ha":896,"x_min":-3,"x_max":885,"o":"m -3 0 l 231 525 q 302 613 256 581 q 444 644 349 644 q 573 615 522 644 q 651 525 624 585 l 885 0 l 589 0 l 529 131 l 261 131 l 206 0 l -3 0 m 304 232 l 478 232 l 408 396 q 403 410 407 403 q 393 417 400 417 q 381 410 385 417 q 375 396 378 403 l 304 232 m 442 721 q 339 732 378 721 q 282 778 300 743 q 264 878 264 813 l 264 890 l 356 890 l 356 881 q 362 845 356 861 q 386 820 368 829 q 440 811 404 811 q 496 820 478 811 q 519 845 514 829 q 525 881 525 861 l 525 890 l 617 890 l 617 878 q 599 778 617 813 q 543 732 582 743 q 442 721 504 721 m 440 947 l 265 1051 l 375 1114 l 540 947 l 440 947 z "},"Ẳ":{"ha":896,"x_min":-3,"x_max":885,"o":"m -3 0 l 231 525 q 302 613 256 581 q 444 644 349 644 q 573 615 522 644 q 651 525 624 585 l 885 0 l 589 0 l 529 131 l 261 131 l 206 0 l -3 0 m 304 232 l 478 232 l 408 396 q 403 410 407 403 q 393 417 400 417 q 381 410 385 417 q 375 396 378 403 l 304 232 m 442 721 q 339 732 378 721 q 282 778 300 743 q 264 878 264 813 l 264 890 l 356 890 l 356 881 q 362 845 356 861 q 386 820 368 829 q 440 811 404 811 q 496 820 478 811 q 519 845 514 829 q 525 881 525 861 l 525 890 l 617 890 l 617 878 q 599 778 617 813 q 543 732 582 743 q 442 721 504 721 m 401 947 l 401 965 q 409 989 401 981 q 426 1001 417 997 q 442 1010 435 1004 q 450 1029 450 1017 l 450 1044 q 446 1067 450 1060 q 429 1075 442 1075 q 410 1046 411 1075 l 328 1058 q 358 1121 331 1100 q 439 1142 386 1142 q 527 1122 497 1142 q 557 1051 557 1101 l 557 1046 q 549 1008 557 1021 q 529 989 540 996 q 510 975 518 982 q 501 957 501 968 l 501 947 l 401 947 z "},"Ẵ":{"ha":896,"x_min":-3,"x_max":885,"o":"m -3 0 l 231 525 q 302 613 256 581 q 444 644 349 644 q 573 615 522 644 q 651 525 624 585 l 885 0 l 589 0 l 529 131 l 261 131 l 206 0 l -3 0 m 304 232 l 478 232 l 408 396 q 403 410 407 403 q 393 417 400 417 q 381 410 385 417 q 375 396 378 403 l 304 232 m 442 721 q 339 732 378 721 q 282 778 300 743 q 264 878 264 813 l 264 890 l 356 890 l 356 881 q 362 845 356 861 q 386 820 368 829 q 440 811 404 811 q 496 820 478 811 q 519 845 514 829 q 525 881 525 861 l 525 890 l 617 890 l 617 878 q 599 778 617 813 q 543 732 582 743 q 442 721 504 721 m 525 949 q 469 964 494 949 q 417 994 443 979 q 361 1008 390 1010 q 318 991 335 1008 q 296 965 301 974 l 253 1004 q 260 1020 253 1004 q 281 1056 268 1036 q 315 1092 294 1076 q 361 1108 335 1108 q 417 1095 390 1111 q 469 1064 443 1079 q 522 1049 496 1049 q 571 1067 553 1049 q 597 1097 589 1086 l 639 1064 q 631 1047 639 1064 q 609 1007 624 1029 q 573 967 594 985 q 525 949 551 949 z "},"Â":{"ha":896,"x_min":-3,"x_max":885,"o":"m -3 0 l 231 525 q 302 613 256 581 q 444 644 349 644 q 573 615 522 644 q 651 525 624 585 l 885 0 l 589 0 l 529 131 l 261 131 l 206 0 l -3 0 m 304 232 l 478 232 l 408 396 q 403 410 407 403 q 393 417 400 417 q 381 410 385 417 q 375 396 378 403 l 304 232 m 251 724 l 407 890 l 472 890 l 629 724 l 525 724 l 439 793 l 350 724 l 251 724 z "},"Ấ":{"ha":896,"x_min":-3,"x_max":885,"o":"m -3 0 l 231 525 q 302 613 256 581 q 444 644 349 644 q 573 615 522 644 q 651 525 624 585 l 885 0 l 589 0 l 529 131 l 261 131 l 206 0 l -3 0 m 304 232 l 478 232 l 408 396 q 403 410 407 403 q 393 417 400 417 q 381 410 385 417 q 375 396 378 403 l 304 232 m 251 724 l 407 890 l 472 890 l 629 724 l 525 724 l 439 793 l 350 724 l 251 724 m 589 867 l 754 1033 l 864 971 l 689 867 l 589 867 z "},"Ậ":{"ha":896,"x_min":-3,"x_max":885,"o":"m -3 0 l 231 525 q 302 613 256 581 q 444 644 349 644 q 573 615 522 644 q 651 525 624 585 l 885 0 l 589 0 l 529 131 l 261 131 l 206 0 l -3 0 m 304 232 l 478 232 l 408 396 q 403 410 407 403 q 393 417 400 417 q 381 410 385 417 q 375 396 378 403 l 304 232 m 440 -239 q 378 -235 406 -239 q 336 -214 351 -231 q 321 -161 321 -197 q 357 -97 321 -110 q 446 -83 393 -83 q 528 -97 497 -83 q 558 -161 558 -110 q 544 -214 558 -197 q 503 -235 529 -231 q 440 -239 476 -239 m 251 724 l 407 890 l 472 890 l 629 724 l 525 724 l 439 793 l 350 724 l 251 724 z "},"Ầ":{"ha":896,"x_min":-3,"x_max":885,"o":"m -3 0 l 231 525 q 302 613 256 581 q 444 644 349 644 q 573 615 522 644 q 651 525 624 585 l 885 0 l 589 0 l 529 131 l 261 131 l 206 0 l -3 0 m 304 232 l 478 232 l 408 396 q 403 410 407 403 q 393 417 400 417 q 381 410 385 417 q 375 396 378 403 l 304 232 m 251 724 l 407 890 l 472 890 l 629 724 l 525 724 l 439 793 l 350 724 l 251 724 m 667 867 l 492 971 l 601 1033 l 767 867 l 667 867 z "},"Ẩ":{"ha":896,"x_min":-3,"x_max":885,"o":"m -3 0 l 231 525 q 302 613 256 581 q 444 644 349 644 q 573 615 522 644 q 651 525 624 585 l 885 0 l 589 0 l 529 131 l 261 131 l 206 0 l -3 0 m 304 232 l 478 232 l 408 396 q 403 410 407 403 q 393 417 400 417 q 381 410 385 417 q 375 396 378 403 l 304 232 m 251 724 l 407 890 l 472 890 l 629 724 l 525 724 l 439 793 l 350 724 l 251 724 m 568 875 l 568 893 q 576 917 568 908 q 592 928 583 925 q 609 938 601 932 q 617 957 617 944 l 617 972 q 613 995 617 988 q 596 1003 608 1003 q 576 974 578 1003 l 494 986 q 525 1049 497 1028 q 606 1069 553 1069 q 694 1049 664 1069 q 724 979 724 1029 l 724 974 q 715 936 724 949 q 696 917 707 924 q 676 903 685 910 q 668 885 668 896 l 668 875 l 568 875 z "},"Ẫ":{"ha":896,"x_min":-3,"x_max":885,"o":"m -3 0 l 231 525 q 302 613 256 581 q 444 644 349 644 q 573 615 522 644 q 651 525 624 585 l 885 0 l 589 0 l 529 131 l 261 131 l 206 0 l -3 0 m 304 232 l 478 232 l 408 396 q 403 410 407 403 q 393 417 400 417 q 381 410 385 417 q 375 396 378 403 l 304 232 m 251 724 l 407 890 l 472 890 l 629 724 l 525 724 l 439 793 l 350 724 l 251 724 m 528 915 q 472 931 497 915 q 419 961 446 946 q 364 975 393 976 q 321 958 338 975 q 299 932 304 940 l 256 971 q 263 987 256 971 q 284 1023 271 1003 q 317 1059 297 1043 q 364 1075 338 1075 q 419 1062 393 1078 q 472 1031 446 1046 q 525 1015 499 1015 q 574 1034 556 1015 q 600 1064 592 1053 l 642 1031 q 634 1013 642 1031 q 612 974 626 996 q 576 933 597 951 q 528 915 554 915 z "},"Ȁ":{"ha":896,"x_min":-3,"x_max":885,"o":"m -3 0 l 231 525 q 302 613 256 581 q 444 644 349 644 q 573 615 522 644 q 651 525 624 585 l 885 0 l 589 0 l 529 131 l 261 131 l 206 0 l -3 0 m 304 232 l 478 232 l 408 396 q 403 410 407 403 q 393 417 400 417 q 381 410 385 417 q 375 396 378 403 l 304 232 m 336 724 l 157 850 l 285 911 l 436 724 l 336 724 m 499 724 l 358 889 l 486 949 l 588 724 l 499 724 z "},"Ä":{"ha":896,"x_min":-3,"x_max":885,"o":"m -3 0 l 231 525 q 302 613 256 581 q 444 644 349 644 q 573 615 522 644 q 651 525 624 585 l 885 0 l 589 0 l 529 131 l 261 131 l 206 0 l -3 0 m 304 232 l 478 232 l 408 396 q 403 410 407 403 q 393 417 400 417 q 381 410 385 417 q 375 396 378 403 l 304 232 m 579 721 q 516 732 540 721 q 492 785 492 743 q 518 835 492 826 q 582 844 544 844 q 642 834 619 844 q 664 785 664 824 q 641 732 664 743 q 579 721 618 721 m 303 721 q 240 732 264 721 q 215 786 215 743 q 242 835 215 826 q 306 844 268 844 q 365 834 343 844 q 388 786 388 824 q 364 732 388 743 q 303 721 340 721 z "},"Ạ":{"ha":896,"x_min":-3,"x_max":885,"o":"m -3 0 l 231 525 q 302 613 256 581 q 444 644 349 644 q 573 615 522 644 q 651 525 624 585 l 885 0 l 589 0 l 529 131 l 261 131 l 206 0 l -3 0 m 304 232 l 478 232 l 408 396 q 403 410 407 403 q 393 417 400 417 q 381 410 385 417 q 375 396 378 403 l 304 232 m 440 -239 q 378 -235 406 -239 q 336 -214 351 -231 q 321 -161 321 -197 q 357 -97 321 -110 q 446 -83 393 -83 q 528 -97 497 -83 q 558 -161 558 -110 q 544 -214 558 -197 q 503 -235 529 -231 q 440 -239 476 -239 z "},"À":{"ha":896,"x_min":-3,"x_max":885,"o":"m -3 0 l 231 525 q 302 613 256 581 q 444 644 349 644 q 573 615 522 644 q 651 525 624 585 l 885 0 l 589 0 l 529 131 l 261 131 l 206 0 l -3 0 m 304 232 l 478 232 l 408 396 q 403 410 407 403 q 393 417 400 417 q 381 410 385 417 q 375 396 378 403 l 304 232 m 440 724 l 265 828 l 375 890 l 540 724 l 440 724 z "},"Ả":{"ha":896,"x_min":-3,"x_max":885,"o":"m -3 0 l 231 525 q 302 613 256 581 q 444 644 349 644 q 573 615 522 644 q 651 525 624 585 l 885 0 l 589 0 l 529 131 l 261 131 l 206 0 l -3 0 m 304 232 l 478 232 l 408 396 q 403 410 407 403 q 393 417 400 417 q 381 410 385 417 q 375 396 378 403 l 304 232 m 401 724 l 401 742 q 409 765 401 757 q 426 777 417 774 q 442 787 435 781 q 450 806 450 793 l 450 821 q 446 844 450 836 q 429 851 442 851 q 410 822 411 851 l 328 835 q 358 897 331 876 q 439 918 386 918 q 527 898 497 918 q 557 828 557 878 l 557 822 q 549 785 557 797 q 529 765 540 772 q 510 751 518 758 q 501 733 501 744 l 501 724 l 401 724 z "},"Ȃ":{"ha":896,"x_min":-3,"x_max":885,"o":"m -3 0 l 231 525 q 302 613 256 581 q 444 644 349 644 q 573 615 522 644 q 651 525 624 585 l 885 0 l 589 0 l 529 131 l 261 131 l 206 0 l -3 0 m 304 232 l 478 232 l 408 396 q 403 410 407 403 q 393 417 400 417 q 381 410 385 417 q 375 396 378 403 l 304 232 m 264 721 l 264 733 q 282 834 264 800 q 339 879 300 868 q 442 890 378 890 q 543 878 504 890 q 599 833 582 867 q 617 733 617 800 l 617 721 l 525 721 l 525 731 q 519 766 525 750 q 496 791 514 782 q 440 800 478 800 q 387 791 404 800 q 363 767 369 782 q 356 732 357 751 l 356 721 l 264 721 z "},"Ā":{"ha":896,"x_min":-3,"x_max":885,"o":"m -3 0 l 231 525 q 302 613 256 581 q 444 644 349 644 q 573 615 522 644 q 651 525 624 585 l 885 0 l 589 0 l 529 131 l 261 131 l 206 0 l -3 0 m 304 232 l 478 232 l 408 396 q 403 410 407 403 q 393 417 400 417 q 381 410 385 417 q 375 396 378 403 l 304 232 m 232 724 l 232 819 l 647 819 l 647 724 l 232 724 z "},"Ą":{"ha":896,"x_min":-3,"x_max":885,"o":"m -3 0 l 231 525 q 302 613 256 581 q 444 644 349 644 q 573 615 522 644 q 651 525 624 585 l 885 0 l 589 0 l 529 131 l 261 131 l 206 0 l -3 0 m 304 232 l 478 232 l 408 396 q 403 410 407 403 q 393 417 400 417 q 381 410 385 417 q 375 396 378 403 l 304 232 m 700 -261 q 613 -247 643 -261 q 573 -206 583 -232 q 563 -146 563 -181 q 576 -88 563 -114 q 609 -42 589 -62 q 651 -8 629 -21 q 689 14 672 6 l 800 14 q 767 -3 788 10 q 724 -34 746 -17 q 685 -72 701 -51 q 669 -114 669 -93 q 692 -161 669 -153 q 746 -169 714 -169 q 790 -169 778 -169 q 804 -167 801 -168 q 810 -167 807 -167 q 803 -220 810 -199 q 772 -251 796 -242 q 700 -261 749 -261 z "},"Å":{"ha":896,"x_min":-3,"x_max":885,"o":"m -3 0 l 231 525 q 302 613 256 581 q 444 644 349 644 q 573 615 522 644 q 651 525 624 585 l 885 0 l 589 0 l 529 131 l 261 131 l 206 0 l -3 0 m 304 232 l 478 232 l 408 396 q 403 410 407 403 q 393 417 400 417 q 381 410 385 417 q 375 396 378 403 l 304 232 m 440 725 q 364 731 397 725 q 313 758 331 738 q 294 821 294 779 q 313 881 294 863 q 365 906 331 900 q 443 913 399 913 q 524 906 490 913 q 576 881 558 900 q 594 821 594 863 q 576 758 594 779 q 524 731 558 738 q 440 725 489 725 m 443 789 q 488 795 474 789 q 501 818 501 801 q 488 842 501 836 q 443 849 474 849 q 399 842 414 849 q 385 818 385 836 q 399 795 385 801 q 443 789 413 789 z "},"Ǻ":{"ha":896,"x_min":-3,"x_max":885,"o":"m -3 0 l 231 525 q 302 613 256 581 q 444 644 349 644 q 573 615 522 644 q 651 525 624 585 l 885 0 l 589 0 l 529 131 l 261 131 l 206 0 l -3 0 m 304 232 l 478 232 l 408 396 q 403 410 407 403 q 393 417 400 417 q 381 410 385 417 q 375 396 378 403 l 304 232 m 440 725 q 364 731 397 725 q 313 758 331 738 q 294 821 294 779 q 313 881 294 863 q 365 906 331 900 q 443 913 399 913 q 524 906 490 913 q 576 881 558 900 q 594 821 594 863 q 576 758 594 779 q 524 731 558 738 q 440 725 489 725 m 443 789 q 488 795 474 789 q 501 818 501 801 q 488 842 501 836 q 443 849 474 849 q 399 842 414 849 q 385 818 385 836 q 399 795 385 801 q 443 789 413 789 m 363 957 l 528 1124 l 638 1061 l 463 957 l 363 957 z "},"Ã":{"ha":896,"x_min":-3,"x_max":885,"o":"m -3 0 l 231 525 q 302 613 256 581 q 444 644 349 644 q 573 615 522 644 q 651 525 624 585 l 885 0 l 589 0 l 529 131 l 261 131 l 206 0 l -3 0 m 304 232 l 478 232 l 408 396 q 403 410 407 403 q 393 417 400 417 q 381 410 385 417 q 375 396 378 403 l 304 232 m 525 725 q 469 740 494 725 q 417 771 443 756 q 361 785 390 786 q 318 767 335 785 q 296 742 301 750 l 253 781 q 260 797 253 781 q 281 833 268 813 q 315 869 294 853 q 361 885 335 885 q 417 872 390 888 q 469 840 443 856 q 522 825 496 825 q 571 844 553 825 q 597 874 589 863 l 639 840 q 631 823 639 840 q 609 783 624 806 q 573 743 594 761 q 525 725 551 725 z "},"B":{"ha":925,"x_min":61,"x_max":878,"o":"m 601 -1 q 355 -2 458 -1 q 181 -3 251 -3 q 61 0 110 -3 l 61 575 q 78 627 61 615 q 126 639 96 639 q 242 640 196 639 q 322 641 289 640 q 384 642 356 642 q 447 642 413 642 q 540 641 488 642 q 636 640 592 640 q 699 639 681 640 q 815 599 775 635 q 854 483 854 563 q 836 397 854 428 q 789 352 818 365 q 729 339 760 339 q 798 332 769 339 q 843 308 826 325 q 869 261 860 290 q 878 188 878 232 q 864 90 878 126 q 819 33 850 53 q 735 6 788 13 q 601 -1 682 -1 m 513 125 q 552 126 535 125 q 581 134 569 128 q 598 156 592 140 q 604 200 604 172 q 590 254 604 239 q 524 269 575 269 l 338 269 q 303 300 310 269 q 296 389 296 331 l 515 389 q 549 393 535 389 q 572 413 564 397 q 581 463 581 428 q 567 514 581 497 q 525 531 554 531 q 492 532 511 532 q 454 532 474 532 q 412 532 433 532 q 371 532 390 532 q 345 522 356 532 q 335 493 335 511 l 335 125 q 372 125 360 125 q 397 125 385 125 q 435 125 410 125 q 513 125 460 125 z "},"C":{"ha":883,"x_min":35,"x_max":843,"o":"m 35 319 q 58 479 35 415 q 138 579 82 543 q 290 630 194 615 q 526 644 385 644 q 633 641 583 644 q 739 631 683 638 q 823 599 803 622 q 843 533 843 576 l 843 449 q 742 475 797 465 q 633 490 686 485 q 538 496 579 496 q 411 485 461 496 q 338 437 361 475 q 315 318 315 399 q 340 204 315 242 q 417 155 364 167 q 558 143 471 143 q 640 147 597 143 q 733 160 683 151 q 843 182 782 169 l 843 104 q 822 40 843 65 q 733 8 800 15 q 626 -3 679 0 q 515 -7 572 -7 q 279 8 372 -7 q 133 60 186 24 q 57 159 79 96 q 35 319 35 222 z "},"Ć":{"ha":883,"x_min":35,"x_max":843,"o":"m 35 319 q 58 479 35 415 q 138 579 82 543 q 290 630 194 615 q 526 644 385 644 q 633 641 583 644 q 739 631 683 638 q 823 599 803 622 q 843 533 843 576 l 843 449 q 742 475 797 465 q 633 490 686 485 q 538 496 579 496 q 411 485 461 496 q 338 437 361 475 q 315 318 315 399 q 340 204 315 242 q 417 155 364 167 q 558 143 471 143 q 640 147 597 143 q 733 160 683 151 q 843 182 782 169 l 843 104 q 822 40 843 65 q 733 8 800 15 q 626 -3 679 0 q 515 -7 572 -7 q 279 8 372 -7 q 133 60 186 24 q 57 159 79 96 q 35 319 35 222 m 417 724 l 582 890 l 692 828 l 517 724 l 417 724 z "},"Č":{"ha":883,"x_min":35,"x_max":843,"o":"m 306 890 l 403 890 l 493 821 l 578 890 l 683 890 l 525 724 l 460 724 l 306 890 m 35 319 q 58 479 35 415 q 138 579 82 543 q 290 630 194 615 q 526 644 385 644 q 633 641 583 644 q 739 631 683 638 q 823 599 803 622 q 843 533 843 576 l 843 449 q 742 475 797 465 q 633 490 686 485 q 538 496 579 496 q 411 485 461 496 q 338 437 361 475 q 315 318 315 399 q 340 204 315 242 q 417 155 364 167 q 558 143 471 143 q 640 147 597 143 q 733 160 683 151 q 843 182 782 169 l 843 104 q 822 40 843 65 q 733 8 800 15 q 626 -3 679 0 q 515 -7 572 -7 q 279 8 372 -7 q 133 60 186 24 q 57 159 79 96 q 35 319 35 222 z "},"Ç":{"ha":883,"x_min":35,"x_max":843,"o":"m 35 319 q 58 479 35 415 q 138 579 82 543 q 290 630 194 615 q 526 644 385 644 q 633 641 583 644 q 739 631 683 638 q 823 599 803 622 q 843 533 843 576 l 843 449 q 742 475 797 465 q 633 490 686 485 q 538 496 579 496 q 411 485 461 496 q 338 437 361 475 q 315 318 315 399 q 340 204 315 242 q 417 155 364 167 q 558 143 471 143 q 640 147 597 143 q 733 160 683 151 q 843 182 782 169 l 843 104 q 822 40 843 65 q 733 8 800 15 q 626 -3 679 0 q 515 -7 572 -7 q 279 8 372 -7 q 133 60 186 24 q 57 159 79 96 q 35 319 35 222 m 439 -246 q 373 -235 386 -246 q 360 -190 360 -225 q 377 -190 363 -190 q 424 -190 392 -190 q 474 -186 460 -190 q 488 -165 488 -182 q 474 -143 488 -147 q 424 -139 461 -139 l 361 -139 q 360 -130 361 -139 q 364 -105 358 -121 q 389 -67 369 -89 q 411 -45 400 -56 q 434 -26 422 -35 q 458 -9 446 -17 q 483 1 471 -1 l 556 1 l 481 -87 q 569 -91 540 -86 q 608 -113 599 -96 q 617 -168 617 -131 q 604 -222 617 -206 q 553 -242 592 -239 q 439 -246 515 -246 z "},"Ĉ":{"ha":883,"x_min":35,"x_max":843,"o":"m 35 319 q 58 479 35 415 q 138 579 82 543 q 290 630 194 615 q 526 644 385 644 q 633 641 583 644 q 739 631 683 638 q 823 599 803 622 q 843 533 843 576 l 843 449 q 742 475 797 465 q 633 490 686 485 q 538 496 579 496 q 411 485 461 496 q 338 437 361 475 q 315 318 315 399 q 340 204 315 242 q 417 155 364 167 q 558 143 471 143 q 640 147 597 143 q 733 160 683 151 q 843 182 782 169 l 843 104 q 822 40 843 65 q 733 8 800 15 q 626 -3 679 0 q 515 -7 572 -7 q 279 8 372 -7 q 133 60 186 24 q 57 159 79 96 q 35 319 35 222 m 304 724 l 460 890 l 525 890 l 682 724 l 578 724 l 492 793 l 403 724 l 304 724 z "},"Ċ":{"ha":883,"x_min":35,"x_max":843,"o":"m 35 319 q 58 479 35 415 q 138 579 82 543 q 290 630 194 615 q 526 644 385 644 q 633 641 583 644 q 739 631 683 638 q 823 599 803 622 q 843 533 843 576 l 843 449 q 742 475 797 465 q 633 490 686 485 q 538 496 579 496 q 411 485 461 496 q 338 437 361 475 q 315 318 315 399 q 340 204 315 242 q 417 155 364 167 q 558 143 471 143 q 640 147 597 143 q 733 160 683 151 q 843 182 782 169 l 843 104 q 822 40 843 65 q 733 8 800 15 q 626 -3 679 0 q 515 -7 572 -7 q 279 8 372 -7 q 133 60 186 24 q 57 159 79 96 q 35 319 35 222 m 494 719 q 432 728 456 719 q 408 776 408 738 q 434 824 408 814 q 497 833 460 833 q 556 823 533 833 q 578 776 578 813 q 556 728 578 738 q 494 719 533 719 z "},"D":{"ha":936,"x_min":61,"x_max":901,"o":"m 901 318 q 879 158 901 221 q 810 60 857 94 q 686 13 763 26 q 500 0 610 0 q 367 0 428 0 q 252 0 306 0 q 151 0 199 0 q 61 0 104 0 l 61 546 q 83 617 61 596 q 160 639 106 639 q 246 639 201 639 q 335 639 290 639 q 424 639 379 639 q 511 639 469 639 q 692 624 618 639 q 813 575 767 610 q 881 478 860 540 q 901 318 901 417 m 335 136 q 365 136 349 136 q 400 136 382 136 q 436 136 418 136 q 468 136 454 136 q 539 144 510 136 q 586 172 568 151 q 613 228 604 193 q 621 318 621 264 q 605 435 621 396 q 554 489 589 475 q 460 503 519 503 q 421 503 443 503 q 378 503 399 503 q 339 503 357 503 q 336 483 338 493 q 335 460 335 474 l 335 136 z "},"Ď":{"ha":936,"x_min":61,"x_max":901,"o":"m 294 890 l 393 890 l 482 821 l 567 890 l 672 890 l 515 724 l 450 724 l 294 890 m 901 318 q 879 158 901 221 q 810 60 857 94 q 686 13 763 26 q 500 0 610 0 q 367 0 428 0 q 252 0 306 0 q 151 0 199 0 q 61 0 104 0 l 61 546 q 83 617 61 596 q 160 639 106 639 q 246 639 201 639 q 335 639 290 639 q 424 639 379 639 q 511 639 469 639 q 692 624 618 639 q 813 575 767 610 q 881 478 860 540 q 901 318 901 417 m 335 136 q 365 136 349 136 q 400 136 382 136 q 436 136 418 136 q 468 136 454 136 q 539 144 510 136 q 586 172 568 151 q 613 228 604 193 q 621 318 621 264 q 605 435 621 396 q 554 489 589 475 q 460 503 519 503 q 421 503 443 503 q 378 503 399 503 q 339 503 357 503 q 336 483 338 493 q 335 460 335 474 l 335 136 z "},"Đ":{"ha":936,"x_min":-1,"x_max":901,"o":"m 901 318 q 879 158 901 221 q 810 60 857 94 q 686 13 763 26 q 500 0 610 0 q 367 0 428 0 q 252 0 306 0 q 151 0 199 0 q 61 0 104 0 l 61 546 q 83 617 61 596 q 160 639 106 639 q 246 639 201 639 q 335 639 290 639 q 424 639 379 639 q 511 639 469 639 q 692 624 618 639 q 813 575 767 610 q 881 478 860 540 q 901 318 901 417 m 335 136 q 365 136 349 136 q 400 136 382 136 q 436 136 418 136 q 468 136 454 136 q 539 144 510 136 q 586 172 568 151 q 613 228 604 193 q 621 318 621 264 q 605 435 621 396 q 554 489 589 475 q 460 503 519 503 q 421 503 443 503 q 378 503 399 503 q 339 503 357 503 q 336 483 338 493 q 335 460 335 474 l 335 136 m -1 349 l 488 349 l 488 271 l -1 271 l -1 349 z "},"∆":{"ha":831,"x_min":50,"x_max":781,"o":"m 781 0 l 50 0 l 408 781 l 781 0 m 542 119 q 499 221 521 169 q 456 325 478 272 q 413 429 435 378 q 371 531 392 481 l 182 119 l 542 119 z "},"ǅ":{"ha":1617,"x_min":61,"x_max":1597,"o":"m 1090 833 l 1189 833 l 1278 742 l 1364 833 l 1469 833 l 1311 639 l 1246 639 l 1090 833 m 901 318 q 879 158 901 221 q 810 60 857 94 q 686 13 763 26 q 500 0 610 0 q 367 0 428 0 q 252 0 306 0 q 151 0 199 0 q 61 0 104 0 l 61 546 q 83 617 61 596 q 160 639 106 639 q 246 639 201 639 q 335 639 290 639 q 424 639 379 639 q 511 639 469 639 q 692 624 618 639 q 813 575 767 610 q 881 478 860 540 q 901 318 901 417 m 335 136 q 365 136 349 136 q 400 136 382 136 q 436 136 418 136 q 468 136 454 136 q 539 144 510 136 q 586 172 568 151 q 613 228 604 193 q 621 318 621 264 q 605 435 621 396 q 554 489 589 475 q 460 503 519 503 q 421 503 443 503 q 378 503 399 503 q 339 503 357 503 q 336 483 338 493 q 335 460 335 474 l 335 136 m 1281 131 l 1594 131 l 1596 76 q 1578 15 1597 31 q 1513 0 1560 0 l 964 0 l 964 118 l 1242 424 l 974 424 l 974 488 q 992 536 974 518 q 1032 554 1010 554 l 1581 554 q 1574 493 1588 528 q 1537 424 1560 458 q 1493 367 1514 390 l 1281 131 z "},"E":{"ha":871,"x_min":68,"x_max":832,"o":"m 68 0 l 68 556 q 86 623 68 607 q 157 639 104 639 l 832 639 l 832 499 l 342 499 l 342 394 l 786 394 l 786 254 l 342 254 l 342 140 l 832 140 l 832 0 l 68 0 z "},"É":{"ha":871,"x_min":68,"x_max":832,"o":"m 68 0 l 68 556 q 86 623 68 607 q 157 639 104 639 l 832 639 l 832 499 l 342 499 l 342 394 l 786 394 l 786 254 l 342 254 l 342 140 l 832 140 l 832 0 l 68 0 m 372 724 l 538 890 l 647 828 l 472 724 l 372 724 z "},"Ĕ":{"ha":871,"x_min":68,"x_max":832,"o":"m 68 0 l 68 556 q 86 623 68 607 q 157 639 104 639 l 832 639 l 832 499 l 342 499 l 342 394 l 786 394 l 786 254 l 342 254 l 342 140 l 832 140 l 832 0 l 68 0 m 450 721 q 347 732 386 721 q 290 778 308 743 q 272 878 272 813 l 272 890 l 364 890 l 364 881 q 370 845 364 861 q 394 820 376 829 q 449 811 413 811 q 504 820 486 811 q 528 845 522 829 q 533 881 533 861 l 533 890 l 625 890 l 625 878 q 608 778 625 813 q 551 732 590 743 q 450 721 513 721 z "},"Ě":{"ha":871,"x_min":68,"x_max":832,"o":"m 261 890 l 358 890 l 449 821 l 533 890 l 639 890 l 481 724 l 415 724 l 261 890 m 68 0 l 68 556 q 86 623 68 607 q 157 639 104 639 l 832 639 l 832 499 l 342 499 l 342 394 l 786 394 l 786 254 l 342 254 l 342 140 l 832 140 l 832 0 l 68 0 z "},"Ê":{"ha":871,"x_min":68,"x_max":832,"o":"m 68 0 l 68 556 q 86 623 68 607 q 157 639 104 639 l 832 639 l 832 499 l 342 499 l 342 394 l 786 394 l 786 254 l 342 254 l 342 140 l 832 140 l 832 0 l 68 0 m 260 724 l 415 890 l 481 890 l 638 724 l 533 724 l 447 793 l 358 724 l 260 724 z "},"Ế":{"ha":871,"x_min":68,"x_max":874,"o":"m 68 0 l 68 556 q 86 623 68 607 q 157 639 104 639 l 832 639 l 832 499 l 342 499 l 342 394 l 786 394 l 786 254 l 342 254 l 342 140 l 832 140 l 832 0 l 68 0 m 260 724 l 415 890 l 481 890 l 638 724 l 533 724 l 447 793 l 358 724 l 260 724 m 599 867 l 764 1033 l 874 971 l 699 867 l 599 867 z "},"Ệ":{"ha":871,"x_min":68,"x_max":832,"o":"m 68 0 l 68 556 q 86 623 68 607 q 157 639 104 639 l 832 639 l 832 499 l 342 499 l 342 394 l 786 394 l 786 254 l 342 254 l 342 140 l 832 140 l 832 0 l 68 0 m 449 -239 q 387 -235 414 -239 q 344 -214 360 -231 q 329 -161 329 -197 q 365 -97 329 -110 q 454 -83 401 -83 q 536 -97 506 -83 q 567 -161 567 -110 q 552 -214 567 -197 q 511 -235 538 -231 q 449 -239 485 -239 m 260 724 l 415 890 l 481 890 l 638 724 l 533 724 l 447 793 l 358 724 l 260 724 z "},"Ề":{"ha":871,"x_min":68,"x_max":832,"o":"m 68 0 l 68 556 q 86 623 68 607 q 157 639 104 639 l 832 639 l 832 499 l 342 499 l 342 394 l 786 394 l 786 254 l 342 254 l 342 140 l 832 140 l 832 0 l 68 0 m 260 724 l 415 890 l 481 890 l 638 724 l 533 724 l 447 793 l 358 724 l 260 724 m 675 867 l 500 971 l 610 1033 l 775 867 l 675 867 z "},"Ể":{"ha":871,"x_min":68,"x_max":832,"o":"m 68 0 l 68 556 q 86 623 68 607 q 157 639 104 639 l 832 639 l 832 499 l 342 499 l 342 394 l 786 394 l 786 254 l 342 254 l 342 140 l 832 140 l 832 0 l 68 0 m 260 724 l 415 890 l 481 890 l 638 724 l 533 724 l 447 793 l 358 724 l 260 724 m 576 875 l 576 893 q 584 917 576 908 q 601 928 592 925 q 617 938 610 932 q 625 957 625 944 l 625 972 q 621 995 625 988 q 604 1003 617 1003 q 585 974 586 1003 l 503 986 q 533 1049 506 1028 q 614 1069 561 1069 q 702 1049 672 1069 q 732 979 732 1029 l 732 974 q 724 936 732 949 q 704 917 715 924 q 685 903 693 910 q 676 885 676 896 l 676 875 l 576 875 z "},"Ễ":{"ha":871,"x_min":68,"x_max":832,"o":"m 68 0 l 68 556 q 86 623 68 607 q 157 639 104 639 l 832 639 l 832 499 l 342 499 l 342 394 l 786 394 l 786 254 l 342 254 l 342 140 l 832 140 l 832 0 l 68 0 m 260 724 l 415 890 l 481 890 l 638 724 l 533 724 l 447 793 l 358 724 l 260 724 m 536 915 q 480 931 506 915 q 428 961 454 946 q 372 975 401 976 q 329 958 346 975 q 307 932 313 940 l 264 971 q 272 987 264 971 q 292 1023 279 1003 q 326 1059 306 1043 q 372 1075 346 1075 q 428 1062 401 1078 q 481 1031 454 1046 q 533 1015 507 1015 q 582 1034 564 1015 q 608 1064 600 1053 l 650 1031 q 642 1013 650 1031 q 620 974 635 996 q 584 933 606 951 q 536 915 563 915 z "},"Ȅ":{"ha":871,"x_min":68,"x_max":832,"o":"m 68 0 l 68 556 q 86 623 68 607 q 157 639 104 639 l 832 639 l 832 499 l 342 499 l 342 394 l 786 394 l 786 254 l 342 254 l 342 140 l 832 140 l 832 0 l 68 0 m 344 724 l 165 850 l 293 911 l 444 724 l 344 724 m 507 724 l 367 889 l 494 949 l 596 724 l 507 724 z "},"Ë":{"ha":871,"x_min":68,"x_max":832,"o":"m 68 0 l 68 556 q 86 623 68 607 q 157 639 104 639 l 832 639 l 832 499 l 342 499 l 342 394 l 786 394 l 786 254 l 342 254 l 342 140 l 832 140 l 832 0 l 68 0 m 588 721 q 524 732 549 721 q 500 785 500 743 q 526 835 500 826 q 590 844 553 844 q 650 834 628 844 q 672 785 672 824 q 649 732 672 743 q 588 721 626 721 m 311 721 q 248 732 272 721 q 224 786 224 743 q 250 835 224 826 q 314 844 276 844 q 374 834 351 844 q 396 786 396 824 q 372 732 396 743 q 311 721 349 721 z "},"Ė":{"ha":871,"x_min":68,"x_max":832,"o":"m 68 0 l 68 556 q 86 623 68 607 q 157 639 104 639 l 832 639 l 832 499 l 342 499 l 342 394 l 786 394 l 786 254 l 342 254 l 342 140 l 832 140 l 832 0 l 68 0 m 450 719 q 388 728 411 719 q 364 776 364 738 q 390 824 364 814 q 453 833 415 833 q 511 823 489 833 q 533 776 533 813 q 511 728 533 738 q 450 719 489 719 z "},"Ẹ":{"ha":871,"x_min":68,"x_max":832,"o":"m 68 0 l 68 556 q 86 623 68 607 q 157 639 104 639 l 832 639 l 832 499 l 342 499 l 342 394 l 786 394 l 786 254 l 342 254 l 342 140 l 832 140 l 832 0 l 68 0 m 449 -239 q 387 -235 414 -239 q 344 -214 360 -231 q 329 -161 329 -197 q 365 -97 329 -110 q 454 -83 401 -83 q 536 -97 506 -83 q 567 -161 567 -110 q 552 -214 567 -197 q 511 -235 538 -231 q 449 -239 485 -239 z "},"È":{"ha":871,"x_min":68,"x_max":832,"o":"m 68 0 l 68 556 q 86 623 68 607 q 157 639 104 639 l 832 639 l 832 499 l 342 499 l 342 394 l 786 394 l 786 254 l 342 254 l 342 140 l 832 140 l 832 0 l 68 0 m 449 724 l 274 828 l 383 890 l 549 724 l 449 724 z "},"Ẻ":{"ha":871,"x_min":68,"x_max":832,"o":"m 68 0 l 68 556 q 86 623 68 607 q 157 639 104 639 l 832 639 l 832 499 l 342 499 l 342 394 l 786 394 l 786 254 l 342 254 l 342 140 l 832 140 l 832 0 l 68 0 m 410 724 l 410 742 q 417 765 410 757 q 434 777 425 774 q 451 787 443 781 q 458 806 458 793 l 458 821 q 454 844 458 836 q 438 851 450 851 q 418 822 419 851 l 336 835 q 367 897 339 876 q 447 918 394 918 q 535 898 506 918 q 565 828 565 878 l 565 822 q 557 785 565 797 q 538 765 549 772 q 518 751 526 758 q 510 733 510 744 l 510 724 l 410 724 z "},"Ȇ":{"ha":871,"x_min":68,"x_max":832,"o":"m 68 0 l 68 556 q 86 623 68 607 q 157 639 104 639 l 832 639 l 832 499 l 342 499 l 342 394 l 786 394 l 786 254 l 342 254 l 342 140 l 832 140 l 832 0 l 68 0 m 272 721 l 272 733 q 290 834 272 800 q 347 879 308 868 q 450 890 386 890 q 551 878 513 890 q 608 833 590 867 q 625 733 625 800 l 625 721 l 533 721 l 533 731 q 528 766 533 750 q 504 791 522 782 q 449 800 486 800 q 395 791 413 800 q 372 767 378 782 q 364 732 365 751 l 364 721 l 272 721 z "},"Ē":{"ha":871,"x_min":68,"x_max":832,"o":"m 68 0 l 68 556 q 86 623 68 607 q 157 639 104 639 l 832 639 l 832 499 l 342 499 l 342 394 l 786 394 l 786 254 l 342 254 l 342 140 l 832 140 l 832 0 l 68 0 m 242 724 l 242 819 l 657 819 l 657 724 l 242 724 z "},"Ŋ":{"ha":965,"x_min":68,"x_max":897,"o":"m 68 0 q 72 24 71 4 q 74 67 74 43 q 74 310 74 189 q 74 553 74 432 q 98 622 74 606 q 182 639 122 639 q 306 639 244 639 q 428 639 367 639 q 563 452 496 546 q 697 265 631 358 q 697 452 697 358 q 697 639 697 546 q 797 639 747 639 q 897 639 847 639 q 893 619 894 636 q 892 583 892 603 q 892 547 892 563 q 892 237 892 392 q 892 -74 892 82 q 892 -121 892 -96 q 888 -162 892 -146 q 851 -233 881 -208 q 781 -268 821 -258 q 701 -281 742 -278 q 618 -283 654 -283 q 546 -278 582 -282 q 464 -271 510 -275 q 464 -193 464 -233 q 464 -114 464 -153 q 515 -128 481 -121 q 569 -136 549 -136 q 608 -119 597 -136 q 618 -79 618 -103 q 618 -40 618 -60 q 618 -1 618 -21 q 583 -1 601 -1 q 549 -1 565 -1 l 269 386 q 269 193 269 290 q 269 0 269 96 q 168 0 218 0 q 68 0 118 0 z "},"Ę":{"ha":871,"x_min":68,"x_max":832,"o":"m 68 0 l 68 556 q 86 623 68 607 q 157 639 104 639 l 832 639 l 832 499 l 342 499 l 342 394 l 786 394 l 786 254 l 342 254 l 342 140 l 832 140 l 832 0 l 68 0 m 658 -261 q 572 -247 601 -261 q 531 -206 542 -232 q 521 -146 521 -181 q 534 -88 521 -114 q 567 -42 547 -62 q 609 -8 588 -21 q 647 14 631 6 l 758 14 q 725 -3 746 10 q 682 -34 704 -17 q 644 -72 660 -51 q 628 -114 628 -93 q 650 -161 628 -153 q 704 -169 672 -169 q 748 -169 736 -169 q 763 -167 760 -168 q 768 -167 765 -167 q 761 -220 768 -199 q 731 -251 754 -242 q 658 -261 707 -261 z "},"Ð":{"ha":936,"x_min":-1,"x_max":901,"o":"m 901 318 q 879 158 901 221 q 810 60 857 94 q 686 13 763 26 q 500 0 610 0 q 367 0 428 0 q 252 0 306 0 q 151 0 199 0 q 61 0 104 0 l 61 546 q 83 617 61 596 q 160 639 106 639 q 246 639 201 639 q 335 639 290 639 q 424 639 379 639 q 511 639 469 639 q 692 624 618 639 q 813 575 767 610 q 881 478 860 540 q 901 318 901 417 m 335 136 q 365 136 349 136 q 400 136 382 136 q 436 136 418 136 q 468 136 454 136 q 539 144 510 136 q 586 172 568 151 q 613 228 604 193 q 621 318 621 264 q 605 435 621 396 q 554 489 589 475 q 460 503 519 503 q 421 503 443 503 q 378 503 399 503 q 339 503 357 503 q 336 483 338 493 q 335 460 335 474 l 335 136 m -1 349 l 488 349 l 488 271 l -1 271 l -1 349 z "},"Ẽ":{"ha":871,"x_min":68,"x_max":832,"o":"m 68 0 l 68 556 q 86 623 68 607 q 157 639 104 639 l 832 639 l 832 499 l 342 499 l 342 394 l 786 394 l 786 254 l 342 254 l 342 140 l 832 140 l 832 0 l 68 0 m 533 725 q 477 740 503 725 q 425 771 451 756 q 369 785 399 786 q 326 767 343 785 q 304 742 310 750 l 261 781 q 269 797 261 781 q 290 833 276 813 q 323 869 303 853 q 369 885 343 885 q 425 872 399 888 q 478 840 451 856 q 531 825 504 825 q 579 844 561 825 q 606 874 597 863 l 647 840 q 640 823 647 840 q 617 783 632 806 q 581 743 603 761 q 533 725 560 725 z "},"€":{"ha":904,"x_min":18,"x_max":864,"o":"m 90 315 q 125 495 90 429 q 221 592 160 561 q 365 633 282 624 q 540 643 447 643 q 652 640 600 643 q 758 628 704 636 q 843 597 822 621 q 864 531 864 574 l 864 447 q 761 473 818 463 q 649 488 704 483 q 551 493 594 493 q 439 483 483 493 q 374 435 394 472 q 353 315 353 397 q 375 201 353 239 q 446 152 397 164 q 574 140 494 140 q 658 145 614 140 q 752 159 701 150 q 864 179 803 168 l 864 103 q 842 38 864 63 q 753 6 821 14 q 644 -6 700 -3 q 531 -8 588 -8 q 337 3 419 -8 q 199 49 254 15 q 117 147 144 83 q 90 315 90 211 m 42 404 l 669 404 l 650 338 l 22 338 l 42 404 m 39 292 l 663 292 l 640 225 l 18 225 l 39 292 z "},"F":{"ha":864,"x_min":68,"x_max":833,"o":"m 68 0 l 68 540 q 72 599 68 578 q 94 630 75 621 q 157 639 113 639 l 833 639 l 833 499 l 343 499 l 343 394 l 788 394 l 788 254 l 343 254 l 343 0 l 68 0 z "},"G":{"ha":942,"x_min":35,"x_max":906,"o":"m 471 -6 q 274 6 356 -6 q 138 53 192 18 q 60 151 85 88 q 35 315 35 214 q 67 492 35 426 q 159 591 100 558 q 298 635 218 624 q 472 646 378 646 q 671 642 585 646 q 792 631 757 639 q 852 606 833 624 q 875 568 871 589 q 879 526 879 547 l 879 463 q 838 482 872 474 q 758 494 804 490 q 663 501 711 499 q 576 505 615 504 q 519 506 538 506 q 400 492 444 506 q 336 439 356 479 q 317 315 317 399 q 335 201 317 240 q 392 149 354 163 q 489 135 431 135 q 581 144 549 135 q 627 172 614 153 q 640 224 640 192 q 640 240 640 233 q 640 253 640 247 l 414 253 q 420 338 414 308 q 452 381 426 368 q 535 394 478 394 l 906 394 l 904 225 q 888 120 904 164 q 826 49 871 76 q 694 8 781 21 q 471 -6 608 -6 z "},"Ğ":{"ha":942,"x_min":35,"x_max":906,"o":"m 471 -6 q 274 6 356 -6 q 138 53 192 18 q 60 151 85 88 q 35 315 35 214 q 67 492 35 426 q 159 591 100 558 q 298 635 218 624 q 472 646 378 646 q 671 642 585 646 q 792 631 757 639 q 852 606 833 624 q 875 568 871 589 q 879 526 879 547 l 879 463 q 838 482 872 474 q 758 494 804 490 q 663 501 711 499 q 576 505 615 504 q 519 506 538 506 q 400 492 444 506 q 336 439 356 479 q 317 315 317 399 q 335 201 317 240 q 392 149 354 163 q 489 135 431 135 q 581 144 549 135 q 627 172 614 153 q 640 224 640 192 q 640 240 640 233 q 640 253 640 247 l 414 253 q 420 338 414 308 q 452 381 426 368 q 535 394 478 394 l 906 394 l 904 225 q 888 120 904 164 q 826 49 871 76 q 694 8 781 21 q 471 -6 608 -6 m 478 721 q 375 732 414 721 q 318 778 336 743 q 300 878 300 813 l 300 890 l 392 890 l 392 881 q 398 845 392 861 q 422 820 404 829 q 476 811 440 811 q 532 820 514 811 q 556 845 550 829 q 561 881 561 861 l 561 890 l 653 890 l 653 878 q 635 778 653 813 q 579 732 618 743 q 478 721 540 721 z "},"Ǧ":{"ha":942,"x_min":35,"x_max":906,"o":"m 289 890 l 386 890 l 476 821 l 561 890 l 667 890 l 508 724 l 443 724 l 289 890 m 471 -6 q 274 6 356 -6 q 138 53 192 18 q 60 151 85 88 q 35 315 35 214 q 67 492 35 426 q 159 591 100 558 q 298 635 218 624 q 472 646 378 646 q 671 642 585 646 q 792 631 757 639 q 852 606 833 624 q 875 568 871 589 q 879 526 879 547 l 879 463 q 838 482 872 474 q 758 494 804 490 q 663 501 711 499 q 576 505 615 504 q 519 506 538 506 q 400 492 444 506 q 336 439 356 479 q 317 315 317 399 q 335 201 317 240 q 392 149 354 163 q 489 135 431 135 q 581 144 549 135 q 627 172 614 153 q 640 224 640 192 q 640 240 640 233 q 640 253 640 247 l 414 253 q 420 338 414 308 q 452 381 426 368 q 535 394 478 394 l 906 394 l 904 225 q 888 120 904 164 q 826 49 871 76 q 694 8 781 21 q 471 -6 608 -6 z "},"Ģ":{"ha":942,"x_min":35,"x_max":906,"o":"m 471 -6 q 274 6 356 -6 q 138 53 192 18 q 60 151 85 88 q 35 315 35 214 q 67 492 35 426 q 159 591 100 558 q 298 635 218 624 q 472 646 378 646 q 671 642 585 646 q 792 631 757 639 q 852 606 833 624 q 875 568 871 589 q 879 526 879 547 l 879 463 q 838 482 872 474 q 758 494 804 490 q 663 501 711 499 q 576 505 615 504 q 519 506 538 506 q 400 492 444 506 q 336 439 356 479 q 317 315 317 399 q 335 201 317 240 q 392 149 354 163 q 489 135 431 135 q 581 144 549 135 q 627 172 614 153 q 640 224 640 192 q 640 240 640 233 q 640 253 640 247 l 414 253 q 420 338 414 308 q 452 381 426 368 q 535 394 478 394 l 906 394 l 904 225 q 888 120 904 164 q 826 49 871 76 q 694 8 781 21 q 471 -6 608 -6 m 372 -382 q 401 -329 389 -351 q 425 -286 414 -307 q 451 -237 436 -265 q 440 -237 446 -237 q 426 -235 433 -236 q 390 -217 406 -231 q 374 -162 374 -203 q 403 -99 374 -112 q 486 -86 433 -86 q 527 -91 508 -86 q 559 -112 546 -96 q 572 -162 572 -129 q 558 -237 572 -199 q 523 -314 544 -276 q 476 -382 501 -351 l 372 -382 z "},"Ĝ":{"ha":942,"x_min":35,"x_max":906,"o":"m 471 -6 q 274 6 356 -6 q 138 53 192 18 q 60 151 85 88 q 35 315 35 214 q 67 492 35 426 q 159 591 100 558 q 298 635 218 624 q 472 646 378 646 q 671 642 585 646 q 792 631 757 639 q 852 606 833 624 q 875 568 871 589 q 879 526 879 547 l 879 463 q 838 482 872 474 q 758 494 804 490 q 663 501 711 499 q 576 505 615 504 q 519 506 538 506 q 400 492 444 506 q 336 439 356 479 q 317 315 317 399 q 335 201 317 240 q 392 149 354 163 q 489 135 431 135 q 581 144 549 135 q 627 172 614 153 q 640 224 640 192 q 640 240 640 233 q 640 253 640 247 l 414 253 q 420 338 414 308 q 452 381 426 368 q 535 394 478 394 l 906 394 l 904 225 q 888 120 904 164 q 826 49 871 76 q 694 8 781 21 q 471 -6 608 -6 m 288 724 l 443 890 l 508 890 l 665 724 l 561 724 l 475 793 l 386 724 l 288 724 z "},"Ġ":{"ha":942,"x_min":35,"x_max":906,"o":"m 471 -6 q 274 6 356 -6 q 138 53 192 18 q 60 151 85 88 q 35 315 35 214 q 67 492 35 426 q 159 591 100 558 q 298 635 218 624 q 472 646 378 646 q 671 642 585 646 q 792 631 757 639 q 852 606 833 624 q 875 568 871 589 q 879 526 879 547 l 879 463 q 838 482 872 474 q 758 494 804 490 q 663 501 711 499 q 576 505 615 504 q 519 506 538 506 q 400 492 444 506 q 336 439 356 479 q 317 315 317 399 q 335 201 317 240 q 392 149 354 163 q 489 135 431 135 q 581 144 549 135 q 627 172 614 153 q 640 224 640 192 q 640 240 640 233 q 640 253 640 247 l 414 253 q 420 338 414 308 q 452 381 426 368 q 535 394 478 394 l 906 394 l 904 225 q 888 120 904 164 q 826 49 871 76 q 694 8 781 21 q 471 -6 608 -6 m 478 719 q 415 728 439 719 q 392 776 392 738 q 417 824 392 814 q 481 833 443 833 q 539 823 517 833 q 561 776 561 813 q 539 728 561 738 q 478 719 517 719 z "},"ẞ":{"ha":1151,"x_min":200,"x_max":1072,"o":"m 200 -35 q 200 67 200 25 q 200 146 200 108 q 200 232 200 183 q 200 353 200 281 q 200 540 200 426 q 226 622 200 589 q 304 672 251 654 q 435 698 357 690 q 618 706 514 706 q 795 699 717 706 q 928 677 874 693 q 1013 633 983 661 q 1040 563 1042 606 q 1017 504 1040 528 q 964 467 994 481 q 907 447 933 453 q 872 439 881 442 q 833 428 851 433 q 800 417 814 424 q 778 402 786 411 q 769 381 769 393 q 787 353 769 357 q 835 349 804 349 q 877 349 847 349 q 926 349 907 349 q 1012 328 981 349 q 1058 271 1043 308 q 1072 183 1072 233 q 1041 61 1072 101 q 958 7 1010 21 q 847 -7 907 -7 q 749 -7 797 -7 q 658 -3 701 -7 q 576 11 614 1 q 511 42 539 21 l 499 135 q 565 115 524 122 q 652 106 606 108 q 735 103 699 103 q 801 109 778 103 q 831 128 824 115 q 839 163 839 142 q 826 199 839 189 q 779 210 814 210 q 749 210 767 210 q 690 210 732 210 q 598 221 638 210 q 537 259 558 232 q 515 332 515 286 q 533 398 515 368 q 584 452 551 428 q 662 495 617 476 q 760 528 707 514 q 742 575 760 558 q 701 599 725 592 q 653 609 676 607 q 618 611 631 611 q 562 606 592 611 q 507 587 532 600 q 466 549 482 574 q 450 483 450 524 l 450 -35 l 200 -35 z "},"H":{"ha":956,"x_min":68,"x_max":888,"o":"m 68 0 l 68 567 q 88 626 68 614 q 158 639 108 639 l 342 639 l 342 401 l 614 401 l 614 639 l 888 639 l 888 83 q 872 17 888 33 q 796 0 856 0 l 614 0 l 614 263 l 342 263 l 342 0 l 68 0 z "},"Ħ":{"ha":956,"x_min":21,"x_max":933,"o":"m 68 0 l 68 567 q 88 626 68 614 q 158 639 108 639 l 342 639 l 342 401 l 614 401 l 614 639 l 888 639 l 888 83 q 872 17 888 33 q 796 0 856 0 l 614 0 l 614 263 l 342 263 l 342 0 l 68 0 m 21 553 l 935 553 l 935 486 l 22 486 l 21 553 z "},"Ĥ":{"ha":956,"x_min":68,"x_max":888,"o":"m 68 0 l 68 567 q 88 626 68 614 q 158 639 108 639 l 342 639 l 342 401 l 614 401 l 614 639 l 888 639 l 888 83 q 872 17 888 33 q 796 0 856 0 l 614 0 l 614 263 l 342 263 l 342 0 l 68 0 m 288 724 l 443 890 l 508 890 l 665 724 l 561 724 l 475 793 l 386 724 l 288 724 z "},"I":{"ha":410,"x_min":68,"x_max":342,"o":"m 68 0 q 68 278 68 139 q 68 557 68 418 q 72 602 68 583 q 95 630 76 621 q 157 639 114 639 l 342 639 l 342 0 l 68 0 z "},"Ĳ":{"ha":931,"x_min":68,"x_max":869,"o":"m 68 0 q 68 278 68 139 q 68 557 68 418 q 72 602 68 583 q 95 630 76 621 q 157 639 114 639 l 342 639 l 342 0 l 68 0 m 869 206 q 869 158 869 183 q 867 117 869 133 q 828 46 858 71 q 759 10 799 21 q 681 -1 719 0 q 597 -3 633 -4 q 525 1 561 -3 q 442 7 489 4 l 442 165 q 493 150 460 158 q 549 142 526 142 q 586 158 576 142 q 596 200 596 175 l 596 639 l 781 639 q 847 628 828 639 q 867 594 865 617 q 869 540 869 572 l 869 206 z "},"Í":{"ha":410,"x_min":68,"x_max":403,"o":"m 68 0 q 68 278 68 139 q 68 557 68 418 q 72 602 68 583 q 95 630 76 621 q 157 639 114 639 l 342 639 l 342 0 l 68 0 m 128 724 l 293 890 l 403 828 l 228 724 l 128 724 z "},"Ĭ":{"ha":410,"x_min":28,"x_max":381,"o":"m 68 0 q 68 278 68 139 q 68 557 68 418 q 72 602 68 583 q 95 630 76 621 q 157 639 114 639 l 342 639 l 342 0 l 68 0 m 206 721 q 103 732 142 721 q 46 778 64 743 q 28 878 28 813 l 28 890 l 119 890 l 119 881 q 126 845 119 861 q 150 820 132 829 q 204 811 168 811 q 260 820 242 811 q 283 845 278 829 q 289 881 289 861 l 289 890 l 381 890 l 381 878 q 363 778 381 813 q 307 732 346 743 q 206 721 268 721 z "},"Î":{"ha":410,"x_min":15,"x_max":393,"o":"m 68 0 q 68 278 68 139 q 68 557 68 418 q 72 602 68 583 q 95 630 76 621 q 157 639 114 639 l 342 639 l 342 0 l 68 0 m 15 724 l 171 890 l 236 890 l 393 724 l 289 724 l 203 793 l 114 724 l 15 724 z "},"Ȉ":{"ha":410,"x_min":-79,"x_max":351,"o":"m 68 0 q 68 278 68 139 q 68 557 68 418 q 72 602 68 583 q 95 630 76 621 q 157 639 114 639 l 342 639 l 342 0 l 68 0 m 100 724 l -79 850 l 49 911 l 200 724 l 100 724 m 263 724 l 122 889 l 250 949 l 351 724 l 263 724 z "},"Ï":{"ha":410,"x_min":-21,"x_max":429,"o":"m 68 0 q 68 278 68 139 q 68 557 68 418 q 72 602 68 583 q 95 630 76 621 q 157 639 114 639 l 342 639 l 342 0 l 68 0 m 343 721 q 280 732 304 721 q 256 785 256 743 q 282 835 256 826 q 346 844 308 844 q 406 834 383 844 q 428 785 428 824 q 405 732 428 743 q 343 721 382 721 m 67 721 q 3 732 28 721 q -21 786 -21 743 q 6 835 -21 826 q 69 844 32 844 q 129 834 107 844 q 151 786 151 824 q 128 732 151 743 q 67 721 104 721 z "},"İ":{"ha":410,"x_min":68,"x_max":342,"o":"m 68 0 q 68 278 68 139 q 68 557 68 418 q 72 602 68 583 q 95 630 76 621 q 157 639 114 639 l 342 639 l 342 0 l 68 0 m 206 719 q 143 728 167 719 q 119 776 119 738 q 145 824 119 814 q 208 833 171 833 q 267 823 244 833 q 289 776 289 813 q 267 728 289 738 q 206 719 244 719 z "},"Ị":{"ha":410,"x_min":68,"x_max":342,"o":"m 68 0 q 68 278 68 139 q 68 557 68 418 q 72 602 68 583 q 95 630 76 621 q 157 639 114 639 l 342 639 l 342 0 l 68 0 m 204 -239 q 142 -235 169 -239 q 100 -214 115 -231 q 85 -161 85 -197 q 121 -97 85 -110 q 210 -83 157 -83 q 292 -97 261 -83 q 322 -161 322 -110 q 308 -214 322 -197 q 267 -235 293 -231 q 204 -239 240 -239 z "},"Ì":{"ha":410,"x_min":29,"x_max":342,"o":"m 68 0 q 68 278 68 139 q 68 557 68 418 q 72 602 68 583 q 95 630 76 621 q 157 639 114 639 l 342 639 l 342 0 l 68 0 m 204 724 l 29 828 l 139 890 l 304 724 l 204 724 z "},"Ỉ":{"ha":410,"x_min":68,"x_max":342,"o":"m 68 0 q 68 278 68 139 q 68 557 68 418 q 72 602 68 583 q 95 630 76 621 q 157 639 114 639 l 342 639 l 342 0 l 68 0 m 165 724 l 165 742 q 173 765 165 757 q 190 777 181 774 q 206 787 199 781 q 214 806 214 793 l 214 821 q 210 844 214 836 q 193 851 206 851 q 174 822 175 851 l 92 835 q 122 897 94 876 q 203 918 150 918 q 291 898 261 918 q 321 828 321 878 l 321 822 q 313 785 321 797 q 293 765 304 772 q 274 751 282 758 q 265 733 265 744 l 265 724 l 165 724 z "},"Ȋ":{"ha":410,"x_min":28,"x_max":381,"o":"m 68 0 q 68 278 68 139 q 68 557 68 418 q 72 602 68 583 q 95 630 76 621 q 157 639 114 639 l 342 639 l 342 0 l 68 0 m 28 721 l 28 733 q 46 834 28 800 q 103 879 64 868 q 206 890 142 890 q 307 878 268 890 q 363 833 346 867 q 381 733 381 800 l 381 721 l 289 721 l 289 731 q 283 766 289 750 q 260 791 278 782 q 204 800 242 800 q 151 791 168 800 q 127 767 133 782 q 119 732 121 751 l 119 721 l 28 721 z "},"Ī":{"ha":410,"x_min":-3,"x_max":411,"o":"m 68 0 q 68 278 68 139 q 68 557 68 418 q 72 602 68 583 q 95 630 76 621 q 157 639 114 639 l 342 639 l 342 0 l 68 0 m -3 724 l -3 819 l 413 819 l 413 724 l -3 724 z "},"Į":{"ha":410,"x_min":46,"x_max":342,"o":"m 68 0 q 68 278 68 139 q 68 557 68 418 q 72 602 68 583 q 95 630 76 621 q 157 639 114 639 l 342 639 l 342 0 l 68 0 m 183 -261 q 97 -247 126 -261 q 56 -206 67 -232 q 46 -146 46 -181 q 59 -88 46 -114 q 92 -42 72 -62 q 134 -8 113 -21 q 172 14 156 6 l 283 14 q 250 -3 271 10 q 207 -34 229 -17 q 169 -72 185 -51 q 153 -114 153 -93 q 175 -161 153 -153 q 229 -169 197 -169 q 273 -169 261 -169 q 288 -167 285 -168 q 293 -167 290 -167 q 286 -220 293 -199 q 256 -251 279 -242 q 183 -261 232 -261 z "},"Ĩ":{"ha":410,"x_min":17,"x_max":403,"o":"m 68 0 q 68 278 68 139 q 68 557 68 418 q 72 602 68 583 q 95 630 76 621 q 157 639 114 639 l 342 639 l 342 0 l 68 0 m 289 725 q 233 740 258 725 q 181 771 207 756 q 125 785 154 786 q 82 767 99 785 q 60 742 65 750 l 17 781 q 24 797 17 781 q 45 833 32 813 q 78 869 58 853 q 125 885 99 885 q 181 872 154 888 q 233 840 207 856 q 286 825 260 825 q 335 844 317 825 q 361 874 353 863 l 403 840 q 395 823 403 840 q 373 783 388 806 q 337 743 358 761 q 289 725 315 725 z "},"J":{"ha":521,"x_min":32,"x_max":460,"o":"m 460 206 q 460 158 460 183 q 457 117 460 133 q 419 46 449 71 q 349 10 389 21 q 271 -1 310 0 q 188 -3 224 -4 q 115 1 151 -3 q 32 7 79 4 l 32 165 q 83 150 50 158 q 139 142 117 142 q 176 158 167 142 q 186 200 186 175 l 186 639 l 371 639 q 437 628 418 639 q 458 594 456 617 q 460 540 460 572 l 460 206 z "},"Ĵ":{"ha":521,"x_min":32,"x_max":500,"o":"m 460 206 q 460 158 460 183 q 457 117 460 133 q 419 46 449 71 q 349 10 389 21 q 271 -1 310 0 q 188 -3 224 -4 q 115 1 151 -3 q 32 7 79 4 l 32 165 q 83 150 50 158 q 139 142 117 142 q 176 158 167 142 q 186 200 186 175 l 186 639 l 371 639 q 437 628 418 639 q 458 594 456 617 q 460 540 460 572 l 460 206 m 122 724 l 278 890 l 343 890 l 500 724 l 396 724 l 310 793 l 221 724 l 122 724 z "},"K":{"ha":919,"x_min":68,"x_max":913,"o":"m 732 -21 q 643 -12 685 -21 q 569 21 601 -3 q 546 40 560 29 q 517 63 532 50 q 485 90 501 76 q 454 118 469 104 q 425 146 439 132 q 396 174 408 163 q 367 197 383 185 l 340 210 l 340 0 l 68 0 l 68 557 q 72 601 68 583 q 94 629 76 619 q 156 639 113 639 q 248 639 201 639 q 340 639 294 639 q 340 590 340 618 q 340 533 340 563 q 340 476 340 504 q 340 429 340 449 l 367 440 q 385 453 376 446 q 408 474 394 461 q 448 510 421 488 q 505 559 475 533 q 553 600 535 585 q 635 638 590 628 q 746 647 681 647 q 824 644 793 647 q 892 633 856 640 q 876 619 889 632 q 846 592 863 606 q 821 571 829 578 q 706 490 767 533 q 586 402 644 446 q 482 317 528 358 l 483 396 q 575 321 525 361 q 681 236 625 281 q 794 147 736 192 q 913 60 853 101 q 881 28 904 47 q 819 -6 857 10 q 732 -21 782 -21 z "},"Ķ":{"ha":919,"x_min":68,"x_max":913,"o":"m 732 -21 q 643 -12 685 -21 q 569 21 601 -3 q 546 40 560 29 q 517 63 532 50 q 485 90 501 76 q 454 118 469 104 q 425 146 439 132 q 396 174 408 163 q 367 197 383 185 l 340 210 l 340 0 l 68 0 l 68 557 q 72 601 68 583 q 94 629 76 619 q 156 639 113 639 q 248 639 201 639 q 340 639 294 639 q 340 590 340 618 q 340 533 340 563 q 340 476 340 504 q 340 429 340 449 l 367 440 q 385 453 376 446 q 408 474 394 461 q 448 510 421 488 q 505 559 475 533 q 553 600 535 585 q 635 638 590 628 q 746 647 681 647 q 824 644 793 647 q 892 633 856 640 q 876 619 889 632 q 846 592 863 606 q 821 571 829 578 q 706 490 767 533 q 586 402 644 446 q 482 317 528 358 l 483 396 q 575 321 525 361 q 681 236 625 281 q 794 147 736 192 q 913 60 853 101 q 881 28 904 47 q 819 -6 857 10 q 732 -21 782 -21 m 361 -382 q 390 -329 378 -351 q 414 -286 403 -307 q 440 -237 425 -265 q 428 -237 435 -237 q 415 -235 422 -236 q 378 -217 394 -231 q 363 -162 363 -203 q 392 -99 363 -112 q 475 -86 422 -86 q 516 -91 497 -86 q 548 -112 535 -96 q 561 -162 561 -129 q 547 -237 561 -199 q 512 -314 533 -276 q 465 -382 490 -351 l 361 -382 z "},"L":{"ha":758,"x_min":68,"x_max":744,"o":"m 340 639 l 340 140 l 744 140 l 744 0 l 68 0 l 68 553 q 72 601 68 582 q 94 630 75 621 q 157 639 113 639 l 340 639 z "},"Ǉ":{"ha":1279,"x_min":68,"x_max":1218,"o":"m 340 639 l 340 140 l 744 140 l 744 0 l 68 0 l 68 553 q 72 601 68 582 q 94 630 75 621 q 157 639 113 639 l 340 639 m 1218 206 q 1218 158 1218 183 q 1215 117 1218 133 q 1177 46 1207 71 q 1108 10 1147 21 q 1029 -1 1068 0 q 946 -3 982 -4 q 874 1 910 -3 q 790 7 838 4 l 790 165 q 842 150 808 158 q 897 142 875 142 q 935 158 925 142 q 944 200 944 175 l 944 639 l 1129 639 q 1195 628 1176 639 q 1216 594 1214 617 q 1218 540 1218 572 l 1218 206 z "},"Ĺ":{"ha":758,"x_min":68,"x_max":744,"o":"m 340 639 l 340 140 l 744 140 l 744 0 l 68 0 l 68 553 q 72 601 68 582 q 94 630 75 621 q 157 639 113 639 l 340 639 m 186 724 l 351 890 l 461 828 l 286 724 l 186 724 z "},"Ľ":{"ha":758,"x_min":68,"x_max":744,"o":"m 340 639 l 340 140 l 744 140 l 744 0 l 68 0 l 68 553 q 72 601 68 582 q 94 630 75 621 q 157 639 113 639 l 340 639 m 510 425 l 497 639 l 607 639 l 597 425 l 510 425 z "},"Ļ":{"ha":758,"x_min":68,"x_max":744,"o":"m 340 639 l 340 140 l 744 140 l 744 0 l 68 0 l 68 553 q 72 601 68 582 q 94 630 75 621 q 157 639 113 639 l 340 639 m 293 -382 q 322 -329 310 -351 q 346 -286 335 -307 q 372 -237 357 -265 q 360 -237 367 -237 q 347 -235 354 -236 q 310 -217 326 -231 q 294 -162 294 -203 q 324 -99 294 -112 q 407 -86 354 -86 q 448 -91 429 -86 q 480 -112 467 -96 q 493 -162 493 -129 q 479 -237 493 -199 q 444 -314 465 -276 q 397 -382 422 -351 l 293 -382 z "},"Ŀ":{"ha":792,"x_min":68,"x_max":744,"o":"m 340 639 l 340 140 l 744 140 l 744 0 l 68 0 l 68 553 q 72 601 68 582 q 94 630 75 621 q 157 639 113 639 l 340 639 m 464 324 q 499 389 464 376 q 588 401 535 401 q 671 388 640 401 q 701 324 701 375 q 687 272 701 288 q 646 251 672 256 q 583 246 619 246 q 522 251 549 246 q 479 272 494 256 q 464 324 464 288 z "},"Ł":{"ha":793,"x_min":-24,"x_max":746,"o":"m 467 347 l 486 282 l 1 118 l -24 182 l 467 347 m 342 639 l 342 140 l 746 140 l 746 0 l 69 0 l 69 553 q 73 601 69 582 q 95 630 76 621 q 158 639 114 639 l 342 639 z "},"M":{"ha":1038,"x_min":68,"x_max":971,"o":"m 68 0 l 68 561 q 88 626 68 614 q 168 639 107 639 l 379 639 l 517 332 l 519 315 l 522 317 l 525 332 l 656 639 l 878 639 q 953 623 936 639 q 971 557 971 607 l 971 82 q 962 25 971 42 q 931 4 953 8 q 869 0 910 0 l 696 0 l 696 347 l 686 300 l 558 0 l 396 0 l 269 299 l 260 346 l 260 0 l 68 0 z "},"N":{"ha":958,"x_min":68,"x_max":890,"o":"m 68 0 l 68 553 q 84 622 68 606 q 161 639 100 639 l 422 639 l 683 276 l 692 233 l 692 639 l 890 639 q 888 619 889 636 q 886 583 886 603 q 886 547 886 563 l 886 72 q 863 12 886 24 q 779 0 839 0 l 542 0 l 271 374 l 263 418 l 263 0 l 68 0 z "},"Ǌ":{"ha":1479,"x_min":68,"x_max":1419,"o":"m 68 0 l 68 553 q 84 622 68 606 q 161 639 100 639 l 422 639 l 683 276 l 692 233 l 692 639 l 890 639 q 888 619 889 636 q 886 583 886 603 q 886 547 886 563 l 886 72 q 863 12 886 24 q 779 0 839 0 l 542 0 l 271 374 l 263 418 l 263 0 l 68 0 m 1418 206 q 1418 158 1418 183 q 1415 117 1418 133 q 1377 46 1407 71 q 1308 10 1347 21 q 1229 -1 1268 0 q 1146 -3 1182 -4 q 1074 1 1110 -3 q 990 7 1038 4 l 990 165 q 1042 150 1008 158 q 1097 142 1075 142 q 1135 158 1125 142 q 1144 200 1144 175 l 1144 639 l 1329 639 q 1395 628 1376 639 q 1416 594 1414 617 q 1418 540 1418 572 l 1418 206 z "},"Ń":{"ha":958,"x_min":68,"x_max":890,"o":"m 68 0 l 68 553 q 84 622 68 606 q 161 639 100 639 l 422 639 l 683 276 l 692 233 l 692 639 l 890 639 q 888 619 889 636 q 886 583 886 603 q 886 547 886 563 l 886 72 q 863 12 886 24 q 779 0 839 0 l 542 0 l 271 374 l 263 418 l 263 0 l 68 0 m 403 724 l 568 890 l 678 828 l 503 724 l 403 724 z "},"Ň":{"ha":958,"x_min":68,"x_max":890,"o":"m 290 890 l 389 890 l 479 821 l 564 890 l 669 890 l 511 724 l 446 724 l 290 890 m 68 0 l 68 553 q 84 622 68 606 q 161 639 100 639 l 422 639 l 683 276 l 692 233 l 692 639 l 890 639 q 888 619 889 636 q 886 583 886 603 q 886 547 886 563 l 886 72 q 863 12 886 24 q 779 0 839 0 l 542 0 l 271 374 l 263 418 l 263 0 l 68 0 z "},"Ņ":{"ha":958,"x_min":68,"x_max":890,"o":"m 68 0 l 68 553 q 84 622 68 606 q 161 639 100 639 l 422 639 l 683 276 l 692 233 l 692 639 l 890 639 q 888 619 889 636 q 886 583 886 603 q 886 547 886 563 l 886 72 q 863 12 886 24 q 779 0 839 0 l 542 0 l 271 374 l 263 418 l 263 0 l 68 0 m 375 -382 q 404 -329 392 -351 q 428 -286 417 -307 q 454 -237 439 -265 q 442 -237 449 -237 q 429 -235 436 -236 q 392 -217 408 -231 q 376 -162 376 -203 q 406 -99 376 -112 q 489 -86 436 -86 q 530 -91 511 -86 q 562 -112 549 -96 q 575 -162 575 -129 q 561 -237 575 -199 q 526 -314 547 -276 q 479 -382 504 -351 l 375 -382 z "},"Ñ":{"ha":958,"x_min":68,"x_max":890,"o":"m 68 0 l 68 553 q 84 622 68 606 q 161 639 100 639 l 422 639 l 683 276 l 692 233 l 692 639 l 890 639 q 888 619 889 636 q 886 583 886 603 q 886 547 886 563 l 886 72 q 863 12 886 24 q 779 0 839 0 l 542 0 l 271 374 l 263 418 l 263 0 l 68 0 m 564 725 q 508 740 533 725 q 456 771 482 756 q 400 785 429 786 q 357 767 374 785 q 335 742 340 750 l 292 781 q 299 797 292 781 q 320 833 307 813 q 353 869 333 853 q 400 885 374 885 q 456 872 429 888 q 508 840 482 856 q 561 825 535 825 q 610 844 592 825 q 636 874 628 863 l 678 840 q 670 823 678 840 q 648 783 663 806 q 612 743 633 761 q 564 725 590 725 z "},"O":{"ha":940,"x_min":35,"x_max":906,"o":"m 469 -10 q 266 6 349 -10 q 132 60 183 22 q 58 162 81 99 q 35 319 35 225 q 58 478 35 415 q 133 579 82 542 q 268 633 185 617 q 472 649 351 649 q 676 633 593 649 q 809 578 758 617 q 883 477 860 540 q 906 319 906 414 q 882 162 906 225 q 808 60 858 99 q 674 6 757 22 q 469 -10 590 -10 m 471 131 q 542 140 513 131 q 590 169 571 149 q 616 227 608 190 q 624 319 624 264 q 616 413 624 376 q 590 470 608 449 q 542 500 571 492 q 471 508 513 508 q 399 500 429 508 q 351 470 369 492 q 325 413 333 449 q 317 319 317 376 q 325 227 317 264 q 351 169 333 190 q 399 140 369 149 q 471 131 429 131 z "},"Œ":{"ha":1488,"x_min":35,"x_max":1443,"o":"m 469 -10 q 266 6 349 -10 q 132 60 183 22 q 58 162 81 99 q 35 319 35 225 q 58 478 35 415 q 133 579 82 542 q 268 633 185 617 q 472 649 351 649 q 676 633 593 649 q 809 578 758 617 q 883 477 860 540 q 906 319 906 414 q 882 162 906 225 q 808 60 858 99 q 674 6 757 22 q 469 -10 590 -10 m 471 131 q 542 140 513 131 q 590 169 571 149 q 616 227 608 190 q 624 319 624 264 q 616 413 624 376 q 590 470 608 449 q 542 500 571 492 q 471 508 513 508 q 399 500 429 508 q 351 470 369 492 q 325 413 333 449 q 317 319 317 376 q 325 227 317 264 q 351 169 333 190 q 399 140 369 149 q 471 131 429 131 m 679 0 l 679 556 q 697 623 679 607 q 768 639 715 639 l 1443 639 l 1443 499 l 953 499 l 953 394 l 1397 394 l 1397 254 l 953 254 l 953 140 l 1443 140 l 1443 0 l 679 0 z "},"Ó":{"ha":940,"x_min":35,"x_max":906,"o":"m 469 -10 q 266 6 349 -10 q 132 60 183 22 q 58 162 81 99 q 35 319 35 225 q 58 478 35 415 q 133 579 82 542 q 268 633 185 617 q 472 649 351 649 q 676 633 593 649 q 809 578 758 617 q 883 477 860 540 q 906 319 906 414 q 882 162 906 225 q 808 60 858 99 q 674 6 757 22 q 469 -10 590 -10 m 471 131 q 542 140 513 131 q 590 169 571 149 q 616 227 608 190 q 624 319 624 264 q 616 413 624 376 q 590 470 608 449 q 542 500 571 492 q 471 508 513 508 q 399 500 429 508 q 351 470 369 492 q 325 413 333 449 q 317 319 317 376 q 325 227 317 264 q 351 169 333 190 q 399 140 369 149 q 471 131 429 131 m 393 724 l 558 890 l 668 828 l 493 724 l 393 724 z "},"Ŏ":{"ha":940,"x_min":35,"x_max":906,"o":"m 469 -10 q 266 6 349 -10 q 132 60 183 22 q 58 162 81 99 q 35 319 35 225 q 58 478 35 415 q 133 579 82 542 q 268 633 185 617 q 472 649 351 649 q 676 633 593 649 q 809 578 758 617 q 883 477 860 540 q 906 319 906 414 q 882 162 906 225 q 808 60 858 99 q 674 6 757 22 q 469 -10 590 -10 m 471 131 q 542 140 513 131 q 590 169 571 149 q 616 227 608 190 q 624 319 624 264 q 616 413 624 376 q 590 470 608 449 q 542 500 571 492 q 471 508 513 508 q 399 500 429 508 q 351 470 369 492 q 325 413 333 449 q 317 319 317 376 q 325 227 317 264 q 351 169 333 190 q 399 140 369 149 q 471 131 429 131 m 471 721 q 368 732 407 721 q 311 778 329 743 q 293 878 293 813 l 293 890 l 385 890 l 385 881 q 391 845 385 861 q 415 820 397 829 q 469 811 433 811 q 525 820 507 811 q 549 845 543 829 q 554 881 554 861 l 554 890 l 646 890 l 646 878 q 628 778 646 813 q 572 732 611 743 q 471 721 533 721 z "},"Ô":{"ha":940,"x_min":35,"x_max":906,"o":"m 469 -10 q 266 6 349 -10 q 132 60 183 22 q 58 162 81 99 q 35 319 35 225 q 58 478 35 415 q 133 579 82 542 q 268 633 185 617 q 472 649 351 649 q 676 633 593 649 q 809 578 758 617 q 883 477 860 540 q 906 319 906 414 q 882 162 906 225 q 808 60 858 99 q 674 6 757 22 q 469 -10 590 -10 m 471 131 q 542 140 513 131 q 590 169 571 149 q 616 227 608 190 q 624 319 624 264 q 616 413 624 376 q 590 470 608 449 q 542 500 571 492 q 471 508 513 508 q 399 500 429 508 q 351 470 369 492 q 325 413 333 449 q 317 319 317 376 q 325 227 317 264 q 351 169 333 190 q 399 140 369 149 q 471 131 429 131 m 282 724 l 438 890 l 503 890 l 660 724 l 556 724 l 469 793 l 381 724 l 282 724 z "},"Ố":{"ha":940,"x_min":35,"x_max":906,"o":"m 469 -10 q 266 6 349 -10 q 132 60 183 22 q 58 162 81 99 q 35 319 35 225 q 58 478 35 415 q 133 579 82 542 q 268 633 185 617 q 472 649 351 649 q 676 633 593 649 q 809 578 758 617 q 883 477 860 540 q 906 319 906 414 q 882 162 906 225 q 808 60 858 99 q 674 6 757 22 q 469 -10 590 -10 m 471 131 q 542 140 513 131 q 590 169 571 149 q 616 227 608 190 q 624 319 624 264 q 616 413 624 376 q 590 470 608 449 q 542 500 571 492 q 471 508 513 508 q 399 500 429 508 q 351 470 369 492 q 325 413 333 449 q 317 319 317 376 q 325 227 317 264 q 351 169 333 190 q 399 140 369 149 q 471 131 429 131 m 282 724 l 438 890 l 503 890 l 660 724 l 556 724 l 469 793 l 381 724 l 282 724 m 619 867 l 785 1033 l 894 971 l 719 867 l 619 867 z "},"Ộ":{"ha":940,"x_min":35,"x_max":906,"o":"m 469 -10 q 266 6 349 -10 q 132 60 183 22 q 58 162 81 99 q 35 319 35 225 q 58 478 35 415 q 133 579 82 542 q 268 633 185 617 q 472 649 351 649 q 676 633 593 649 q 809 578 758 617 q 883 477 860 540 q 906 319 906 414 q 882 162 906 225 q 808 60 858 99 q 674 6 757 22 q 469 -10 590 -10 m 471 131 q 542 140 513 131 q 590 169 571 149 q 616 227 608 190 q 624 319 624 264 q 616 413 624 376 q 590 470 608 449 q 542 500 571 492 q 471 508 513 508 q 399 500 429 508 q 351 470 369 492 q 325 413 333 449 q 317 319 317 376 q 325 227 317 264 q 351 169 333 190 q 399 140 369 149 q 471 131 429 131 m 471 -239 q 409 -235 436 -239 q 367 -214 382 -231 q 351 -161 351 -197 q 388 -97 351 -110 q 476 -83 424 -83 q 558 -97 528 -83 q 589 -161 589 -110 q 574 -214 589 -197 q 533 -235 560 -231 q 471 -239 507 -239 m 282 724 l 438 890 l 503 890 l 660 724 l 556 724 l 469 793 l 381 724 l 282 724 z "},"Ồ":{"ha":940,"x_min":35,"x_max":906,"o":"m 469 -10 q 266 6 349 -10 q 132 60 183 22 q 58 162 81 99 q 35 319 35 225 q 58 478 35 415 q 133 579 82 542 q 268 633 185 617 q 472 649 351 649 q 676 633 593 649 q 809 578 758 617 q 883 477 860 540 q 906 319 906 414 q 882 162 906 225 q 808 60 858 99 q 674 6 757 22 q 469 -10 590 -10 m 471 131 q 542 140 513 131 q 590 169 571 149 q 616 227 608 190 q 624 319 624 264 q 616 413 624 376 q 590 470 608 449 q 542 500 571 492 q 471 508 513 508 q 399 500 429 508 q 351 470 369 492 q 325 413 333 449 q 317 319 317 376 q 325 227 317 264 q 351 169 333 190 q 399 140 369 149 q 471 131 429 131 m 282 724 l 438 890 l 503 890 l 660 724 l 556 724 l 469 793 l 381 724 l 282 724 m 696 867 l 521 971 l 631 1033 l 796 867 l 696 867 z "},"Ổ":{"ha":940,"x_min":35,"x_max":906,"o":"m 469 -10 q 266 6 349 -10 q 132 60 183 22 q 58 162 81 99 q 35 319 35 225 q 58 478 35 415 q 133 579 82 542 q 268 633 185 617 q 472 649 351 649 q 676 633 593 649 q 809 578 758 617 q 883 477 860 540 q 906 319 906 414 q 882 162 906 225 q 808 60 858 99 q 674 6 757 22 q 469 -10 590 -10 m 471 131 q 542 140 513 131 q 590 169 571 149 q 616 227 608 190 q 624 319 624 264 q 616 413 624 376 q 590 470 608 449 q 542 500 571 492 q 471 508 513 508 q 399 500 429 508 q 351 470 369 492 q 325 413 333 449 q 317 319 317 376 q 325 227 317 264 q 351 169 333 190 q 399 140 369 149 q 471 131 429 131 m 282 724 l 438 890 l 503 890 l 660 724 l 556 724 l 469 793 l 381 724 l 282 724 m 597 875 l 597 893 q 605 917 597 908 q 622 928 613 925 q 638 938 631 932 q 646 957 646 944 l 646 972 q 642 995 646 988 q 625 1003 638 1003 q 606 974 607 1003 l 524 986 q 554 1049 526 1028 q 635 1069 582 1069 q 723 1049 693 1069 q 753 979 753 1029 l 753 974 q 744 936 753 949 q 725 917 736 924 q 706 903 714 910 q 697 885 697 896 l 697 875 l 597 875 z "},"Ỗ":{"ha":940,"x_min":35,"x_max":906,"o":"m 469 -10 q 266 6 349 -10 q 132 60 183 22 q 58 162 81 99 q 35 319 35 225 q 58 478 35 415 q 133 579 82 542 q 268 633 185 617 q 472 649 351 649 q 676 633 593 649 q 809 578 758 617 q 883 477 860 540 q 906 319 906 414 q 882 162 906 225 q 808 60 858 99 q 674 6 757 22 q 469 -10 590 -10 m 471 131 q 542 140 513 131 q 590 169 571 149 q 616 227 608 190 q 624 319 624 264 q 616 413 624 376 q 590 470 608 449 q 542 500 571 492 q 471 508 513 508 q 399 500 429 508 q 351 470 369 492 q 325 413 333 449 q 317 319 317 376 q 325 227 317 264 q 351 169 333 190 q 399 140 369 149 q 471 131 429 131 m 282 724 l 438 890 l 503 890 l 660 724 l 556 724 l 469 793 l 381 724 l 282 724 m 557 915 q 501 931 526 915 q 449 961 475 946 q 393 975 422 976 q 350 958 367 975 q 328 932 333 940 l 285 971 q 292 987 285 971 q 313 1023 300 1003 q 347 1059 326 1043 q 393 1075 367 1075 q 449 1062 422 1078 q 501 1031 475 1046 q 554 1015 528 1015 q 603 1034 585 1015 q 629 1064 621 1053 l 671 1031 q 663 1013 671 1031 q 641 974 656 996 q 605 933 626 951 q 557 915 583 915 z "},"Ȍ":{"ha":940,"x_min":35,"x_max":906,"o":"m 469 -10 q 266 6 349 -10 q 132 60 183 22 q 58 162 81 99 q 35 319 35 225 q 58 478 35 415 q 133 579 82 542 q 268 633 185 617 q 472 649 351 649 q 676 633 593 649 q 809 578 758 617 q 883 477 860 540 q 906 319 906 414 q 882 162 906 225 q 808 60 858 99 q 674 6 757 22 q 469 -10 590 -10 m 471 131 q 542 140 513 131 q 590 169 571 149 q 616 227 608 190 q 624 319 624 264 q 616 413 624 376 q 590 470 608 449 q 542 500 571 492 q 471 508 513 508 q 399 500 429 508 q 351 470 369 492 q 325 413 333 449 q 317 319 317 376 q 325 227 317 264 q 351 169 333 190 q 399 140 369 149 q 471 131 429 131 m 365 724 l 186 850 l 314 911 l 465 724 l 365 724 m 528 724 l 388 889 l 515 949 l 617 724 l 528 724 z "},"Ö":{"ha":940,"x_min":35,"x_max":906,"o":"m 469 -10 q 266 6 349 -10 q 132 60 183 22 q 58 162 81 99 q 35 319 35 225 q 58 478 35 415 q 133 579 82 542 q 268 633 185 617 q 472 649 351 649 q 676 633 593 649 q 809 578 758 617 q 883 477 860 540 q 906 319 906 414 q 882 162 906 225 q 808 60 858 99 q 674 6 757 22 q 469 -10 590 -10 m 471 131 q 542 140 513 131 q 590 169 571 149 q 616 227 608 190 q 624 319 624 264 q 616 413 624 376 q 590 470 608 449 q 542 500 571 492 q 471 508 513 508 q 399 500 429 508 q 351 470 369 492 q 325 413 333 449 q 317 319 317 376 q 325 227 317 264 q 351 169 333 190 q 399 140 369 149 q 471 131 429 131 m 610 721 q 547 732 571 721 q 522 785 522 743 q 549 835 522 826 q 613 844 575 844 q 672 834 650 844 q 694 785 694 824 q 672 732 694 743 q 610 721 649 721 m 333 721 q 270 732 294 721 q 246 786 246 743 q 272 835 246 826 q 336 844 299 844 q 396 834 374 844 q 418 786 418 824 q 394 732 418 743 q 333 721 371 721 z "},"Ȫ":{"ha":940,"x_min":35,"x_max":906,"o":"m 469 -10 q 266 6 349 -10 q 132 60 183 22 q 58 162 81 99 q 35 319 35 225 q 58 478 35 415 q 133 579 82 542 q 268 633 185 617 q 472 649 351 649 q 676 633 593 649 q 809 578 758 617 q 883 477 860 540 q 906 319 906 414 q 882 162 906 225 q 808 60 858 99 q 674 6 757 22 q 469 -10 590 -10 m 471 131 q 542 140 513 131 q 590 169 571 149 q 616 227 608 190 q 624 319 624 264 q 616 413 624 376 q 590 470 608 449 q 542 500 571 492 q 471 508 513 508 q 399 500 429 508 q 351 470 369 492 q 325 413 333 449 q 317 319 317 376 q 325 227 317 264 q 351 169 333 190 q 399 140 369 149 q 471 131 429 131 m 610 721 q 547 732 571 721 q 522 785 522 743 q 549 835 522 826 q 613 844 575 844 q 672 834 650 844 q 694 785 694 824 q 672 732 694 743 q 610 721 649 721 m 333 721 q 270 732 294 721 q 246 786 246 743 q 272 835 246 826 q 336 844 299 844 q 396 834 374 844 q 418 786 418 824 q 394 732 418 743 q 333 721 371 721 m 263 924 l 263 1019 l 678 1019 l 678 924 l 263 924 z "},"Ȱ":{"ha":940,"x_min":35,"x_max":906,"o":"m 469 -10 q 266 6 349 -10 q 132 60 183 22 q 58 162 81 99 q 35 319 35 225 q 58 478 35 415 q 133 579 82 542 q 268 633 185 617 q 472 649 351 649 q 676 633 593 649 q 809 578 758 617 q 883 477 860 540 q 906 319 906 414 q 882 162 906 225 q 808 60 858 99 q 674 6 757 22 q 469 -10 590 -10 m 471 131 q 542 140 513 131 q 590 169 571 149 q 616 227 608 190 q 624 319 624 264 q 616 413 624 376 q 590 470 608 449 q 542 500 571 492 q 471 508 513 508 q 399 500 429 508 q 351 470 369 492 q 325 413 333 449 q 317 319 317 376 q 325 227 317 264 q 351 169 333 190 q 399 140 369 149 q 471 131 429 131 m 472 719 q 410 728 433 719 q 386 776 386 738 q 412 824 386 814 q 475 833 438 833 q 533 823 511 833 q 556 776 556 813 q 533 728 556 738 q 472 719 511 719 m 263 921 l 263 1017 l 678 1017 l 678 921 l 263 921 z "},"Ọ":{"ha":940,"x_min":35,"x_max":906,"o":"m 469 -10 q 266 6 349 -10 q 132 60 183 22 q 58 162 81 99 q 35 319 35 225 q 58 478 35 415 q 133 579 82 542 q 268 633 185 617 q 472 649 351 649 q 676 633 593 649 q 809 578 758 617 q 883 477 860 540 q 906 319 906 414 q 882 162 906 225 q 808 60 858 99 q 674 6 757 22 q 469 -10 590 -10 m 471 131 q 542 140 513 131 q 590 169 571 149 q 616 227 608 190 q 624 319 624 264 q 616 413 624 376 q 590 470 608 449 q 542 500 571 492 q 471 508 513 508 q 399 500 429 508 q 351 470 369 492 q 325 413 333 449 q 317 319 317 376 q 325 227 317 264 q 351 169 333 190 q 399 140 369 149 q 471 131 429 131 m 471 -239 q 409 -235 436 -239 q 367 -214 382 -231 q 351 -161 351 -197 q 388 -97 351 -110 q 476 -83 424 -83 q 558 -97 528 -83 q 589 -161 589 -110 q 574 -214 589 -197 q 533 -235 560 -231 q 471 -239 507 -239 z "},"Ò":{"ha":940,"x_min":35,"x_max":906,"o":"m 469 -10 q 266 6 349 -10 q 132 60 183 22 q 58 162 81 99 q 35 319 35 225 q 58 478 35 415 q 133 579 82 542 q 268 633 185 617 q 472 649 351 649 q 676 633 593 649 q 809 578 758 617 q 883 477 860 540 q 906 319 906 414 q 882 162 906 225 q 808 60 858 99 q 674 6 757 22 q 469 -10 590 -10 m 471 131 q 542 140 513 131 q 590 169 571 149 q 616 227 608 190 q 624 319 624 264 q 616 413 624 376 q 590 470 608 449 q 542 500 571 492 q 471 508 513 508 q 399 500 429 508 q 351 470 369 492 q 325 413 333 449 q 317 319 317 376 q 325 227 317 264 q 351 169 333 190 q 399 140 369 149 q 471 131 429 131 m 471 724 l 296 828 l 406 890 l 571 724 l 471 724 z "},"Ỏ":{"ha":940,"x_min":35,"x_max":906,"o":"m 469 -10 q 266 6 349 -10 q 132 60 183 22 q 58 162 81 99 q 35 319 35 225 q 58 478 35 415 q 133 579 82 542 q 268 633 185 617 q 472 649 351 649 q 676 633 593 649 q 809 578 758 617 q 883 477 860 540 q 906 319 906 414 q 882 162 906 225 q 808 60 858 99 q 674 6 757 22 q 469 -10 590 -10 m 471 131 q 542 140 513 131 q 590 169 571 149 q 616 227 608 190 q 624 319 624 264 q 616 413 624 376 q 590 470 608 449 q 542 500 571 492 q 471 508 513 508 q 399 500 429 508 q 351 470 369 492 q 325 413 333 449 q 317 319 317 376 q 325 227 317 264 q 351 169 333 190 q 399 140 369 149 q 471 131 429 131 m 432 724 l 432 742 q 440 765 432 757 q 456 777 447 774 q 473 787 465 781 q 481 806 481 793 l 481 821 q 476 844 481 836 q 460 851 472 851 q 440 822 442 851 l 358 835 q 389 897 361 876 q 469 918 417 918 q 558 898 528 918 q 588 828 588 878 l 588 822 q 579 785 588 797 q 560 765 571 772 q 540 751 549 758 q 532 733 532 744 l 532 724 l 432 724 z "},"Ơ":{"ha":940,"x_min":35,"x_max":906,"o":"m 469 -10 q 266 6 349 -10 q 132 60 183 22 q 58 162 81 99 q 35 319 35 225 q 58 478 35 415 q 133 579 82 542 q 268 633 185 617 q 472 649 351 649 q 676 633 593 649 q 809 578 758 617 q 883 477 860 540 q 906 319 906 414 q 882 162 906 225 q 808 60 858 99 q 674 6 757 22 q 469 -10 590 -10 m 471 131 q 542 140 513 131 q 590 169 571 149 q 616 227 608 190 q 624 319 624 264 q 616 413 624 376 q 590 470 608 449 q 542 500 571 492 q 471 508 513 508 q 399 500 429 508 q 351 470 369 492 q 325 413 333 449 q 317 319 317 376 q 325 227 317 264 q 351 169 333 190 q 399 140 369 149 q 471 131 429 131 m 650 558 l 649 639 l 678 639 q 711 647 699 639 q 730 670 724 656 q 736 704 736 685 l 736 732 l 858 732 l 858 704 q 806 590 858 624 q 650 558 754 557 z "},"Ớ":{"ha":940,"x_min":35,"x_max":906,"o":"m 469 -10 q 266 6 349 -10 q 132 60 183 22 q 58 162 81 99 q 35 319 35 225 q 58 478 35 415 q 133 579 82 542 q 268 633 185 617 q 472 649 351 649 q 676 633 593 649 q 809 578 758 617 q 883 477 860 540 q 906 319 906 414 q 882 162 906 225 q 808 60 858 99 q 674 6 757 22 q 469 -10 590 -10 m 471 131 q 542 140 513 131 q 590 169 571 149 q 616 227 608 190 q 624 319 624 264 q 616 413 624 376 q 590 470 608 449 q 542 500 571 492 q 471 508 513 508 q 399 500 429 508 q 351 470 369 492 q 325 413 333 449 q 317 319 317 376 q 325 227 317 264 q 351 169 333 190 q 399 140 369 149 q 471 131 429 131 m 650 558 l 649 639 l 678 639 q 711 647 699 639 q 730 670 724 656 q 736 704 736 685 l 736 732 l 858 732 l 858 704 q 806 590 858 624 q 650 558 754 557 m 393 724 l 558 890 l 668 828 l 493 724 l 393 724 z "},"Ợ":{"ha":940,"x_min":35,"x_max":906,"o":"m 469 -10 q 266 6 349 -10 q 132 60 183 22 q 58 162 81 99 q 35 319 35 225 q 58 478 35 415 q 133 579 82 542 q 268 633 185 617 q 472 649 351 649 q 676 633 593 649 q 809 578 758 617 q 883 477 860 540 q 906 319 906 414 q 882 162 906 225 q 808 60 858 99 q 674 6 757 22 q 469 -10 590 -10 m 471 131 q 542 140 513 131 q 590 169 571 149 q 616 227 608 190 q 624 319 624 264 q 616 413 624 376 q 590 470 608 449 q 542 500 571 492 q 471 508 513 508 q 399 500 429 508 q 351 470 369 492 q 325 413 333 449 q 317 319 317 376 q 325 227 317 264 q 351 169 333 190 q 399 140 369 149 q 471 131 429 131 m 650 558 l 649 639 l 678 639 q 711 647 699 639 q 730 670 724 656 q 736 704 736 685 l 736 732 l 858 732 l 858 704 q 806 590 858 624 q 650 558 754 557 m 471 -239 q 409 -235 436 -239 q 367 -214 382 -231 q 351 -161 351 -197 q 388 -97 351 -110 q 476 -83 424 -83 q 558 -97 528 -83 q 589 -161 589 -110 q 574 -214 589 -197 q 533 -235 560 -231 q 471 -239 507 -239 z "},"Ờ":{"ha":940,"x_min":35,"x_max":906,"o":"m 469 -10 q 266 6 349 -10 q 132 60 183 22 q 58 162 81 99 q 35 319 35 225 q 58 478 35 415 q 133 579 82 542 q 268 633 185 617 q 472 649 351 649 q 676 633 593 649 q 809 578 758 617 q 883 477 860 540 q 906 319 906 414 q 882 162 906 225 q 808 60 858 99 q 674 6 757 22 q 469 -10 590 -10 m 471 131 q 542 140 513 131 q 590 169 571 149 q 616 227 608 190 q 624 319 624 264 q 616 413 624 376 q 590 470 608 449 q 542 500 571 492 q 471 508 513 508 q 399 500 429 508 q 351 470 369 492 q 325 413 333 449 q 317 319 317 376 q 325 227 317 264 q 351 169 333 190 q 399 140 369 149 q 471 131 429 131 m 650 558 l 649 639 l 678 639 q 711 647 699 639 q 730 670 724 656 q 736 704 736 685 l 736 732 l 858 732 l 858 704 q 806 590 858 624 q 650 558 754 557 m 471 724 l 296 828 l 406 890 l 571 724 l 471 724 z "},"Ở":{"ha":940,"x_min":35,"x_max":906,"o":"m 469 -10 q 266 6 349 -10 q 132 60 183 22 q 58 162 81 99 q 35 319 35 225 q 58 478 35 415 q 133 579 82 542 q 268 633 185 617 q 472 649 351 649 q 676 633 593 649 q 809 578 758 617 q 883 477 860 540 q 906 319 906 414 q 882 162 906 225 q 808 60 858 99 q 674 6 757 22 q 469 -10 590 -10 m 471 131 q 542 140 513 131 q 590 169 571 149 q 616 227 608 190 q 624 319 624 264 q 616 413 624 376 q 590 470 608 449 q 542 500 571 492 q 471 508 513 508 q 399 500 429 508 q 351 470 369 492 q 325 413 333 449 q 317 319 317 376 q 325 227 317 264 q 351 169 333 190 q 399 140 369 149 q 471 131 429 131 m 650 558 l 649 639 l 678 639 q 711 647 699 639 q 730 670 724 656 q 736 704 736 685 l 736 732 l 858 732 l 858 704 q 806 590 858 624 q 650 558 754 557 m 432 724 l 432 742 q 440 765 432 757 q 456 777 447 774 q 473 787 465 781 q 481 806 481 793 l 481 821 q 476 844 481 836 q 460 851 472 851 q 440 822 442 851 l 358 835 q 389 897 361 876 q 469 918 417 918 q 558 898 528 918 q 588 828 588 878 l 588 822 q 579 785 588 797 q 560 765 571 772 q 540 751 549 758 q 532 733 532 744 l 532 724 l 432 724 z "},"Ỡ":{"ha":940,"x_min":35,"x_max":906,"o":"m 469 -10 q 266 6 349 -10 q 132 60 183 22 q 58 162 81 99 q 35 319 35 225 q 58 478 35 415 q 133 579 82 542 q 268 633 185 617 q 472 649 351 649 q 676 633 593 649 q 809 578 758 617 q 883 477 860 540 q 906 319 906 414 q 882 162 906 225 q 808 60 858 99 q 674 6 757 22 q 469 -10 590 -10 m 471 131 q 542 140 513 131 q 590 169 571 149 q 616 227 608 190 q 624 319 624 264 q 616 413 624 376 q 590 470 608 449 q 542 500 571 492 q 471 508 513 508 q 399 500 429 508 q 351 470 369 492 q 325 413 333 449 q 317 319 317 376 q 325 227 317 264 q 351 169 333 190 q 399 140 369 149 q 471 131 429 131 m 650 558 l 649 639 l 678 639 q 711 647 699 639 q 730 670 724 656 q 736 704 736 685 l 736 732 l 858 732 l 858 704 q 806 590 858 624 q 650 558 754 557 m 556 725 q 499 740 525 725 q 447 771 474 756 q 392 785 421 786 q 349 767 365 785 q 326 742 332 750 l 283 781 q 291 797 283 781 q 312 833 299 813 q 345 869 325 853 q 392 885 365 885 q 447 872 421 888 q 500 840 474 856 q 553 825 526 825 q 601 844 583 825 q 628 874 619 863 l 669 840 q 662 823 669 840 q 640 783 654 806 q 603 743 625 761 q 556 725 582 725 z "},"Ő":{"ha":940,"x_min":35,"x_max":906,"o":"m 469 -10 q 266 6 349 -10 q 132 60 183 22 q 58 162 81 99 q 35 319 35 225 q 58 478 35 415 q 133 579 82 542 q 268 633 185 617 q 472 649 351 649 q 676 633 593 649 q 809 578 758 617 q 883 477 860 540 q 906 319 906 414 q 882 162 906 225 q 808 60 858 99 q 674 6 757 22 q 469 -10 590 -10 m 471 131 q 542 140 513 131 q 590 169 571 149 q 616 227 608 190 q 624 319 624 264 q 616 413 624 376 q 590 470 608 449 q 542 500 571 492 q 471 508 513 508 q 399 500 429 508 q 351 470 369 492 q 325 413 333 449 q 317 319 317 376 q 325 227 317 264 q 351 169 333 190 q 399 140 369 149 q 471 131 429 131 m 525 724 l 586 890 l 724 888 l 628 724 l 525 724 m 326 724 l 388 890 l 525 888 l 429 724 l 326 724 z "},"Ȏ":{"ha":940,"x_min":35,"x_max":906,"o":"m 469 -10 q 266 6 349 -10 q 132 60 183 22 q 58 162 81 99 q 35 319 35 225 q 58 478 35 415 q 133 579 82 542 q 268 633 185 617 q 472 649 351 649 q 676 633 593 649 q 809 578 758 617 q 883 477 860 540 q 906 319 906 414 q 882 162 906 225 q 808 60 858 99 q 674 6 757 22 q 469 -10 590 -10 m 471 131 q 542 140 513 131 q 590 169 571 149 q 616 227 608 190 q 624 319 624 264 q 616 413 624 376 q 590 470 608 449 q 542 500 571 492 q 471 508 513 508 q 399 500 429 508 q 351 470 369 492 q 325 413 333 449 q 317 319 317 376 q 325 227 317 264 q 351 169 333 190 q 399 140 369 149 q 471 131 429 131 m 293 721 l 293 733 q 311 834 293 800 q 368 879 329 868 q 471 890 407 890 q 572 878 533 890 q 628 833 611 867 q 646 733 646 800 l 646 721 l 554 721 l 554 731 q 549 766 554 750 q 525 791 543 782 q 469 800 507 800 q 416 791 433 800 q 392 767 399 782 q 385 732 386 751 l 385 721 l 293 721 z "},"Ō":{"ha":940,"x_min":35,"x_max":906,"o":"m 469 -10 q 266 6 349 -10 q 132 60 183 22 q 58 162 81 99 q 35 319 35 225 q 58 478 35 415 q 133 579 82 542 q 268 633 185 617 q 472 649 351 649 q 676 633 593 649 q 809 578 758 617 q 883 477 860 540 q 906 319 906 414 q 882 162 906 225 q 808 60 858 99 q 674 6 757 22 q 469 -10 590 -10 m 471 131 q 542 140 513 131 q 590 169 571 149 q 616 227 608 190 q 624 319 624 264 q 616 413 624 376 q 590 470 608 449 q 542 500 571 492 q 471 508 513 508 q 399 500 429 508 q 351 470 369 492 q 325 413 333 449 q 317 319 317 376 q 325 227 317 264 q 351 169 333 190 q 399 140 369 149 q 471 131 429 131 m 263 724 l 263 819 l 678 819 l 678 724 l 263 724 z "},"Ω":{"ha":989,"x_min":53,"x_max":936,"o":"m 104 0 q 79 37 92 18 q 53 72 67 56 q 179 60 117 65 q 306 47 242 54 q 234 126 268 83 q 174 217 200 169 q 134 315 149 264 q 119 417 119 365 q 160 553 119 494 q 283 644 200 611 q 494 678 365 678 q 707 644 625 678 q 829 553 789 611 q 869 417 869 494 q 854 315 869 365 q 813 216 839 264 q 751 126 786 168 q 678 47 717 83 q 807 60 743 54 q 936 72 871 65 q 911 37 924 56 q 886 0 899 18 q 717 0 801 0 q 547 0 632 0 q 622 72 596 31 q 658 159 647 113 q 670 249 668 206 q 672 331 672 293 q 662 407 672 367 q 630 481 651 447 q 574 537 608 515 q 494 558 540 558 q 415 537 449 558 q 360 481 381 515 q 328 407 339 447 q 318 331 318 367 q 320 249 318 293 q 333 158 322 204 q 369 71 343 113 q 444 0 396 29 q 275 0 360 0 q 104 0 190 0 z "},"Ǫ":{"ha":940,"x_min":35,"x_max":906,"o":"m 469 -10 q 266 6 349 -10 q 132 60 183 22 q 58 162 81 99 q 35 319 35 225 q 58 478 35 415 q 133 579 82 542 q 268 633 185 617 q 472 649 351 649 q 676 633 593 649 q 809 578 758 617 q 883 477 860 540 q 906 319 906 414 q 882 162 906 225 q 808 60 858 99 q 674 6 757 22 q 469 -10 590 -10 m 471 131 q 542 140 513 131 q 590 169 571 149 q 616 227 608 190 q 624 319 624 264 q 616 413 624 376 q 590 470 608 449 q 542 500 571 492 q 471 508 513 508 q 399 500 429 508 q 351 470 369 492 q 325 413 333 449 q 317 319 317 376 q 325 227 317 264 q 351 169 333 190 q 399 140 369 149 q 471 131 429 131 m 482 -261 q 395 -247 425 -261 q 355 -206 365 -232 q 344 -146 344 -181 q 358 -88 344 -114 q 391 -42 371 -62 q 433 -8 411 -21 q 471 14 454 6 l 582 14 q 549 -3 569 10 q 506 -34 528 -17 q 467 -72 483 -51 q 451 -114 451 -93 q 474 -161 451 -153 q 528 -169 496 -169 q 572 -169 560 -169 q 586 -167 583 -168 q 592 -167 589 -167 q 585 -220 592 -199 q 554 -251 578 -242 q 482 -261 531 -261 z "},"Ø":{"ha":935,"x_min":32,"x_max":903,"o":"m 32 319 q 68 501 32 435 q 167 599 104 568 q 310 640 229 631 q 478 649 390 649 q 643 639 567 649 q 778 597 719 629 q 869 498 836 564 q 903 319 903 432 q 867 138 903 204 q 769 40 831 71 q 626 -1 707 8 q 457 -10 546 -10 q 290 0 368 -10 q 155 42 213 10 q 65 142 97 75 q 32 319 32 208 m 632 318 q 621 418 632 381 q 588 476 610 456 q 537 502 567 496 q 468 508 507 508 q 397 502 428 508 q 345 476 367 496 q 313 418 324 456 q 301 318 301 381 q 313 217 301 256 q 345 159 324 179 q 397 133 367 139 q 468 126 428 126 q 537 133 507 126 q 588 159 567 139 q 621 217 610 179 q 632 318 632 256 m 257 -118 l 582 729 l 656 729 l 328 -118 l 257 -118 z "},"Ǿ":{"ha":935,"x_min":32,"x_max":903,"o":"m 32 319 q 68 501 32 435 q 167 599 104 568 q 310 640 229 631 q 478 649 390 649 q 643 639 567 649 q 778 597 719 629 q 869 498 836 564 q 903 319 903 432 q 867 138 903 204 q 769 40 831 71 q 626 -1 707 8 q 457 -10 546 -10 q 290 0 368 -10 q 155 42 213 10 q 65 142 97 75 q 32 319 32 208 m 632 318 q 621 418 632 381 q 588 476 610 456 q 537 502 567 496 q 468 508 507 508 q 397 502 428 508 q 345 476 367 496 q 313 418 324 456 q 301 318 301 381 q 313 217 301 256 q 345 159 324 179 q 397 133 367 139 q 468 126 428 126 q 537 133 507 126 q 588 159 567 139 q 621 217 610 179 q 632 318 632 256 m 257 -118 l 582 729 l 656 729 l 328 -118 l 257 -118 m 390 724 l 556 890 l 665 828 l 490 724 l 390 724 z "},"Õ":{"ha":940,"x_min":35,"x_max":906,"o":"m 469 -10 q 266 6 349 -10 q 132 60 183 22 q 58 162 81 99 q 35 319 35 225 q 58 478 35 415 q 133 579 82 542 q 268 633 185 617 q 472 649 351 649 q 676 633 593 649 q 809 578 758 617 q 883 477 860 540 q 906 319 906 414 q 882 162 906 225 q 808 60 858 99 q 674 6 757 22 q 469 -10 590 -10 m 471 131 q 542 140 513 131 q 590 169 571 149 q 616 227 608 190 q 624 319 624 264 q 616 413 624 376 q 590 470 608 449 q 542 500 571 492 q 471 508 513 508 q 399 500 429 508 q 351 470 369 492 q 325 413 333 449 q 317 319 317 376 q 325 227 317 264 q 351 169 333 190 q 399 140 369 149 q 471 131 429 131 m 556 725 q 499 740 525 725 q 447 771 474 756 q 392 785 421 786 q 349 767 365 785 q 326 742 332 750 l 283 781 q 291 797 283 781 q 312 833 299 813 q 345 869 325 853 q 392 885 365 885 q 447 872 421 888 q 500 840 474 856 q 553 825 526 825 q 601 844 583 825 q 628 874 619 863 l 669 840 q 662 823 669 840 q 640 783 654 806 q 603 743 625 761 q 556 725 582 725 z "},"Ȭ":{"ha":940,"x_min":35,"x_max":906,"o":"m 469 -10 q 266 6 349 -10 q 132 60 183 22 q 58 162 81 99 q 35 319 35 225 q 58 478 35 415 q 133 579 82 542 q 268 633 185 617 q 472 649 351 649 q 676 633 593 649 q 809 578 758 617 q 883 477 860 540 q 906 319 906 414 q 882 162 906 225 q 808 60 858 99 q 674 6 757 22 q 469 -10 590 -10 m 471 131 q 542 140 513 131 q 590 169 571 149 q 616 227 608 190 q 624 319 624 264 q 616 413 624 376 q 590 470 608 449 q 542 500 571 492 q 471 508 513 508 q 399 500 429 508 q 351 470 369 492 q 325 413 333 449 q 317 319 317 376 q 325 227 317 264 q 351 169 333 190 q 399 140 369 149 q 471 131 429 131 m 556 725 q 499 740 525 725 q 447 771 474 756 q 392 785 421 786 q 349 767 365 785 q 326 742 332 750 l 283 781 q 291 797 283 781 q 312 833 299 813 q 345 869 325 853 q 392 885 365 885 q 447 872 421 888 q 500 840 474 856 q 553 825 526 825 q 601 844 583 825 q 628 874 619 863 l 669 840 q 662 823 669 840 q 640 783 654 806 q 603 743 625 761 q 556 725 582 725 m 263 936 l 263 1032 l 678 1032 l 678 936 l 263 936 z "},"P":{"ha":911,"x_min":61,"x_max":876,"o":"m 63 0 q 62 265 63 133 q 61 531 61 397 q 79 613 61 586 q 160 639 97 639 q 319 639 238 639 q 481 639 400 639 q 639 639 561 639 q 758 619 704 638 q 844 556 811 601 q 876 428 876 510 q 848 287 876 339 q 770 213 819 235 q 654 190 721 190 q 472 192 567 192 q 290 193 378 192 q 290 283 290 254 q 298 319 290 311 q 325 328 306 328 q 392 328 357 328 q 465 328 428 328 q 536 328 501 328 q 571 338 557 328 q 592 368 585 347 q 600 419 600 389 q 587 478 600 460 q 542 497 574 497 q 478 499 508 499 q 419 499 449 499 q 360 499 390 499 q 342 491 350 499 q 335 476 335 483 q 335 238 335 357 q 335 0 335 119 l 63 0 z "},"Q":{"ha":943,"x_min":35,"x_max":906,"o":"m 469 -10 q 266 6 349 -10 q 132 60 183 22 q 58 162 81 99 q 35 319 35 225 q 58 478 35 415 q 133 579 82 542 q 268 633 185 617 q 472 649 351 649 q 676 633 593 649 q 809 578 758 617 q 883 477 860 540 q 906 319 906 414 q 882 162 906 225 q 808 60 858 99 q 674 6 757 22 q 469 -10 590 -10 m 471 131 q 542 140 513 131 q 590 169 571 149 q 616 227 608 190 q 624 319 624 264 q 616 413 624 376 q 590 470 608 449 q 542 500 571 492 q 471 508 513 508 q 399 500 429 508 q 351 470 369 492 q 325 413 333 449 q 317 319 317 376 q 325 227 317 264 q 351 169 333 190 q 399 140 369 149 q 471 131 429 131 m 792 -126 q 728 -111 761 -126 q 658 -61 694 -96 q 620 -19 642 -44 q 574 35 599 6 q 524 94 550 64 q 471 150 497 124 q 417 197 444 176 q 444 232 425 221 q 482 243 463 243 q 531 234 508 243 q 585 199 553 225 q 650 143 619 171 q 708 88 681 115 q 765 35 736 61 q 828 -12 794 10 q 901 -54 861 -35 q 856 -110 883 -93 q 792 -126 828 -126 z "},"R":{"ha":938,"x_min":61,"x_max":901,"o":"m 476 197 q 453 197 476 197 q 398 197 431 197 q 335 196 365 196 l 335 0 l 61 0 l 61 549 q 79 614 61 589 q 158 639 97 639 q 224 640 179 639 q 328 640 269 640 q 449 641 386 640 q 569 641 513 642 q 669 640 626 640 q 729 638 711 639 q 844 593 806 631 q 883 468 883 556 q 874 350 883 385 q 840 297 864 315 q 809 283 829 288 q 765 278 789 278 l 765 271 q 790 271 776 271 q 813 269 803 271 q 876 231 865 260 q 888 168 888 201 l 888 57 q 894 15 888 28 q 901 0 900 1 l 694 0 q 630 13 653 0 q 607 65 607 25 l 607 135 q 588 188 607 178 q 522 197 569 197 l 476 197 m 335 325 q 375 324 347 325 q 435 324 403 324 q 496 324 468 324 q 535 324 524 324 q 585 343 563 324 q 607 414 607 363 q 594 471 607 450 q 554 496 582 492 q 508 499 536 499 q 449 499 479 499 q 392 498 418 499 q 354 497 367 497 q 344 494 353 497 q 335 476 335 490 l 335 325 z "},"Ŕ":{"ha":938,"x_min":61,"x_max":901,"o":"m 476 197 q 453 197 476 197 q 398 197 431 197 q 335 196 365 196 l 335 0 l 61 0 l 61 549 q 79 614 61 589 q 158 639 97 639 q 224 640 179 639 q 328 640 269 640 q 449 641 386 640 q 569 641 513 642 q 669 640 626 640 q 729 638 711 639 q 844 593 806 631 q 883 468 883 556 q 874 350 883 385 q 840 297 864 315 q 809 283 829 288 q 765 278 789 278 l 765 271 q 790 271 776 271 q 813 269 803 271 q 876 231 865 260 q 888 168 888 201 l 888 57 q 894 15 888 28 q 901 0 900 1 l 694 0 q 630 13 653 0 q 607 65 607 25 l 607 135 q 588 188 607 178 q 522 197 569 197 l 476 197 m 335 325 q 375 324 347 325 q 435 324 403 324 q 496 324 468 324 q 535 324 524 324 q 585 343 563 324 q 607 414 607 363 q 594 471 607 450 q 554 496 582 492 q 508 499 536 499 q 449 499 479 499 q 392 498 418 499 q 354 497 367 497 q 344 494 353 497 q 335 476 335 490 l 335 325 m 403 724 l 568 890 l 678 828 l 503 724 l 403 724 z "},"Ř":{"ha":938,"x_min":61,"x_max":901,"o":"m 292 890 l 390 890 l 479 821 l 564 890 l 669 890 l 513 724 l 447 724 l 292 890 m 476 197 q 453 197 476 197 q 398 197 431 197 q 335 196 365 196 l 335 0 l 61 0 l 61 549 q 79 614 61 589 q 158 639 97 639 q 224 640 179 639 q 328 640 269 640 q 449 641 386 640 q 569 641 513 642 q 669 640 626 640 q 729 638 711 639 q 844 593 806 631 q 883 468 883 556 q 874 350 883 385 q 840 297 864 315 q 809 283 829 288 q 765 278 789 278 l 765 271 q 790 271 776 271 q 813 269 803 271 q 876 231 865 260 q 888 168 888 201 l 888 57 q 894 15 888 28 q 901 0 900 1 l 694 0 q 630 13 653 0 q 607 65 607 25 l 607 135 q 588 188 607 178 q 522 197 569 197 l 476 197 m 335 325 q 375 324 347 325 q 435 324 403 324 q 496 324 468 324 q 535 324 524 324 q 585 343 563 324 q 607 414 607 363 q 594 471 607 450 q 554 496 582 492 q 508 499 536 499 q 449 499 479 499 q 392 498 418 499 q 354 497 367 497 q 344 494 353 497 q 335 476 335 490 l 335 325 z "},"Ŗ":{"ha":938,"x_min":61,"x_max":901,"o":"m 476 197 q 453 197 476 197 q 398 197 431 197 q 335 196 365 196 l 335 0 l 61 0 l 61 549 q 79 614 61 589 q 158 639 97 639 q 224 640 179 639 q 328 640 269 640 q 449 641 386 640 q 569 641 513 642 q 669 640 626 640 q 729 638 711 639 q 844 593 806 631 q 883 468 883 556 q 874 350 883 385 q 840 297 864 315 q 809 283 829 288 q 765 278 789 278 l 765 271 q 790 271 776 271 q 813 269 803 271 q 876 231 865 260 q 888 168 888 201 l 888 57 q 894 15 888 28 q 901 0 900 1 l 694 0 q 630 13 653 0 q 607 65 607 25 l 607 135 q 588 188 607 178 q 522 197 569 197 l 476 197 m 335 325 q 375 324 347 325 q 435 324 403 324 q 496 324 468 324 q 535 324 524 324 q 585 343 563 324 q 607 414 607 363 q 594 471 607 450 q 554 496 582 492 q 508 499 536 499 q 449 499 479 499 q 392 498 418 499 q 354 497 367 497 q 344 494 353 497 q 335 476 335 490 l 335 325 m 376 -382 q 406 -329 393 -351 q 429 -286 418 -307 q 456 -237 440 -265 q 444 -237 450 -237 q 431 -235 438 -236 q 394 -217 410 -231 q 378 -162 378 -203 q 408 -99 378 -112 q 490 -86 438 -86 q 531 -91 513 -86 q 563 -112 550 -96 q 576 -162 576 -129 q 563 -237 576 -199 q 527 -314 549 -276 q 481 -382 506 -351 l 376 -382 z "},"Ȑ":{"ha":938,"x_min":61,"x_max":901,"o":"m 476 197 q 453 197 476 197 q 398 197 431 197 q 335 196 365 196 l 335 0 l 61 0 l 61 549 q 79 614 61 589 q 158 639 97 639 q 224 640 179 639 q 328 640 269 640 q 449 641 386 640 q 569 641 513 642 q 669 640 626 640 q 729 638 711 639 q 844 593 806 631 q 883 468 883 556 q 874 350 883 385 q 840 297 864 315 q 809 283 829 288 q 765 278 789 278 l 765 271 q 790 271 776 271 q 813 269 803 271 q 876 231 865 260 q 888 168 888 201 l 888 57 q 894 15 888 28 q 901 0 900 1 l 694 0 q 630 13 653 0 q 607 65 607 25 l 607 135 q 588 188 607 178 q 522 197 569 197 l 476 197 m 335 325 q 375 324 347 325 q 435 324 403 324 q 496 324 468 324 q 535 324 524 324 q 585 343 563 324 q 607 414 607 363 q 594 471 607 450 q 554 496 582 492 q 508 499 536 499 q 449 499 479 499 q 392 498 418 499 q 354 497 367 497 q 344 494 353 497 q 335 476 335 490 l 335 325 m 375 724 l 196 850 l 324 911 l 475 724 l 375 724 m 538 724 l 397 889 l 525 949 l 626 724 l 538 724 z "},"Ȓ":{"ha":938,"x_min":61,"x_max":901,"o":"m 476 197 q 453 197 476 197 q 398 197 431 197 q 335 196 365 196 l 335 0 l 61 0 l 61 549 q 79 614 61 589 q 158 639 97 639 q 224 640 179 639 q 328 640 269 640 q 449 641 386 640 q 569 641 513 642 q 669 640 626 640 q 729 638 711 639 q 844 593 806 631 q 883 468 883 556 q 874 350 883 385 q 840 297 864 315 q 809 283 829 288 q 765 278 789 278 l 765 271 q 790 271 776 271 q 813 269 803 271 q 876 231 865 260 q 888 168 888 201 l 888 57 q 894 15 888 28 q 901 0 900 1 l 694 0 q 630 13 653 0 q 607 65 607 25 l 607 135 q 588 188 607 178 q 522 197 569 197 l 476 197 m 335 325 q 375 324 347 325 q 435 324 403 324 q 496 324 468 324 q 535 324 524 324 q 585 343 563 324 q 607 414 607 363 q 594 471 607 450 q 554 496 582 492 q 508 499 536 499 q 449 499 479 499 q 392 498 418 499 q 354 497 367 497 q 344 494 353 497 q 335 476 335 490 l 335 325 m 304 721 l 304 733 q 322 834 304 800 q 379 879 340 868 q 482 890 418 890 q 583 878 544 890 q 640 833 622 867 q 657 733 657 800 l 657 721 l 565 721 l 565 731 q 560 766 565 750 q 536 791 554 782 q 481 800 518 800 q 427 791 444 800 q 403 767 410 782 q 396 732 397 751 l 396 721 l 304 721 z "},"S":{"ha":888,"x_min":47,"x_max":840,"o":"m 47 172 q 141 151 85 157 q 258 142 197 144 q 368 140 319 140 q 415 141 386 140 q 460 142 443 142 q 512 149 492 143 q 542 167 532 156 q 551 200 551 179 q 535 236 551 226 q 483 246 519 246 q 451 246 469 246 q 400 246 432 246 q 315 246 368 246 q 221 250 267 246 q 138 271 175 254 q 78 324 100 288 q 56 425 56 360 q 81 545 56 501 q 154 610 107 589 q 269 638 201 632 q 419 644 336 644 q 526 644 469 644 q 633 640 583 643 q 708 635 683 638 q 796 605 765 632 q 826 539 826 578 q 826 518 826 533 q 826 488 826 503 q 826 472 826 474 q 788 485 818 481 q 716 493 757 490 q 635 497 675 496 q 565 497 596 497 l 424 497 q 372 492 390 497 q 345 475 353 486 q 338 446 338 464 q 342 422 338 432 q 360 407 347 413 q 397 401 374 401 q 548 401 493 401 q 613 401 603 401 q 733 390 682 401 q 813 338 785 378 q 840 215 840 299 q 811 92 840 139 q 729 24 782 46 q 606 -1 676 3 q 458 -6 528 -6 q 308 -6 388 -7 q 196 -1 244 -4 q 114 13 147 3 q 64 40 81 22 q 47 83 47 57 l 47 172 z "},"Ś":{"ha":888,"x_min":47,"x_max":840,"o":"m 47 172 q 141 151 85 157 q 258 142 197 144 q 368 140 319 140 q 415 141 386 140 q 460 142 443 142 q 512 149 492 143 q 542 167 532 156 q 551 200 551 179 q 535 236 551 226 q 483 246 519 246 q 451 246 469 246 q 400 246 432 246 q 315 246 368 246 q 221 250 267 246 q 138 271 175 254 q 78 324 100 288 q 56 425 56 360 q 81 545 56 501 q 154 610 107 589 q 269 638 201 632 q 419 644 336 644 q 526 644 469 644 q 633 640 583 643 q 708 635 683 638 q 796 605 765 632 q 826 539 826 578 q 826 518 826 533 q 826 488 826 503 q 826 472 826 474 q 788 485 818 481 q 716 493 757 490 q 635 497 675 496 q 565 497 596 497 l 424 497 q 372 492 390 497 q 345 475 353 486 q 338 446 338 464 q 342 422 338 432 q 360 407 347 413 q 397 401 374 401 q 548 401 493 401 q 613 401 603 401 q 733 390 682 401 q 813 338 785 378 q 840 215 840 299 q 811 92 840 139 q 729 24 782 46 q 606 -1 676 3 q 458 -6 528 -6 q 308 -6 388 -7 q 196 -1 244 -4 q 114 13 147 3 q 64 40 81 22 q 47 83 47 57 l 47 172 m 369 724 l 535 890 l 644 828 l 469 724 l 369 724 z "},"Š":{"ha":888,"x_min":47,"x_max":840,"o":"m 257 890 l 356 890 l 444 821 l 531 890 l 635 890 l 478 724 l 413 724 l 257 890 m 47 172 q 141 151 85 157 q 258 142 197 144 q 368 140 319 140 q 415 141 386 140 q 460 142 443 142 q 512 149 492 143 q 542 167 532 156 q 551 200 551 179 q 535 236 551 226 q 483 246 519 246 q 451 246 469 246 q 400 246 432 246 q 315 246 368 246 q 221 250 267 246 q 138 271 175 254 q 78 324 100 288 q 56 425 56 360 q 81 545 56 501 q 154 610 107 589 q 269 638 201 632 q 419 644 336 644 q 526 644 469 644 q 633 640 583 643 q 708 635 683 638 q 796 605 765 632 q 826 539 826 578 q 826 518 826 533 q 826 488 826 503 q 826 472 826 474 q 788 485 818 481 q 716 493 757 490 q 635 497 675 496 q 565 497 596 497 l 424 497 q 372 492 390 497 q 345 475 353 486 q 338 446 338 464 q 342 422 338 432 q 360 407 347 413 q 397 401 374 401 q 548 401 493 401 q 613 401 603 401 q 733 390 682 401 q 813 338 785 378 q 840 215 840 299 q 811 92 840 139 q 729 24 782 46 q 606 -1 676 3 q 458 -6 528 -6 q 308 -6 388 -7 q 196 -1 244 -4 q 114 13 147 3 q 64 40 81 22 q 47 83 47 57 l 47 172 z "},"Ş":{"ha":888,"x_min":47,"x_max":840,"o":"m 47 172 q 141 151 85 157 q 258 142 197 144 q 368 140 319 140 q 415 141 386 140 q 460 142 443 142 q 512 149 492 143 q 542 167 532 156 q 551 200 551 179 q 535 236 551 226 q 483 246 519 246 q 451 246 469 246 q 400 246 432 246 q 315 246 368 246 q 221 250 267 246 q 138 271 175 254 q 78 324 100 288 q 56 425 56 360 q 81 545 56 501 q 154 610 107 589 q 269 638 201 632 q 419 644 336 644 q 526 644 469 644 q 633 640 583 643 q 708 635 683 638 q 796 605 765 632 q 826 539 826 578 q 826 518 826 533 q 826 488 826 503 q 826 472 826 474 q 788 485 818 481 q 716 493 757 490 q 635 497 675 496 q 565 497 596 497 l 424 497 q 372 492 390 497 q 345 475 353 486 q 338 446 338 464 q 342 422 338 432 q 360 407 347 413 q 397 401 374 401 q 548 401 493 401 q 613 401 603 401 q 733 390 682 401 q 813 338 785 378 q 840 215 840 299 q 811 92 840 139 q 729 24 782 46 q 606 -1 676 3 q 458 -6 528 -6 q 308 -6 388 -7 q 196 -1 244 -4 q 114 13 147 3 q 64 40 81 22 q 47 83 47 57 l 47 172 m 396 -246 q 330 -235 343 -246 q 317 -190 317 -225 q 334 -190 319 -190 q 381 -190 349 -190 q 431 -186 417 -190 q 444 -165 444 -182 q 431 -143 444 -147 q 381 -139 418 -139 l 318 -139 q 317 -130 318 -139 q 321 -105 315 -121 q 346 -67 326 -89 q 368 -45 357 -56 q 391 -26 379 -35 q 415 -9 403 -17 q 440 1 428 -1 l 513 1 l 438 -87 q 526 -91 497 -86 q 565 -113 556 -96 q 574 -168 574 -131 q 561 -222 574 -206 q 510 -242 549 -239 q 396 -246 472 -246 z "},"Ə":{"ha":883,"x_min":68,"x_max":839,"o":"m 449 644 q 642 632 567 644 q 761 586 718 619 q 822 492 804 553 q 839 336 839 432 q 802 135 839 210 q 673 28 765 60 q 415 -4 581 -4 q 211 21 288 -4 q 101 99 135 46 q 68 235 68 153 q 76 321 68 292 q 108 360 83 350 q 183 369 132 369 l 617 369 q 599 304 617 331 q 535 278 582 278 l 354 278 q 334 272 343 278 q 325 249 325 265 q 346 167 325 196 q 428 139 367 139 q 506 155 479 139 q 542 213 532 171 q 551 331 551 254 q 538 430 551 397 q 490 473 525 463 q 385 483 456 483 q 327 483 364 483 q 249 481 290 482 q 168 478 207 481 q 101 475 129 476 q 68 472 74 474 l 68 507 q 75 561 68 532 q 100 604 82 590 q 210 638 126 631 q 449 644 294 644 z "},"Ŝ":{"ha":888,"x_min":47,"x_max":840,"o":"m 47 172 q 141 151 85 157 q 258 142 197 144 q 368 140 319 140 q 415 141 386 140 q 460 142 443 142 q 512 149 492 143 q 542 167 532 156 q 551 200 551 179 q 535 236 551 226 q 483 246 519 246 q 451 246 469 246 q 400 246 432 246 q 315 246 368 246 q 221 250 267 246 q 138 271 175 254 q 78 324 100 288 q 56 425 56 360 q 81 545 56 501 q 154 610 107 589 q 269 638 201 632 q 419 644 336 644 q 526 644 469 644 q 633 640 583 643 q 708 635 683 638 q 796 605 765 632 q 826 539 826 578 q 826 518 826 533 q 826 488 826 503 q 826 472 826 474 q 788 485 818 481 q 716 493 757 490 q 635 497 675 496 q 565 497 596 497 l 424 497 q 372 492 390 497 q 345 475 353 486 q 338 446 338 464 q 342 422 338 432 q 360 407 347 413 q 397 401 374 401 q 548 401 493 401 q 613 401 603 401 q 733 390 682 401 q 813 338 785 378 q 840 215 840 299 q 811 92 840 139 q 729 24 782 46 q 606 -1 676 3 q 458 -6 528 -6 q 308 -6 388 -7 q 196 -1 244 -4 q 114 13 147 3 q 64 40 81 22 q 47 83 47 57 l 47 172 m 257 724 l 413 890 l 478 890 l 635 724 l 531 724 l 444 793 l 356 724 l 257 724 z "},"Ș":{"ha":888,"x_min":47,"x_max":840,"o":"m 47 172 q 141 151 85 157 q 258 142 197 144 q 368 140 319 140 q 415 141 386 140 q 460 142 443 142 q 512 149 492 143 q 542 167 532 156 q 551 200 551 179 q 535 236 551 226 q 483 246 519 246 q 451 246 469 246 q 400 246 432 246 q 315 246 368 246 q 221 250 267 246 q 138 271 175 254 q 78 324 100 288 q 56 425 56 360 q 81 545 56 501 q 154 610 107 589 q 269 638 201 632 q 419 644 336 644 q 526 644 469 644 q 633 640 583 643 q 708 635 683 638 q 796 605 765 632 q 826 539 826 578 q 826 518 826 533 q 826 488 826 503 q 826 472 826 474 q 788 485 818 481 q 716 493 757 490 q 635 497 675 496 q 565 497 596 497 l 424 497 q 372 492 390 497 q 345 475 353 486 q 338 446 338 464 q 342 422 338 432 q 360 407 347 413 q 397 401 374 401 q 548 401 493 401 q 613 401 603 401 q 733 390 682 401 q 813 338 785 378 q 840 215 840 299 q 811 92 840 139 q 729 24 782 46 q 606 -1 676 3 q 458 -6 528 -6 q 308 -6 388 -7 q 196 -1 244 -4 q 114 13 147 3 q 64 40 81 22 q 47 83 47 57 l 47 172 m 339 -382 q 368 -329 356 -351 q 392 -286 381 -307 q 418 -237 403 -265 q 406 -237 413 -237 q 393 -235 400 -236 q 356 -217 372 -231 q 340 -162 340 -203 q 370 -99 340 -112 q 453 -86 400 -86 q 494 -91 475 -86 q 526 -112 513 -96 q 539 -162 539 -129 q 525 -237 539 -199 q 490 -314 511 -276 q 443 -382 468 -351 l 339 -382 z "},"T":{"ha":863,"x_min":24,"x_max":840,"o":"m 24 639 l 840 639 l 840 496 l 569 496 l 569 86 q 553 17 569 33 q 479 0 538 0 l 296 0 l 296 496 l 24 496 l 24 639 z "},"Ŧ":{"ha":861,"x_min":22,"x_max":839,"o":"m 132 378 l 294 378 l 294 496 l 22 496 l 22 639 l 839 639 l 839 496 l 568 496 l 568 378 l 738 378 l 738 306 l 568 306 l 568 86 q 552 17 568 33 q 479 0 536 0 l 294 0 l 294 306 l 132 306 l 132 378 z "},"Ť":{"ha":863,"x_min":24,"x_max":840,"o":"m 243 890 l 340 890 l 431 821 l 515 890 l 621 890 l 463 724 l 397 724 l 243 890 m 24 639 l 840 639 l 840 496 l 569 496 l 569 86 q 553 17 569 33 q 479 0 538 0 l 296 0 l 296 496 l 24 496 l 24 639 z "},"Ţ":{"ha":863,"x_min":24,"x_max":840,"o":"m 24 639 l 840 639 l 840 496 l 569 496 l 569 86 q 553 17 569 33 q 479 0 538 0 l 296 0 l 296 496 l 24 496 l 24 639 m 383 -246 q 317 -235 331 -246 q 304 -190 304 -225 q 322 -190 307 -190 q 368 -190 336 -190 q 418 -186 404 -190 q 432 -165 432 -182 q 419 -143 432 -147 q 368 -139 406 -139 l 306 -139 q 304 -130 306 -139 q 308 -105 303 -121 q 333 -67 314 -89 q 356 -45 344 -56 q 378 -26 367 -35 q 403 -9 390 -17 q 428 1 415 -1 l 500 1 l 425 -87 q 514 -91 485 -86 q 552 -113 543 -96 q 561 -168 561 -131 q 549 -222 561 -206 q 498 -242 536 -239 q 383 -246 460 -246 z "},"Ț":{"ha":863,"x_min":24,"x_max":840,"o":"m 24 639 l 840 639 l 840 496 l 569 496 l 569 86 q 553 17 569 33 q 479 0 538 0 l 296 0 l 296 496 l 24 496 l 24 639 m 326 -382 q 356 -329 343 -351 q 379 -286 368 -307 q 406 -237 390 -265 q 394 -237 400 -237 q 381 -235 388 -236 q 344 -217 360 -231 q 328 -162 328 -203 q 358 -99 328 -112 q 440 -86 388 -86 q 481 -91 463 -86 q 513 -112 500 -96 q 526 -162 526 -129 q 513 -237 526 -199 q 477 -314 499 -276 q 431 -382 456 -351 l 326 -382 z "},"Þ":{"ha":903,"x_min":40,"x_max":815,"o":"m 40 610 q 58 676 40 663 q 128 689 75 689 l 261 689 l 261 578 l 582 578 q 733 555 683 578 q 799 486 783 532 q 815 368 815 440 q 794 253 815 301 q 718 179 772 204 q 563 154 664 154 l 263 154 l 263 0 l 40 0 l 40 610 m 263 443 l 263 289 l 551 289 q 575 295 565 289 q 590 319 585 301 q 594 368 594 336 q 589 417 594 401 q 573 438 583 433 q 547 443 563 443 l 263 443 z "},"U":{"ha":924,"x_min":54,"x_max":869,"o":"m 869 332 q 859 179 869 243 q 810 75 849 115 q 688 16 771 35 q 458 -3 604 -3 q 262 9 339 -3 q 142 46 185 21 q 81 109 100 71 q 58 199 61 147 q 54 315 54 250 l 54 519 q 57 595 54 569 q 81 630 60 621 q 154 639 103 639 l 328 639 l 328 271 q 341 188 328 214 q 384 153 354 161 q 460 144 414 144 q 565 172 535 144 q 596 269 596 199 l 596 639 l 767 639 q 841 630 819 639 q 866 595 863 621 q 869 519 869 569 l 869 332 z "},"Ú":{"ha":924,"x_min":54,"x_max":869,"o":"m 869 332 q 859 179 869 243 q 810 75 849 115 q 688 16 771 35 q 458 -3 604 -3 q 262 9 339 -3 q 142 46 185 21 q 81 109 100 71 q 58 199 61 147 q 54 315 54 250 l 54 519 q 57 595 54 569 q 81 630 60 621 q 154 639 103 639 l 328 639 l 328 271 q 341 188 328 214 q 384 153 354 161 q 460 144 414 144 q 565 172 535 144 q 596 269 596 199 l 596 639 l 767 639 q 841 630 819 639 q 866 595 863 621 q 869 519 869 569 l 869 332 m 383 724 l 549 890 l 658 828 l 483 724 l 383 724 z "},"Ŭ":{"ha":924,"x_min":54,"x_max":869,"o":"m 869 332 q 859 179 869 243 q 810 75 849 115 q 688 16 771 35 q 458 -3 604 -3 q 262 9 339 -3 q 142 46 185 21 q 81 109 100 71 q 58 199 61 147 q 54 315 54 250 l 54 519 q 57 595 54 569 q 81 630 60 621 q 154 639 103 639 l 328 639 l 328 271 q 341 188 328 214 q 384 153 354 161 q 460 144 414 144 q 565 172 535 144 q 596 269 596 199 l 596 639 l 767 639 q 841 630 819 639 q 866 595 863 621 q 869 519 869 569 l 869 332 m 463 721 q 360 732 399 721 q 303 778 321 743 q 285 878 285 813 l 285 890 l 376 890 l 376 881 q 383 845 376 861 q 407 820 389 829 q 461 811 425 811 q 517 820 499 811 q 540 845 535 829 q 546 881 546 861 l 546 890 l 638 890 l 638 878 q 620 778 638 813 q 564 732 603 743 q 463 721 525 721 z "},"Û":{"ha":924,"x_min":54,"x_max":869,"o":"m 869 332 q 859 179 869 243 q 810 75 849 115 q 688 16 771 35 q 458 -3 604 -3 q 262 9 339 -3 q 142 46 185 21 q 81 109 100 71 q 58 199 61 147 q 54 315 54 250 l 54 519 q 57 595 54 569 q 81 630 60 621 q 154 639 103 639 l 328 639 l 328 271 q 341 188 328 214 q 384 153 354 161 q 460 144 414 144 q 565 172 535 144 q 596 269 596 199 l 596 639 l 767 639 q 841 630 819 639 q 866 595 863 621 q 869 519 869 569 l 869 332 m 272 724 l 428 890 l 493 890 l 650 724 l 546 724 l 460 793 l 371 724 l 272 724 z "},"Ȕ":{"ha":924,"x_min":54,"x_max":869,"o":"m 869 332 q 859 179 869 243 q 810 75 849 115 q 688 16 771 35 q 458 -3 604 -3 q 262 9 339 -3 q 142 46 185 21 q 81 109 100 71 q 58 199 61 147 q 54 315 54 250 l 54 519 q 57 595 54 569 q 81 630 60 621 q 154 639 103 639 l 328 639 l 328 271 q 341 188 328 214 q 384 153 354 161 q 460 144 414 144 q 565 172 535 144 q 596 269 596 199 l 596 639 l 767 639 q 841 630 819 639 q 866 595 863 621 q 869 519 869 569 l 869 332 m 357 724 l 178 850 l 306 911 l 457 724 l 357 724 m 519 724 l 379 889 l 507 949 l 608 724 l 519 724 z "},"Ü":{"ha":924,"x_min":54,"x_max":869,"o":"m 869 332 q 859 179 869 243 q 810 75 849 115 q 688 16 771 35 q 458 -3 604 -3 q 262 9 339 -3 q 142 46 185 21 q 81 109 100 71 q 58 199 61 147 q 54 315 54 250 l 54 519 q 57 595 54 569 q 81 630 60 621 q 154 639 103 639 l 328 639 l 328 271 q 341 188 328 214 q 384 153 354 161 q 460 144 414 144 q 565 172 535 144 q 596 269 596 199 l 596 639 l 767 639 q 841 630 819 639 q 866 595 863 621 q 869 519 869 569 l 869 332 m 600 721 q 537 732 561 721 q 513 785 513 743 q 539 835 513 826 q 603 844 565 844 q 663 834 640 844 q 685 785 685 824 q 662 732 685 743 q 600 721 639 721 m 324 721 q 260 732 285 721 q 236 786 236 743 q 263 835 236 826 q 326 844 289 844 q 386 834 364 844 q 408 786 408 824 q 385 732 408 743 q 324 721 361 721 z "},"Ụ":{"ha":924,"x_min":54,"x_max":869,"o":"m 869 332 q 859 179 869 243 q 810 75 849 115 q 688 16 771 35 q 458 -3 604 -3 q 262 9 339 -3 q 142 46 185 21 q 81 109 100 71 q 58 199 61 147 q 54 315 54 250 l 54 519 q 57 595 54 569 q 81 630 60 621 q 154 639 103 639 l 328 639 l 328 271 q 341 188 328 214 q 384 153 354 161 q 460 144 414 144 q 565 172 535 144 q 596 269 596 199 l 596 639 l 767 639 q 841 630 819 639 q 866 595 863 621 q 869 519 869 569 l 869 332 m 461 -239 q 399 -235 426 -239 q 357 -214 372 -231 q 342 -161 342 -197 q 378 -97 342 -110 q 467 -83 414 -83 q 549 -97 518 -83 q 579 -161 579 -110 q 565 -214 579 -197 q 524 -235 550 -231 q 461 -239 497 -239 z "},"Ù":{"ha":924,"x_min":54,"x_max":869,"o":"m 869 332 q 859 179 869 243 q 810 75 849 115 q 688 16 771 35 q 458 -3 604 -3 q 262 9 339 -3 q 142 46 185 21 q 81 109 100 71 q 58 199 61 147 q 54 315 54 250 l 54 519 q 57 595 54 569 q 81 630 60 621 q 154 639 103 639 l 328 639 l 328 271 q 341 188 328 214 q 384 153 354 161 q 460 144 414 144 q 565 172 535 144 q 596 269 596 199 l 596 639 l 767 639 q 841 630 819 639 q 866 595 863 621 q 869 519 869 569 l 869 332 m 461 724 l 286 828 l 396 890 l 561 724 l 461 724 z "},"Ủ":{"ha":924,"x_min":54,"x_max":869,"o":"m 869 332 q 859 179 869 243 q 810 75 849 115 q 688 16 771 35 q 458 -3 604 -3 q 262 9 339 -3 q 142 46 185 21 q 81 109 100 71 q 58 199 61 147 q 54 315 54 250 l 54 519 q 57 595 54 569 q 81 630 60 621 q 154 639 103 639 l 328 639 l 328 271 q 341 188 328 214 q 384 153 354 161 q 460 144 414 144 q 565 172 535 144 q 596 269 596 199 l 596 639 l 767 639 q 841 630 819 639 q 866 595 863 621 q 869 519 869 569 l 869 332 m 422 724 l 422 742 q 430 765 422 757 q 447 777 438 774 q 463 787 456 781 q 471 806 471 793 l 471 821 q 467 844 471 836 q 450 851 463 851 q 431 822 432 851 l 349 835 q 379 897 351 876 q 460 918 407 918 q 548 898 518 918 q 578 828 578 878 l 578 822 q 569 785 578 797 q 550 765 561 772 q 531 751 539 758 q 522 733 522 744 l 522 724 l 422 724 z "},"Ư":{"ha":924,"x_min":54,"x_max":946,"o":"m 869 332 q 859 179 869 243 q 810 75 849 115 q 688 16 771 35 q 458 -3 604 -3 q 262 9 339 -3 q 142 46 185 21 q 81 109 100 71 q 58 199 61 147 q 54 315 54 250 l 54 519 q 57 595 54 569 q 81 630 60 621 q 154 639 103 639 l 328 639 l 328 271 q 341 188 328 214 q 384 153 354 161 q 460 144 414 144 q 565 172 535 144 q 596 269 596 199 l 596 639 l 767 639 q 841 630 819 639 q 866 595 863 621 q 869 519 869 569 l 869 332 m 739 558 l 738 639 l 767 639 q 800 647 788 639 q 819 670 813 656 q 825 704 825 685 l 825 732 l 947 732 l 947 704 q 895 590 947 624 q 739 558 843 557 z "},"Ứ":{"ha":924,"x_min":54,"x_max":946,"o":"m 869 332 q 859 179 869 243 q 810 75 849 115 q 688 16 771 35 q 458 -3 604 -3 q 262 9 339 -3 q 142 46 185 21 q 81 109 100 71 q 58 199 61 147 q 54 315 54 250 l 54 519 q 57 595 54 569 q 81 630 60 621 q 154 639 103 639 l 328 639 l 328 271 q 341 188 328 214 q 384 153 354 161 q 460 144 414 144 q 565 172 535 144 q 596 269 596 199 l 596 639 l 767 639 q 841 630 819 639 q 866 595 863 621 q 869 519 869 569 l 869 332 m 739 558 l 738 639 l 767 639 q 800 647 788 639 q 819 670 813 656 q 825 704 825 685 l 825 732 l 947 732 l 947 704 q 895 590 947 624 q 739 558 843 557 m 383 724 l 549 890 l 658 828 l 483 724 l 383 724 z "},"Ự":{"ha":924,"x_min":54,"x_max":946,"o":"m 869 332 q 859 179 869 243 q 810 75 849 115 q 688 16 771 35 q 458 -3 604 -3 q 262 9 339 -3 q 142 46 185 21 q 81 109 100 71 q 58 199 61 147 q 54 315 54 250 l 54 519 q 57 595 54 569 q 81 630 60 621 q 154 639 103 639 l 328 639 l 328 271 q 341 188 328 214 q 384 153 354 161 q 460 144 414 144 q 565 172 535 144 q 596 269 596 199 l 596 639 l 767 639 q 841 630 819 639 q 866 595 863 621 q 869 519 869 569 l 869 332 m 739 558 l 738 639 l 767 639 q 800 647 788 639 q 819 670 813 656 q 825 704 825 685 l 825 732 l 947 732 l 947 704 q 895 590 947 624 q 739 558 843 557 m 461 -239 q 399 -235 426 -239 q 357 -214 372 -231 q 342 -161 342 -197 q 378 -97 342 -110 q 467 -83 414 -83 q 549 -97 518 -83 q 579 -161 579 -110 q 565 -214 579 -197 q 524 -235 550 -231 q 461 -239 497 -239 z "},"Ừ":{"ha":924,"x_min":54,"x_max":946,"o":"m 869 332 q 859 179 869 243 q 810 75 849 115 q 688 16 771 35 q 458 -3 604 -3 q 262 9 339 -3 q 142 46 185 21 q 81 109 100 71 q 58 199 61 147 q 54 315 54 250 l 54 519 q 57 595 54 569 q 81 630 60 621 q 154 639 103 639 l 328 639 l 328 271 q 341 188 328 214 q 384 153 354 161 q 460 144 414 144 q 565 172 535 144 q 596 269 596 199 l 596 639 l 767 639 q 841 630 819 639 q 866 595 863 621 q 869 519 869 569 l 869 332 m 739 558 l 738 639 l 767 639 q 800 647 788 639 q 819 670 813 656 q 825 704 825 685 l 825 732 l 947 732 l 947 704 q 895 590 947 624 q 739 558 843 557 m 461 724 l 286 828 l 396 890 l 561 724 l 461 724 z "},"Ử":{"ha":924,"x_min":54,"x_max":946,"o":"m 869 332 q 859 179 869 243 q 810 75 849 115 q 688 16 771 35 q 458 -3 604 -3 q 262 9 339 -3 q 142 46 185 21 q 81 109 100 71 q 58 199 61 147 q 54 315 54 250 l 54 519 q 57 595 54 569 q 81 630 60 621 q 154 639 103 639 l 328 639 l 328 271 q 341 188 328 214 q 384 153 354 161 q 460 144 414 144 q 565 172 535 144 q 596 269 596 199 l 596 639 l 767 639 q 841 630 819 639 q 866 595 863 621 q 869 519 869 569 l 869 332 m 739 558 l 738 639 l 767 639 q 800 647 788 639 q 819 670 813 656 q 825 704 825 685 l 825 732 l 947 732 l 947 704 q 895 590 947 624 q 739 558 843 557 m 422 724 l 422 742 q 430 765 422 757 q 447 777 438 774 q 463 787 456 781 q 471 806 471 793 l 471 821 q 467 844 471 836 q 450 851 463 851 q 431 822 432 851 l 349 835 q 379 897 351 876 q 460 918 407 918 q 548 898 518 918 q 578 828 578 878 l 578 822 q 569 785 578 797 q 550 765 561 772 q 531 751 539 758 q 522 733 522 744 l 522 724 l 422 724 z "},"Ữ":{"ha":924,"x_min":54,"x_max":946,"o":"m 869 332 q 859 179 869 243 q 810 75 849 115 q 688 16 771 35 q 458 -3 604 -3 q 262 9 339 -3 q 142 46 185 21 q 81 109 100 71 q 58 199 61 147 q 54 315 54 250 l 54 519 q 57 595 54 569 q 81 630 60 621 q 154 639 103 639 l 328 639 l 328 271 q 341 188 328 214 q 384 153 354 161 q 460 144 414 144 q 565 172 535 144 q 596 269 596 199 l 596 639 l 767 639 q 841 630 819 639 q 866 595 863 621 q 869 519 869 569 l 869 332 m 739 558 l 738 639 l 767 639 q 800 647 788 639 q 819 670 813 656 q 825 704 825 685 l 825 732 l 947 732 l 947 704 q 895 590 947 624 q 739 558 843 557 m 546 725 q 490 740 515 725 q 438 771 464 756 q 382 785 411 786 q 339 767 356 785 q 317 742 322 750 l 274 781 q 281 797 274 781 q 302 833 289 813 q 335 869 315 853 q 382 885 356 885 q 438 872 411 888 q 490 840 464 856 q 543 825 517 825 q 592 844 574 825 q 618 874 610 863 l 660 840 q 652 823 660 840 q 630 783 644 806 q 594 743 615 761 q 546 725 572 725 z "},"Ű":{"ha":924,"x_min":54,"x_max":869,"o":"m 869 332 q 859 179 869 243 q 810 75 849 115 q 688 16 771 35 q 458 -3 604 -3 q 262 9 339 -3 q 142 46 185 21 q 81 109 100 71 q 58 199 61 147 q 54 315 54 250 l 54 519 q 57 595 54 569 q 81 630 60 621 q 154 639 103 639 l 328 639 l 328 271 q 341 188 328 214 q 384 153 354 161 q 460 144 414 144 q 565 172 535 144 q 596 269 596 199 l 596 639 l 767 639 q 841 630 819 639 q 866 595 863 621 q 869 519 869 569 l 869 332 m 515 724 l 576 890 l 714 888 l 618 724 l 515 724 m 317 724 l 378 890 l 515 888 l 419 724 l 317 724 z "},"Ȗ":{"ha":924,"x_min":54,"x_max":869,"o":"m 869 332 q 859 179 869 243 q 810 75 849 115 q 688 16 771 35 q 458 -3 604 -3 q 262 9 339 -3 q 142 46 185 21 q 81 109 100 71 q 58 199 61 147 q 54 315 54 250 l 54 519 q 57 595 54 569 q 81 630 60 621 q 154 639 103 639 l 328 639 l 328 271 q 341 188 328 214 q 384 153 354 161 q 460 144 414 144 q 565 172 535 144 q 596 269 596 199 l 596 639 l 767 639 q 841 630 819 639 q 866 595 863 621 q 869 519 869 569 l 869 332 m 285 721 l 285 733 q 303 834 285 800 q 360 879 321 868 q 463 890 399 890 q 564 878 525 890 q 620 833 603 867 q 638 733 638 800 l 638 721 l 546 721 l 546 731 q 540 766 546 750 q 517 791 535 782 q 461 800 499 800 q 408 791 425 800 q 384 767 390 782 q 376 732 378 751 l 376 721 l 285 721 z "},"Ū":{"ha":924,"x_min":54,"x_max":869,"o":"m 869 332 q 859 179 869 243 q 810 75 849 115 q 688 16 771 35 q 458 -3 604 -3 q 262 9 339 -3 q 142 46 185 21 q 81 109 100 71 q 58 199 61 147 q 54 315 54 250 l 54 519 q 57 595 54 569 q 81 630 60 621 q 154 639 103 639 l 328 639 l 328 271 q 341 188 328 214 q 384 153 354 161 q 460 144 414 144 q 565 172 535 144 q 596 269 596 199 l 596 639 l 767 639 q 841 630 819 639 q 866 595 863 621 q 869 519 869 569 l 869 332 m 253 724 l 253 819 l 668 819 l 668 724 l 253 724 z "},"Ų":{"ha":924,"x_min":54,"x_max":869,"o":"m 869 332 q 859 179 869 243 q 810 75 849 115 q 688 16 771 35 q 458 -3 604 -3 q 262 9 339 -3 q 142 46 185 21 q 81 109 100 71 q 58 199 61 147 q 54 315 54 250 l 54 519 q 57 595 54 569 q 81 630 60 621 q 154 639 103 639 l 328 639 l 328 271 q 341 188 328 214 q 384 153 354 161 q 460 144 414 144 q 565 172 535 144 q 596 269 596 199 l 596 639 l 767 639 q 841 630 819 639 q 866 595 863 621 q 869 519 869 569 l 869 332 m 439 -261 q 352 -247 382 -261 q 312 -206 322 -232 q 301 -146 301 -181 q 315 -88 301 -114 q 348 -42 328 -62 q 390 -8 368 -21 q 428 14 411 6 l 539 14 q 506 -3 526 10 q 463 -34 485 -17 q 424 -72 440 -51 q 408 -114 408 -93 q 431 -161 408 -153 q 485 -169 453 -169 q 528 -169 517 -169 q 543 -167 540 -168 q 549 -167 546 -167 q 542 -220 549 -199 q 511 -251 535 -242 q 439 -261 488 -261 z "},"Ů":{"ha":924,"x_min":54,"x_max":869,"o":"m 869 332 q 859 179 869 243 q 810 75 849 115 q 688 16 771 35 q 458 -3 604 -3 q 262 9 339 -3 q 142 46 185 21 q 81 109 100 71 q 58 199 61 147 q 54 315 54 250 l 54 519 q 57 595 54 569 q 81 630 60 621 q 154 639 103 639 l 328 639 l 328 271 q 341 188 328 214 q 384 153 354 161 q 460 144 414 144 q 565 172 535 144 q 596 269 596 199 l 596 639 l 767 639 q 841 630 819 639 q 866 595 863 621 q 869 519 869 569 l 869 332 m 461 725 q 385 731 418 725 q 333 758 351 738 q 315 821 315 779 q 333 881 315 863 q 385 906 351 900 q 464 913 419 913 q 545 906 511 913 q 597 881 579 900 q 615 821 615 863 q 597 758 615 779 q 544 731 579 738 q 461 725 510 725 m 464 789 q 508 795 494 789 q 522 818 522 801 q 508 842 522 836 q 464 849 494 849 q 420 842 435 849 q 406 818 406 836 q 419 795 406 801 q 464 789 433 789 z "},"Ũ":{"ha":924,"x_min":54,"x_max":869,"o":"m 869 332 q 859 179 869 243 q 810 75 849 115 q 688 16 771 35 q 458 -3 604 -3 q 262 9 339 -3 q 142 46 185 21 q 81 109 100 71 q 58 199 61 147 q 54 315 54 250 l 54 519 q 57 595 54 569 q 81 630 60 621 q 154 639 103 639 l 328 639 l 328 271 q 341 188 328 214 q 384 153 354 161 q 460 144 414 144 q 565 172 535 144 q 596 269 596 199 l 596 639 l 767 639 q 841 630 819 639 q 866 595 863 621 q 869 519 869 569 l 869 332 m 546 725 q 490 740 515 725 q 438 771 464 756 q 382 785 411 786 q 339 767 356 785 q 317 742 322 750 l 274 781 q 281 797 274 781 q 302 833 289 813 q 335 869 315 853 q 382 885 356 885 q 438 872 411 888 q 490 840 464 856 q 543 825 517 825 q 592 844 574 825 q 618 874 610 863 l 660 840 q 652 823 660 840 q 630 783 644 806 q 594 743 615 761 q 546 725 572 725 z "},"V":{"ha":874,"x_min":14,"x_max":868,"o":"m 414 0 q 313 22 347 0 q 251 103 279 43 l 14 639 l 315 639 l 465 263 q 477 242 469 249 q 492 235 485 235 l 499 235 l 665 639 l 868 639 l 582 0 l 414 0 z "},"W":{"ha":1154,"x_min":33,"x_max":1122,"o":"m 265 0 q 196 17 225 0 q 149 59 167 33 q 128 114 132 85 l 33 639 l 285 638 l 353 251 q 360 228 356 235 q 376 221 365 221 l 389 221 l 486 639 l 747 639 l 860 221 l 876 221 q 888 226 885 221 q 892 243 890 232 l 936 639 l 1122 639 l 1047 113 q 1022 50 1042 75 q 966 13 1001 25 q 875 0 931 0 l 693 0 l 618 294 l 601 371 l 589 294 l 525 0 l 265 0 z "},"Ẃ":{"ha":1154,"x_min":33,"x_max":1122,"o":"m 265 0 q 196 17 225 0 q 149 59 167 33 q 128 114 132 85 l 33 639 l 285 638 l 353 251 q 360 228 356 235 q 376 221 365 221 l 389 221 l 486 639 l 747 639 l 860 221 l 876 221 q 888 226 885 221 q 892 243 890 232 l 936 639 l 1122 639 l 1047 113 q 1022 50 1042 75 q 966 13 1001 25 q 875 0 931 0 l 693 0 l 618 294 l 601 371 l 589 294 l 525 0 l 265 0 m 542 724 l 707 890 l 817 828 l 642 724 l 542 724 z "},"Ŵ":{"ha":1154,"x_min":33,"x_max":1122,"o":"m 265 0 q 196 17 225 0 q 149 59 167 33 q 128 114 132 85 l 33 639 l 285 638 l 353 251 q 360 228 356 235 q 376 221 365 221 l 389 221 l 486 639 l 747 639 l 860 221 l 876 221 q 888 226 885 221 q 892 243 890 232 l 936 639 l 1122 639 l 1047 113 q 1022 50 1042 75 q 966 13 1001 25 q 875 0 931 0 l 693 0 l 618 294 l 601 371 l 589 294 l 525 0 l 265 0 m 431 724 l 586 890 l 651 890 l 808 724 l 704 724 l 618 793 l 529 724 l 431 724 z "},"Ẅ":{"ha":1154,"x_min":33,"x_max":1122,"o":"m 265 0 q 196 17 225 0 q 149 59 167 33 q 128 114 132 85 l 33 639 l 285 638 l 353 251 q 360 228 356 235 q 376 221 365 221 l 389 221 l 486 639 l 747 639 l 860 221 l 876 221 q 888 226 885 221 q 892 243 890 232 l 936 639 l 1122 639 l 1047 113 q 1022 50 1042 75 q 966 13 1001 25 q 875 0 931 0 l 693 0 l 618 294 l 601 371 l 589 294 l 525 0 l 265 0 m 758 721 q 695 732 719 721 q 671 785 671 743 q 697 835 671 826 q 761 844 724 844 q 821 834 799 844 q 843 785 843 824 q 820 732 843 743 q 758 721 797 721 m 482 721 q 419 732 443 721 q 394 786 394 743 q 421 835 394 826 q 485 844 447 844 q 544 834 522 844 q 567 786 567 824 q 543 732 567 743 q 482 721 519 721 z "},"Ẁ":{"ha":1154,"x_min":33,"x_max":1122,"o":"m 265 0 q 196 17 225 0 q 149 59 167 33 q 128 114 132 85 l 33 639 l 285 638 l 353 251 q 360 228 356 235 q 376 221 365 221 l 389 221 l 486 639 l 747 639 l 860 221 l 876 221 q 888 226 885 221 q 892 243 890 232 l 936 639 l 1122 639 l 1047 113 q 1022 50 1042 75 q 966 13 1001 25 q 875 0 931 0 l 693 0 l 618 294 l 601 371 l 589 294 l 525 0 l 265 0 m 619 724 l 444 828 l 554 890 l 719 724 l 619 724 z "},"X":{"ha":903,"x_min":-14,"x_max":913,"o":"m 653 0 q 588 4 617 0 q 534 24 560 8 q 481 74 508 39 l 336 250 l 6 639 l 367 639 l 526 428 l 832 85 q 876 33 858 56 q 913 0 894 11 l 653 0 m 146 0 l -14 1 q 42 50 14 21 q 93 101 71 79 l 364 383 l 608 639 l 856 639 l 506 278 l 306 58 q 242 14 276 29 q 146 0 208 -1 z "},"Y":{"ha":885,"x_min":-6,"x_max":897,"o":"m 311 0 l 311 253 l 24 604 l -6 639 l 375 639 l 519 433 l 650 639 l 897 639 l 858 599 l 583 253 l 585 96 q 575 34 586 54 q 538 7 564 14 q 465 0 513 0 l 311 0 z "},"Ý":{"ha":885,"x_min":-6,"x_max":897,"o":"m 311 0 l 311 253 l 24 604 l -6 639 l 375 639 l 519 433 l 650 639 l 897 639 l 858 599 l 583 253 l 585 96 q 575 34 586 54 q 538 7 564 14 q 465 0 513 0 l 311 0 m 444 724 l 610 890 l 719 828 l 544 724 l 444 724 z "},"Ŷ":{"ha":885,"x_min":-6,"x_max":897,"o":"m 311 0 l 311 253 l 24 604 l -6 639 l 375 639 l 519 433 l 650 639 l 897 639 l 858 599 l 583 253 l 585 96 q 575 34 586 54 q 538 7 564 14 q 465 0 513 0 l 311 0 m 333 724 l 489 890 l 554 890 l 711 724 l 607 724 l 521 793 l 432 724 l 333 724 z "},"Ÿ":{"ha":885,"x_min":-6,"x_max":897,"o":"m 311 0 l 311 253 l 24 604 l -6 639 l 375 639 l 519 433 l 650 639 l 897 639 l 858 599 l 583 253 l 585 96 q 575 34 586 54 q 538 7 564 14 q 465 0 513 0 l 311 0 m 661 721 q 598 732 622 721 q 574 785 574 743 q 600 835 574 826 q 664 844 626 844 q 724 834 701 844 q 746 785 746 824 q 723 732 746 743 q 661 721 700 721 m 385 721 q 322 732 346 721 q 297 786 297 743 q 324 835 297 826 q 388 844 350 844 q 447 834 425 844 q 469 786 469 824 q 446 732 469 743 q 385 721 422 721 z "},"Ỵ":{"ha":885,"x_min":-6,"x_max":897,"o":"m 311 0 l 311 253 l 24 604 l -6 639 l 375 639 l 519 433 l 650 639 l 897 639 l 858 599 l 583 253 l 585 96 q 575 34 586 54 q 538 7 564 14 q 465 0 513 0 l 311 0 m 449 -239 q 387 -235 414 -239 q 344 -214 360 -231 q 329 -161 329 -197 q 365 -97 329 -110 q 454 -83 401 -83 q 536 -97 506 -83 q 567 -161 567 -110 q 552 -214 567 -197 q 511 -235 538 -231 q 449 -239 485 -239 z "},"Ỳ":{"ha":885,"x_min":-6,"x_max":897,"o":"m 311 0 l 311 253 l 24 604 l -6 639 l 375 639 l 519 433 l 650 639 l 897 639 l 858 599 l 583 253 l 585 96 q 575 34 586 54 q 538 7 564 14 q 465 0 513 0 l 311 0 m 521 724 l 346 828 l 456 890 l 621 724 l 521 724 z "},"Ỷ":{"ha":885,"x_min":-6,"x_max":897,"o":"m 311 0 l 311 253 l 24 604 l -6 639 l 375 639 l 519 433 l 650 639 l 897 639 l 858 599 l 583 253 l 585 96 q 575 34 586 54 q 538 7 564 14 q 465 0 513 0 l 311 0 m 482 724 l 482 742 q 490 765 482 757 q 506 777 497 774 q 523 787 515 781 q 531 806 531 793 l 531 821 q 526 844 531 836 q 510 851 522 851 q 490 822 492 851 l 408 835 q 439 897 411 876 q 519 918 467 918 q 608 898 578 918 q 638 828 638 878 l 638 822 q 629 785 638 797 q 610 765 621 772 q 590 751 599 758 q 582 733 582 744 l 582 724 l 482 724 z "},"Ȳ":{"ha":885,"x_min":-6,"x_max":897,"o":"m 311 0 l 311 253 l 24 604 l -6 639 l 375 639 l 519 433 l 650 639 l 897 639 l 858 599 l 583 253 l 585 96 q 575 34 586 54 q 538 7 564 14 q 465 0 513 0 l 311 0 m 314 724 l 314 819 l 729 819 l 729 724 l 314 724 z "},"Ỹ":{"ha":885,"x_min":-6,"x_max":897,"o":"m 311 0 l 311 253 l 24 604 l -6 639 l 375 639 l 519 433 l 650 639 l 897 639 l 858 599 l 583 253 l 585 96 q 575 34 586 54 q 538 7 564 14 q 465 0 513 0 l 311 0 m 607 725 q 551 740 576 725 q 499 771 525 756 q 443 785 472 786 q 400 767 417 785 q 378 742 383 750 l 335 781 q 342 797 335 781 q 363 833 350 813 q 397 869 376 853 q 443 885 417 885 q 499 872 472 888 q 551 840 525 856 q 604 825 578 825 q 653 844 635 825 q 679 874 671 863 l 721 840 q 713 823 721 840 q 691 783 706 806 q 655 743 676 761 q 607 725 633 725 z "},"Z":{"ha":832,"x_min":17,"x_max":815,"o":"m 396 143 l 815 143 q 813 64 815 93 q 801 21 811 35 q 767 3 790 7 q 701 0 744 0 l 17 0 l 17 144 q 40 166 19 146 q 94 217 60 186 q 168 285 128 247 q 250 360 208 322 q 328 429 292 397 q 389 482 364 461 q 404 490 394 486 q 418 496 414 493 l 36 496 q 39 582 36 551 q 60 626 42 613 q 122 639 78 639 l 801 639 q 801 614 801 638 q 792 556 800 590 q 764 482 785 521 q 703 410 743 443 l 419 150 l 396 143 z "},"Ź":{"ha":832,"x_min":17,"x_max":815,"o":"m 396 143 l 815 143 q 813 64 815 93 q 801 21 811 35 q 767 3 790 7 q 701 0 744 0 l 17 0 l 17 144 q 40 166 19 146 q 94 217 60 186 q 168 285 128 247 q 250 360 208 322 q 328 429 292 397 q 389 482 364 461 q 404 490 394 486 q 418 496 414 493 l 36 496 q 39 582 36 551 q 60 626 42 613 q 122 639 78 639 l 801 639 q 801 614 801 638 q 792 556 800 590 q 764 482 785 521 q 703 410 743 443 l 419 150 l 396 143 m 339 724 l 504 890 l 614 828 l 439 724 l 339 724 z "},"Ž":{"ha":832,"x_min":17,"x_max":815,"o":"m 228 890 l 325 890 l 415 821 l 500 890 l 606 890 l 447 724 l 382 724 l 228 890 m 396 143 l 815 143 q 813 64 815 93 q 801 21 811 35 q 767 3 790 7 q 701 0 744 0 l 17 0 l 17 144 q 40 166 19 146 q 94 217 60 186 q 168 285 128 247 q 250 360 208 322 q 328 429 292 397 q 389 482 364 461 q 404 490 394 486 q 418 496 414 493 l 36 496 q 39 582 36 551 q 60 626 42 613 q 122 639 78 639 l 801 639 q 801 614 801 638 q 792 556 800 590 q 764 482 785 521 q 703 410 743 443 l 419 150 l 396 143 z "},"Ż":{"ha":832,"x_min":17,"x_max":815,"o":"m 396 143 l 815 143 q 813 64 815 93 q 801 21 811 35 q 767 3 790 7 q 701 0 744 0 l 17 0 l 17 144 q 40 166 19 146 q 94 217 60 186 q 168 285 128 247 q 250 360 208 322 q 328 429 292 397 q 389 482 364 461 q 404 490 394 486 q 418 496 414 493 l 36 496 q 39 582 36 551 q 60 626 42 613 q 122 639 78 639 l 801 639 q 801 614 801 638 q 792 556 800 590 q 764 482 785 521 q 703 410 743 443 l 419 150 l 396 143 m 417 719 q 354 728 378 719 q 331 776 331 738 q 356 824 331 814 q 419 833 382 833 q 478 823 456 833 q 500 776 500 813 q 478 728 500 738 q 417 719 456 719 z "},"a":{"ha":768,"x_min":42,"x_max":728,"o":"m 364 -6 q 197 -1 261 -6 q 100 22 133 4 q 54 72 67 39 q 42 160 42 106 q 56 268 42 231 q 101 319 69 306 q 186 332 133 332 q 269 331 222 332 q 360 330 315 331 q 441 326 406 329 q 488 319 476 324 q 482 375 488 354 q 461 408 476 396 q 421 423 446 419 q 357 426 396 426 q 259 425 308 426 q 163 422 210 424 q 74 415 117 419 l 74 461 q 89 522 74 501 q 136 549 104 543 q 238 558 171 556 q 386 560 306 561 q 556 550 489 560 q 661 514 624 540 q 713 437 699 488 q 728 304 728 386 l 728 31 q 603 3 700 13 q 364 -6 507 -6 m 363 94 q 414 96 390 94 q 456 100 438 97 q 488 107 475 103 l 488 244 q 448 249 474 247 q 399 253 422 251 q 364 254 375 254 q 325 249 340 254 q 303 226 310 243 q 297 176 297 210 q 303 128 297 146 q 322 102 308 110 q 363 94 336 94 z "},"á":{"ha":768,"x_min":42,"x_max":728,"o":"m 364 -6 q 197 -1 261 -6 q 100 22 133 4 q 54 72 67 39 q 42 160 42 106 q 56 268 42 231 q 101 319 69 306 q 186 332 133 332 q 269 331 222 332 q 360 330 315 331 q 441 326 406 329 q 488 319 476 324 q 482 375 488 354 q 461 408 476 396 q 421 423 446 419 q 357 426 396 426 q 259 425 308 426 q 163 422 210 424 q 74 415 117 419 l 74 461 q 89 522 74 501 q 136 549 104 543 q 238 558 171 556 q 386 560 306 561 q 556 550 489 560 q 661 514 624 540 q 713 437 699 488 q 728 304 728 386 l 728 31 q 603 3 700 13 q 364 -6 507 -6 m 363 94 q 414 96 390 94 q 456 100 438 97 q 488 107 475 103 l 488 244 q 448 249 474 247 q 399 253 422 251 q 364 254 375 254 q 325 249 340 254 q 303 226 310 243 q 297 176 297 210 q 303 128 297 146 q 322 102 308 110 q 363 94 336 94 m 319 639 l 522 826 l 632 765 l 419 639 l 319 639 z "},"ă":{"ha":768,"x_min":42,"x_max":728,"o":"m 364 -6 q 197 -1 261 -6 q 100 22 133 4 q 54 72 67 39 q 42 160 42 106 q 56 268 42 231 q 101 319 69 306 q 186 332 133 332 q 269 331 222 332 q 360 330 315 331 q 441 326 406 329 q 488 319 476 324 q 482 375 488 354 q 461 408 476 396 q 421 423 446 419 q 357 426 396 426 q 259 425 308 426 q 163 422 210 424 q 74 415 117 419 l 74 461 q 89 522 74 501 q 136 549 104 543 q 238 558 171 556 q 386 560 306 561 q 556 550 489 560 q 661 514 624 540 q 713 437 699 488 q 728 304 728 386 l 728 31 q 603 3 700 13 q 364 -6 507 -6 m 363 94 q 414 96 390 94 q 456 100 438 97 q 488 107 475 103 l 488 244 q 448 249 474 247 q 399 253 422 251 q 364 254 375 254 q 325 249 340 254 q 303 226 310 243 q 297 176 297 210 q 303 128 297 146 q 322 102 308 110 q 363 94 336 94 m 386 636 q 274 653 313 636 q 222 712 235 669 q 208 829 208 754 l 299 829 q 317 749 299 772 q 386 726 335 726 q 456 751 442 726 q 471 829 471 775 l 561 829 q 547 710 561 753 q 496 652 533 668 q 386 636 458 636 z "},"ắ":{"ha":768,"x_min":42,"x_max":728,"o":"m 364 -6 q 197 -1 261 -6 q 100 22 133 4 q 54 72 67 39 q 42 160 42 106 q 56 268 42 231 q 101 319 69 306 q 186 332 133 332 q 269 331 222 332 q 360 330 315 331 q 441 326 406 329 q 488 319 476 324 q 482 375 488 354 q 461 408 476 396 q 421 423 446 419 q 357 426 396 426 q 259 425 308 426 q 163 422 210 424 q 74 415 117 419 l 74 461 q 89 522 74 501 q 136 549 104 543 q 238 558 171 556 q 386 560 306 561 q 556 550 489 560 q 661 514 624 540 q 713 437 699 488 q 728 304 728 386 l 728 31 q 603 3 700 13 q 364 -6 507 -6 m 363 94 q 414 96 390 94 q 456 100 438 97 q 488 107 475 103 l 488 244 q 448 249 474 247 q 399 253 422 251 q 364 254 375 254 q 325 249 340 254 q 303 226 310 243 q 297 176 297 210 q 303 128 297 146 q 322 102 308 110 q 363 94 336 94 m 386 636 q 274 653 313 636 q 222 712 235 669 q 208 829 208 754 l 299 829 q 317 749 299 772 q 386 726 335 726 q 456 751 442 726 q 471 829 471 775 l 561 829 q 547 710 561 753 q 496 652 533 668 q 386 636 458 636 m 319 867 l 522 1054 l 632 993 l 419 867 l 319 867 z "},"ặ":{"ha":768,"x_min":42,"x_max":728,"o":"m 364 -6 q 197 -1 261 -6 q 100 22 133 4 q 54 72 67 39 q 42 160 42 106 q 56 268 42 231 q 101 319 69 306 q 186 332 133 332 q 269 331 222 332 q 360 330 315 331 q 441 326 406 329 q 488 319 476 324 q 482 375 488 354 q 461 408 476 396 q 421 423 446 419 q 357 426 396 426 q 259 425 308 426 q 163 422 210 424 q 74 415 117 419 l 74 461 q 89 522 74 501 q 136 549 104 543 q 238 558 171 556 q 386 560 306 561 q 556 550 489 560 q 661 514 624 540 q 713 437 699 488 q 728 304 728 386 l 728 31 q 603 3 700 13 q 364 -6 507 -6 m 363 94 q 414 96 390 94 q 456 100 438 97 q 488 107 475 103 l 488 244 q 448 249 474 247 q 399 253 422 251 q 364 254 375 254 q 325 249 340 254 q 303 226 310 243 q 297 176 297 210 q 303 128 297 146 q 322 102 308 110 q 363 94 336 94 m 386 -239 q 324 -235 351 -239 q 282 -214 297 -231 q 267 -161 267 -197 q 303 -97 267 -110 q 392 -83 339 -83 q 474 -97 443 -83 q 504 -161 504 -110 q 490 -214 504 -197 q 449 -235 475 -231 q 386 -239 422 -239 m 386 636 q 274 653 313 636 q 222 712 235 669 q 208 829 208 754 l 299 829 q 317 749 299 772 q 386 726 335 726 q 456 751 442 726 q 471 829 471 775 l 561 829 q 547 710 561 753 q 496 652 533 668 q 386 636 458 636 z "},"ằ":{"ha":768,"x_min":42,"x_max":728,"o":"m 364 -6 q 197 -1 261 -6 q 100 22 133 4 q 54 72 67 39 q 42 160 42 106 q 56 268 42 231 q 101 319 69 306 q 186 332 133 332 q 269 331 222 332 q 360 330 315 331 q 441 326 406 329 q 488 319 476 324 q 482 375 488 354 q 461 408 476 396 q 421 423 446 419 q 357 426 396 426 q 259 425 308 426 q 163 422 210 424 q 74 415 117 419 l 74 461 q 89 522 74 501 q 136 549 104 543 q 238 558 171 556 q 386 560 306 561 q 556 550 489 560 q 661 514 624 540 q 713 437 699 488 q 728 304 728 386 l 728 31 q 603 3 700 13 q 364 -6 507 -6 m 363 94 q 414 96 390 94 q 456 100 438 97 q 488 107 475 103 l 488 244 q 448 249 474 247 q 399 253 422 251 q 364 254 375 254 q 325 249 340 254 q 303 226 310 243 q 297 176 297 210 q 303 128 297 146 q 322 102 308 110 q 363 94 336 94 m 386 636 q 274 653 313 636 q 222 712 235 669 q 208 829 208 754 l 299 829 q 317 749 299 772 q 386 726 335 726 q 456 751 442 726 q 471 829 471 775 l 561 829 q 547 710 561 753 q 496 652 533 668 q 386 636 458 636 m 382 867 l 169 993 l 279 1054 l 482 867 l 382 867 z "},"ẳ":{"ha":768,"x_min":42,"x_max":728,"o":"m 364 -6 q 197 -1 261 -6 q 100 22 133 4 q 54 72 67 39 q 42 160 42 106 q 56 268 42 231 q 101 319 69 306 q 186 332 133 332 q 269 331 222 332 q 360 330 315 331 q 441 326 406 329 q 488 319 476 324 q 482 375 488 354 q 461 408 476 396 q 421 423 446 419 q 357 426 396 426 q 259 425 308 426 q 163 422 210 424 q 74 415 117 419 l 74 461 q 89 522 74 501 q 136 549 104 543 q 238 558 171 556 q 386 560 306 561 q 556 550 489 560 q 661 514 624 540 q 713 437 699 488 q 728 304 728 386 l 728 31 q 603 3 700 13 q 364 -6 507 -6 m 363 94 q 414 96 390 94 q 456 100 438 97 q 488 107 475 103 l 488 244 q 448 249 474 247 q 399 253 422 251 q 364 254 375 254 q 325 249 340 254 q 303 226 310 243 q 297 176 297 210 q 303 128 297 146 q 322 102 308 110 q 363 94 336 94 m 386 636 q 274 653 313 636 q 222 712 235 669 q 208 829 208 754 l 299 829 q 317 749 299 772 q 386 726 335 726 q 456 751 442 726 q 471 829 471 775 l 561 829 q 547 710 561 753 q 496 652 533 668 q 386 636 458 636 m 347 865 l 347 883 q 359 912 347 904 q 383 926 371 919 q 394 950 394 933 l 394 964 q 391 988 394 981 q 374 996 388 996 q 358 988 363 996 q 353 967 354 981 l 272 979 q 382 1063 276 1063 q 472 1043 442 1063 q 501 972 501 1024 l 501 967 q 488 922 501 936 q 460 899 474 907 q 446 875 446 890 l 446 865 l 347 865 z "},"ẵ":{"ha":768,"x_min":42,"x_max":728,"o":"m 364 -6 q 197 -1 261 -6 q 100 22 133 4 q 54 72 67 39 q 42 160 42 106 q 56 268 42 231 q 101 319 69 306 q 186 332 133 332 q 269 331 222 332 q 360 330 315 331 q 441 326 406 329 q 488 319 476 324 q 482 375 488 354 q 461 408 476 396 q 421 423 446 419 q 357 426 396 426 q 259 425 308 426 q 163 422 210 424 q 74 415 117 419 l 74 461 q 89 522 74 501 q 136 549 104 543 q 238 558 171 556 q 386 560 306 561 q 556 550 489 560 q 661 514 624 540 q 713 437 699 488 q 728 304 728 386 l 728 31 q 603 3 700 13 q 364 -6 507 -6 m 363 94 q 414 96 390 94 q 456 100 438 97 q 488 107 475 103 l 488 244 q 448 249 474 247 q 399 253 422 251 q 364 254 375 254 q 325 249 340 254 q 303 226 310 243 q 297 176 297 210 q 303 128 297 146 q 322 102 308 110 q 363 94 336 94 m 386 636 q 274 653 313 636 q 222 712 235 669 q 208 829 208 754 l 299 829 q 317 749 299 772 q 386 726 335 726 q 456 751 442 726 q 471 829 471 775 l 561 829 q 547 710 561 753 q 496 652 533 668 q 386 636 458 636 m 469 868 q 414 882 440 867 q 362 913 388 897 q 307 928 336 929 q 263 910 279 928 q 242 885 247 892 l 199 922 q 206 939 199 924 q 227 975 214 954 q 260 1012 240 996 q 307 1028 281 1028 q 363 1014 336 1029 q 415 983 389 999 q 467 968 440 968 q 517 986 499 968 q 542 1017 535 1004 l 585 983 q 577 966 585 983 q 555 926 569 949 q 519 886 540 904 q 469 868 497 868 z "},"â":{"ha":768,"x_min":42,"x_max":728,"o":"m 364 -6 q 197 -1 261 -6 q 100 22 133 4 q 54 72 67 39 q 42 160 42 106 q 56 268 42 231 q 101 319 69 306 q 186 332 133 332 q 269 331 222 332 q 360 330 315 331 q 441 326 406 329 q 488 319 476 324 q 482 375 488 354 q 461 408 476 396 q 421 423 446 419 q 357 426 396 426 q 259 425 308 426 q 163 422 210 424 q 74 415 117 419 l 74 461 q 89 522 74 501 q 136 549 104 543 q 238 558 171 556 q 386 560 306 561 q 556 550 489 560 q 661 514 624 540 q 713 437 699 488 q 728 304 728 386 l 728 31 q 603 3 700 13 q 364 -6 507 -6 m 363 94 q 414 96 390 94 q 456 100 438 97 q 488 107 475 103 l 488 244 q 448 249 474 247 q 399 253 422 251 q 364 254 375 254 q 325 249 340 254 q 303 226 310 243 q 297 176 297 210 q 303 128 297 146 q 322 102 308 110 q 363 94 336 94 m 196 639 l 351 833 l 417 833 l 575 639 l 469 639 l 383 729 l 294 639 l 196 639 z "},"ấ":{"ha":768,"x_min":42,"x_max":861,"o":"m 364 -6 q 197 -1 261 -6 q 100 22 133 4 q 54 72 67 39 q 42 160 42 106 q 56 268 42 231 q 101 319 69 306 q 186 332 133 332 q 269 331 222 332 q 360 330 315 331 q 441 326 406 329 q 488 319 476 324 q 482 375 488 354 q 461 408 476 396 q 421 423 446 419 q 357 426 396 426 q 259 425 308 426 q 163 422 210 424 q 74 415 117 419 l 74 461 q 89 522 74 501 q 136 549 104 543 q 238 558 171 556 q 386 560 306 561 q 556 550 489 560 q 661 514 624 540 q 713 437 699 488 q 728 304 728 386 l 728 31 q 603 3 700 13 q 364 -6 507 -6 m 363 94 q 414 96 390 94 q 456 100 438 97 q 488 107 475 103 l 488 244 q 448 249 474 247 q 399 253 422 251 q 364 254 375 254 q 325 249 340 254 q 303 226 310 243 q 297 176 297 210 q 303 128 297 146 q 322 102 308 110 q 363 94 336 94 m 196 639 l 351 833 l 417 833 l 575 639 l 469 639 l 383 729 l 294 639 l 196 639 m 549 782 l 751 969 l 861 908 l 649 782 l 549 782 z "},"ậ":{"ha":768,"x_min":42,"x_max":728,"o":"m 364 -6 q 197 -1 261 -6 q 100 22 133 4 q 54 72 67 39 q 42 160 42 106 q 56 268 42 231 q 101 319 69 306 q 186 332 133 332 q 269 331 222 332 q 360 330 315 331 q 441 326 406 329 q 488 319 476 324 q 482 375 488 354 q 461 408 476 396 q 421 423 446 419 q 357 426 396 426 q 259 425 308 426 q 163 422 210 424 q 74 415 117 419 l 74 461 q 89 522 74 501 q 136 549 104 543 q 238 558 171 556 q 386 560 306 561 q 556 550 489 560 q 661 514 624 540 q 713 437 699 488 q 728 304 728 386 l 728 31 q 603 3 700 13 q 364 -6 507 -6 m 363 94 q 414 96 390 94 q 456 100 438 97 q 488 107 475 103 l 488 244 q 448 249 474 247 q 399 253 422 251 q 364 254 375 254 q 325 249 340 254 q 303 226 310 243 q 297 176 297 210 q 303 128 297 146 q 322 102 308 110 q 363 94 336 94 m 386 -239 q 324 -235 351 -239 q 282 -214 297 -231 q 267 -161 267 -197 q 303 -97 267 -110 q 392 -83 339 -83 q 474 -97 443 -83 q 504 -161 504 -110 q 490 -214 504 -197 q 449 -235 475 -231 q 386 -239 422 -239 m 196 639 l 351 833 l 417 833 l 575 639 l 469 639 l 383 729 l 294 639 l 196 639 z "},"ầ":{"ha":768,"x_min":42,"x_max":728,"o":"m 364 -6 q 197 -1 261 -6 q 100 22 133 4 q 54 72 67 39 q 42 160 42 106 q 56 268 42 231 q 101 319 69 306 q 186 332 133 332 q 269 331 222 332 q 360 330 315 331 q 441 326 406 329 q 488 319 476 324 q 482 375 488 354 q 461 408 476 396 q 421 423 446 419 q 357 426 396 426 q 259 425 308 426 q 163 422 210 424 q 74 415 117 419 l 74 461 q 89 522 74 501 q 136 549 104 543 q 238 558 171 556 q 386 560 306 561 q 556 550 489 560 q 661 514 624 540 q 713 437 699 488 q 728 304 728 386 l 728 31 q 603 3 700 13 q 364 -6 507 -6 m 363 94 q 414 96 390 94 q 456 100 438 97 q 488 107 475 103 l 488 244 q 448 249 474 247 q 399 253 422 251 q 364 254 375 254 q 325 249 340 254 q 303 226 310 243 q 297 176 297 210 q 303 128 297 146 q 322 102 308 110 q 363 94 336 94 m 196 639 l 351 833 l 417 833 l 575 639 l 469 639 l 383 729 l 294 639 l 196 639 m 611 782 l 399 908 l 508 969 l 711 782 l 611 782 z "},"ẩ":{"ha":768,"x_min":42,"x_max":731,"o":"m 364 -6 q 197 -1 261 -6 q 100 22 133 4 q 54 72 67 39 q 42 160 42 106 q 56 268 42 231 q 101 319 69 306 q 186 332 133 332 q 269 331 222 332 q 360 330 315 331 q 441 326 406 329 q 488 319 476 324 q 482 375 488 354 q 461 408 476 396 q 421 423 446 419 q 357 426 396 426 q 259 425 308 426 q 163 422 210 424 q 74 415 117 419 l 74 461 q 89 522 74 501 q 136 549 104 543 q 238 558 171 556 q 386 560 306 561 q 556 550 489 560 q 661 514 624 540 q 713 437 699 488 q 728 304 728 386 l 728 31 q 603 3 700 13 q 364 -6 507 -6 m 363 94 q 414 96 390 94 q 456 100 438 97 q 488 107 475 103 l 488 244 q 448 249 474 247 q 399 253 422 251 q 364 254 375 254 q 325 249 340 254 q 303 226 310 243 q 297 176 297 210 q 303 128 297 146 q 322 102 308 110 q 363 94 336 94 m 196 639 l 351 833 l 417 833 l 575 639 l 469 639 l 383 729 l 294 639 l 196 639 m 576 781 l 576 799 q 588 827 576 819 q 612 842 600 835 q 624 865 624 849 l 624 879 q 620 903 624 896 q 603 911 617 911 q 588 903 592 911 q 582 882 583 896 l 501 894 q 611 978 506 978 q 701 958 671 978 q 731 888 731 939 l 731 882 q 717 837 731 851 q 689 814 703 822 q 675 790 675 806 l 675 781 l 576 781 z "},"ẫ":{"ha":768,"x_min":42,"x_max":728,"o":"m 364 -6 q 197 -1 261 -6 q 100 22 133 4 q 54 72 67 39 q 42 160 42 106 q 56 268 42 231 q 101 319 69 306 q 186 332 133 332 q 269 331 222 332 q 360 330 315 331 q 441 326 406 329 q 488 319 476 324 q 482 375 488 354 q 461 408 476 396 q 421 423 446 419 q 357 426 396 426 q 259 425 308 426 q 163 422 210 424 q 74 415 117 419 l 74 461 q 89 522 74 501 q 136 549 104 543 q 238 558 171 556 q 386 560 306 561 q 556 550 489 560 q 661 514 624 540 q 713 437 699 488 q 728 304 728 386 l 728 31 q 603 3 700 13 q 364 -6 507 -6 m 363 94 q 414 96 390 94 q 456 100 438 97 q 488 107 475 103 l 488 244 q 448 249 474 247 q 399 253 422 251 q 364 254 375 254 q 325 249 340 254 q 303 226 310 243 q 297 176 297 210 q 303 128 297 146 q 322 102 308 110 q 363 94 336 94 m 196 639 l 351 833 l 417 833 l 575 639 l 469 639 l 383 729 l 294 639 l 196 639 m 469 860 q 414 874 440 858 q 362 905 388 889 q 307 919 336 921 q 263 901 279 919 q 242 876 247 883 l 199 914 q 206 931 199 915 q 227 967 214 946 q 260 1003 240 988 q 307 1019 281 1019 q 363 1006 336 1021 q 415 975 389 990 q 467 960 440 960 q 517 978 499 960 q 542 1008 535 996 l 585 975 q 577 958 585 975 q 555 918 569 940 q 519 878 540 896 q 469 860 497 860 z "},"´":{"ha":336,"x_min":0,"x_max":313,"o":"m 0 639 l 203 826 l 313 765 l 100 639 l 0 639 z "},"́":{"ha":0,"x_min":0,"x_max":313,"o":"m 0 639 l 203 826 l 313 765 l 100 639 l 0 639 z "},"ȁ":{"ha":768,"x_min":42,"x_max":728,"o":"m 364 -6 q 197 -1 261 -6 q 100 22 133 4 q 54 72 67 39 q 42 160 42 106 q 56 268 42 231 q 101 319 69 306 q 186 332 133 332 q 269 331 222 332 q 360 330 315 331 q 441 326 406 329 q 488 319 476 324 q 482 375 488 354 q 461 408 476 396 q 421 423 446 419 q 357 426 396 426 q 259 425 308 426 q 163 422 210 424 q 74 415 117 419 l 74 461 q 89 522 74 501 q 136 549 104 543 q 238 558 171 556 q 386 560 306 561 q 556 550 489 560 q 661 514 624 540 q 713 437 699 488 q 728 304 728 386 l 728 31 q 603 3 700 13 q 364 -6 507 -6 m 363 94 q 414 96 390 94 q 456 100 438 97 q 488 107 475 103 l 488 244 q 448 249 474 247 q 399 253 422 251 q 364 254 375 254 q 325 249 340 254 q 303 226 310 243 q 297 176 297 210 q 303 128 297 146 q 322 102 308 110 q 363 94 336 94 m 281 639 l 101 765 l 229 826 l 381 639 l 281 639 m 443 639 l 303 804 l 431 864 l 532 639 l 443 639 z "},"ä":{"ha":768,"x_min":42,"x_max":728,"o":"m 364 -6 q 197 -1 261 -6 q 100 22 133 4 q 54 72 67 39 q 42 160 42 106 q 56 268 42 231 q 101 319 69 306 q 186 332 133 332 q 269 331 222 332 q 360 330 315 331 q 441 326 406 329 q 488 319 476 324 q 482 375 488 354 q 461 408 476 396 q 421 423 446 419 q 357 426 396 426 q 259 425 308 426 q 163 422 210 424 q 74 415 117 419 l 74 461 q 89 522 74 501 q 136 549 104 543 q 238 558 171 556 q 386 560 306 561 q 556 550 489 560 q 661 514 624 540 q 713 437 699 488 q 728 304 728 386 l 728 31 q 603 3 700 13 q 364 -6 507 -6 m 363 94 q 414 96 390 94 q 456 100 438 97 q 488 107 475 103 l 488 244 q 448 249 474 247 q 399 253 422 251 q 364 254 375 254 q 325 249 340 254 q 303 226 310 243 q 297 176 297 210 q 303 128 297 146 q 322 102 308 110 q 363 94 336 94 m 524 636 q 460 647 485 636 q 436 700 436 658 q 463 751 436 742 q 526 760 489 760 q 586 749 564 760 q 608 700 608 739 q 585 647 608 658 q 524 636 563 636 m 247 636 q 184 647 208 636 q 160 701 160 658 q 186 751 160 742 q 250 760 213 760 q 310 749 288 760 q 332 701 332 739 q 308 647 332 658 q 247 636 285 636 z "},"ạ":{"ha":768,"x_min":42,"x_max":728,"o":"m 364 -6 q 197 -1 261 -6 q 100 22 133 4 q 54 72 67 39 q 42 160 42 106 q 56 268 42 231 q 101 319 69 306 q 186 332 133 332 q 269 331 222 332 q 360 330 315 331 q 441 326 406 329 q 488 319 476 324 q 482 375 488 354 q 461 408 476 396 q 421 423 446 419 q 357 426 396 426 q 259 425 308 426 q 163 422 210 424 q 74 415 117 419 l 74 461 q 89 522 74 501 q 136 549 104 543 q 238 558 171 556 q 386 560 306 561 q 556 550 489 560 q 661 514 624 540 q 713 437 699 488 q 728 304 728 386 l 728 31 q 603 3 700 13 q 364 -6 507 -6 m 363 94 q 414 96 390 94 q 456 100 438 97 q 488 107 475 103 l 488 244 q 448 249 474 247 q 399 253 422 251 q 364 254 375 254 q 325 249 340 254 q 303 226 310 243 q 297 176 297 210 q 303 128 297 146 q 322 102 308 110 q 363 94 336 94 m 386 -239 q 324 -235 351 -239 q 282 -214 297 -231 q 267 -161 267 -197 q 303 -97 267 -110 q 392 -83 339 -83 q 474 -97 443 -83 q 504 -161 504 -110 q 490 -214 504 -197 q 449 -235 475 -231 q 386 -239 422 -239 z "},"æ":{"ha":1228,"x_min":42,"x_max":1157,"o":"m 364 -6 q 197 -1 261 -6 q 100 22 133 4 q 54 72 67 39 q 42 160 42 106 q 56 268 42 231 q 101 319 69 306 q 186 332 133 332 q 269 331 222 332 q 360 330 315 331 q 441 326 406 329 q 488 319 476 324 q 482 375 488 354 q 461 408 476 396 q 421 423 446 419 q 357 426 396 426 q 259 425 308 426 q 163 422 210 424 q 74 415 117 419 l 74 461 q 89 522 74 501 q 136 549 104 543 q 238 558 171 556 q 386 560 306 561 q 556 550 489 560 q 661 514 624 540 q 713 437 699 488 q 728 304 728 386 l 728 31 q 603 3 700 13 q 364 -6 507 -6 m 363 94 q 414 96 390 94 q 456 100 438 97 q 488 107 475 103 l 488 244 q 448 249 474 247 q 399 253 422 251 q 364 254 375 254 q 325 249 340 254 q 303 226 310 243 q 297 176 297 210 q 303 128 297 146 q 322 102 308 110 q 363 94 336 94 m 828 -7 q 659 4 725 -7 q 556 44 593 15 q 504 125 519 72 q 489 260 489 178 q 521 435 489 371 q 633 528 553 500 q 856 557 713 557 q 1034 535 968 557 q 1128 467 1100 513 q 1157 349 1157 421 l 1157 231 l 774 231 q 788 288 774 265 q 844 311 803 311 l 936 311 l 936 338 q 917 407 935 383 q 846 431 900 431 q 778 417 801 431 q 747 369 756 404 q 739 265 739 333 q 750 178 739 207 q 792 141 761 150 q 883 132 824 132 q 949 133 907 132 q 1037 135 992 135 q 1117 138 1082 136 q 1158 142 1151 140 l 1158 113 q 1152 66 1158 92 q 1131 26 1146 40 q 1035 -1 1107 4 q 828 -7 963 -7 z "},"ǽ":{"ha":1228,"x_min":42,"x_max":1157,"o":"m 364 -6 q 197 -1 261 -6 q 100 22 133 4 q 54 72 67 39 q 42 160 42 106 q 56 268 42 231 q 101 319 69 306 q 186 332 133 332 q 269 331 222 332 q 360 330 315 331 q 441 326 406 329 q 488 319 476 324 q 482 375 488 354 q 461 408 476 396 q 421 423 446 419 q 357 426 396 426 q 259 425 308 426 q 163 422 210 424 q 74 415 117 419 l 74 461 q 89 522 74 501 q 136 549 104 543 q 238 558 171 556 q 386 560 306 561 q 556 550 489 560 q 661 514 624 540 q 713 437 699 488 q 728 304 728 386 l 728 31 q 603 3 700 13 q 364 -6 507 -6 m 363 94 q 414 96 390 94 q 456 100 438 97 q 488 107 475 103 l 488 244 q 448 249 474 247 q 399 253 422 251 q 364 254 375 254 q 325 249 340 254 q 303 226 310 243 q 297 176 297 210 q 303 128 297 146 q 322 102 308 110 q 363 94 336 94 m 828 -7 q 659 4 725 -7 q 556 44 593 15 q 504 125 519 72 q 489 260 489 178 q 521 435 489 371 q 633 528 553 500 q 856 557 713 557 q 1034 535 968 557 q 1128 467 1100 513 q 1157 349 1157 421 l 1157 231 l 774 231 q 788 288 774 265 q 844 311 803 311 l 936 311 l 936 338 q 917 407 935 383 q 846 431 900 431 q 778 417 801 431 q 747 369 756 404 q 739 265 739 333 q 750 178 739 207 q 792 141 761 150 q 883 132 824 132 q 949 133 907 132 q 1037 135 992 135 q 1117 138 1082 136 q 1158 142 1151 140 l 1158 113 q 1152 66 1158 92 q 1131 26 1146 40 q 1035 -1 1107 4 q 828 -7 963 -7 m 549 639 l 751 826 l 861 765 l 649 639 l 549 639 z "},"à":{"ha":768,"x_min":42,"x_max":728,"o":"m 364 -6 q 197 -1 261 -6 q 100 22 133 4 q 54 72 67 39 q 42 160 42 106 q 56 268 42 231 q 101 319 69 306 q 186 332 133 332 q 269 331 222 332 q 360 330 315 331 q 441 326 406 329 q 488 319 476 324 q 482 375 488 354 q 461 408 476 396 q 421 423 446 419 q 357 426 396 426 q 259 425 308 426 q 163 422 210 424 q 74 415 117 419 l 74 461 q 89 522 74 501 q 136 549 104 543 q 238 558 171 556 q 386 560 306 561 q 556 550 489 560 q 661 514 624 540 q 713 437 699 488 q 728 304 728 386 l 728 31 q 603 3 700 13 q 364 -6 507 -6 m 363 94 q 414 96 390 94 q 456 100 438 97 q 488 107 475 103 l 488 244 q 448 249 474 247 q 399 253 422 251 q 364 254 375 254 q 325 249 340 254 q 303 226 310 243 q 297 176 297 210 q 303 128 297 146 q 322 102 308 110 q 363 94 336 94 m 382 639 l 169 765 l 279 826 l 482 639 l 382 639 z "},"ả":{"ha":768,"x_min":42,"x_max":728,"o":"m 364 -6 q 197 -1 261 -6 q 100 22 133 4 q 54 72 67 39 q 42 160 42 106 q 56 268 42 231 q 101 319 69 306 q 186 332 133 332 q 269 331 222 332 q 360 330 315 331 q 441 326 406 329 q 488 319 476 324 q 482 375 488 354 q 461 408 476 396 q 421 423 446 419 q 357 426 396 426 q 259 425 308 426 q 163 422 210 424 q 74 415 117 419 l 74 461 q 89 522 74 501 q 136 549 104 543 q 238 558 171 556 q 386 560 306 561 q 556 550 489 560 q 661 514 624 540 q 713 437 699 488 q 728 304 728 386 l 728 31 q 603 3 700 13 q 364 -6 507 -6 m 363 94 q 414 96 390 94 q 456 100 438 97 q 488 107 475 103 l 488 244 q 448 249 474 247 q 399 253 422 251 q 364 254 375 254 q 325 249 340 254 q 303 226 310 243 q 297 176 297 210 q 303 128 297 146 q 322 102 308 110 q 363 94 336 94 m 347 638 l 347 656 q 359 684 347 676 q 383 699 371 692 q 394 722 394 706 l 394 736 q 391 760 394 753 q 374 768 388 768 q 358 760 363 768 q 353 739 354 753 l 272 751 q 382 835 276 835 q 472 815 442 835 q 501 744 501 796 l 501 739 q 488 694 501 708 q 460 671 474 679 q 446 647 446 663 l 446 638 l 347 638 z "},"ȃ":{"ha":768,"x_min":42,"x_max":728,"o":"m 386 828 q 496 812 458 828 q 547 754 533 796 q 561 635 561 713 l 471 635 q 456 714 471 690 q 386 738 442 738 q 317 715 335 738 q 300 635 300 692 l 208 635 q 222 753 208 711 q 274 811 235 794 q 386 828 313 828 m 364 -6 q 197 -1 261 -6 q 100 22 133 4 q 54 72 67 39 q 42 160 42 106 q 56 268 42 231 q 101 319 69 306 q 186 332 133 332 q 269 331 222 332 q 360 330 315 331 q 441 326 406 329 q 488 319 476 324 q 482 375 488 354 q 461 408 476 396 q 421 423 446 419 q 357 426 396 426 q 259 425 308 426 q 163 422 210 424 q 74 415 117 419 l 74 461 q 89 522 74 501 q 136 549 104 543 q 238 558 171 556 q 386 560 306 561 q 556 550 489 560 q 661 514 624 540 q 713 437 699 488 q 728 304 728 386 l 728 31 q 603 3 700 13 q 364 -6 507 -6 m 363 94 q 414 96 390 94 q 456 100 438 97 q 488 107 475 103 l 488 244 q 448 249 474 247 q 399 253 422 251 q 364 254 375 254 q 325 249 340 254 q 303 226 310 243 q 297 176 297 210 q 303 128 297 146 q 322 102 308 110 q 363 94 336 94 z "},"ā":{"ha":768,"x_min":42,"x_max":728,"o":"m 364 -6 q 197 -1 261 -6 q 100 22 133 4 q 54 72 67 39 q 42 160 42 106 q 56 268 42 231 q 101 319 69 306 q 186 332 133 332 q 269 331 222 332 q 360 330 315 331 q 441 326 406 329 q 488 319 476 324 q 482 375 488 354 q 461 408 476 396 q 421 423 446 419 q 357 426 396 426 q 259 425 308 426 q 163 422 210 424 q 74 415 117 419 l 74 461 q 89 522 74 501 q 136 549 104 543 q 238 558 171 556 q 386 560 306 561 q 556 550 489 560 q 661 514 624 540 q 713 437 699 488 q 728 304 728 386 l 728 31 q 603 3 700 13 q 364 -6 507 -6 m 363 94 q 414 96 390 94 q 456 100 438 97 q 488 107 475 103 l 488 244 q 448 249 474 247 q 399 253 422 251 q 364 254 375 254 q 325 249 340 254 q 303 226 310 243 q 297 176 297 210 q 303 128 297 146 q 322 102 308 110 q 363 94 336 94 m 179 639 l 179 735 l 592 735 l 592 639 l 179 639 z "},"&":{"ha":968,"x_min":51,"x_max":922,"o":"m 922 -25 q 851 12 888 -7 q 778 50 815 31 q 723 16 758 26 q 633 1 688 6 q 481 -6 558 -3 q 335 -6 404 -8 q 211 1 265 -3 q 120 25 156 7 q 68 81 85 43 q 51 186 51 119 q 62 270 51 231 q 96 337 72 310 q 158 369 119 364 q 108 408 124 378 q 93 500 93 439 q 103 560 93 536 q 131 600 113 585 q 174 624 149 615 q 232 635 200 632 q 357 644 289 643 q 492 644 425 646 q 610 639 560 642 q 702 626 664 636 q 760 588 740 617 q 781 494 781 558 q 711 513 753 508 q 628 519 669 518 q 561 521 588 521 q 503 519 539 521 q 431 512 467 518 q 370 490 394 506 q 346 447 346 475 q 367 397 346 419 q 444 344 388 374 l 539 288 l 539 381 q 658 376 604 381 q 749 353 713 372 q 797 292 785 335 q 801 255 799 278 q 803 208 803 232 q 804 163 804 185 l 922 104 l 922 -25 m 356 278 q 349 257 351 269 q 345 232 346 244 q 344 207 344 219 q 357 147 344 167 q 401 121 369 126 q 421 118 411 119 q 441 117 431 117 q 461 119 451 118 q 490 124 474 121 q 519 138 506 128 q 538 172 533 149 q 447 226 492 200 q 356 278 401 253 z "},"ą":{"ha":768,"x_min":42,"x_max":728,"o":"m 364 -6 q 197 -1 261 -6 q 100 22 133 4 q 54 72 67 39 q 42 160 42 106 q 56 268 42 231 q 101 319 69 306 q 186 332 133 332 q 269 331 222 332 q 360 330 315 331 q 441 326 406 329 q 488 319 476 324 q 482 375 488 354 q 461 408 476 396 q 421 423 446 419 q 357 426 396 426 q 259 425 308 426 q 163 422 210 424 q 74 415 117 419 l 74 461 q 89 522 74 501 q 136 549 104 543 q 238 558 171 556 q 386 560 306 561 q 556 550 489 560 q 661 514 624 540 q 713 437 699 488 q 728 304 728 386 l 728 31 q 603 3 700 13 q 364 -6 507 -6 m 363 94 q 414 96 390 94 q 456 100 438 97 q 488 107 475 103 l 488 244 q 448 249 474 247 q 399 253 422 251 q 364 254 375 254 q 325 249 340 254 q 303 226 310 243 q 297 176 297 210 q 303 128 297 146 q 322 102 308 110 q 363 94 336 94 m 585 -261 q 498 -247 528 -261 q 458 -206 468 -232 q 447 -146 447 -181 q 460 -88 447 -114 q 494 -42 474 -62 q 535 -8 514 -21 q 574 14 557 6 l 685 14 q 651 -3 672 10 q 608 -34 631 -17 q 570 -72 586 -51 q 554 -114 554 -93 q 576 -161 554 -153 q 631 -169 599 -169 q 674 -169 663 -169 q 689 -167 686 -168 q 694 -167 692 -167 q 688 -220 694 -199 q 657 -251 681 -242 q 585 -261 633 -261 z "},"ʼ":{"ha":199,"x_min":0,"x_max":199,"o":"m 60 763 l 199 763 l 108 554 l 0 554 l 60 763 z "},"":{"ha":549,"x_min":72,"x_max":481,"o":"m 385 464 q 380 442 383 453 q 369 422 376 432 q 336 389 356 400 q 286 375 314 375 q 285 389 285 381 q 286 410 285 397 q 306 456 290 435 q 344 490 321 478 q 376 497 368 501 q 385 464 388 485 m 481 133 q 474 112 478 124 q 464 89 469 100 q 436 47 453 64 q 403 15 421 26 q 385 6 394 10 q 367 3 376 3 q 338 8 347 3 q 329 13 333 11 q 322 17 325 15 q 283 25 308 25 q 244 17 260 25 q 229 8 240 13 q 200 3 219 3 q 165 18 181 3 q 151 33 160 25 q 132 53 142 42 q 114 79 122 65 q 99 110 106 93 q 76 181 83 142 q 74 216 75 197 q 74 253 72 235 q 93 317 76 286 q 108 340 100 331 q 126 358 117 350 q 161 378 147 374 q 177 382 169 381 q 192 383 185 383 q 210 381 207 383 q 221 378 214 381 q 233 374 228 376 l 263 364 q 286 361 276 360 q 294 362 290 361 q 304 364 299 363 l 333 374 q 347 378 342 376 q 356 381 351 381 l 374 385 q 403 381 386 385 q 419 376 411 379 q 438 365 428 372 q 468 332 453 356 q 431 296 447 319 q 414 228 410 268 q 435 171 414 199 q 481 133 454 146 z "},"≈":{"ha":490,"x_min":51,"x_max":451,"o":"m 51 129 q 74 169 64 150 q 96 206 85 188 q 120 231 107 219 q 153 246 133 242 q 190 246 165 250 q 240 235 214 242 q 288 224 265 229 q 332 213 311 218 q 363 210 350 210 q 382 213 375 211 q 409 219 399 213 q 424 240 419 226 q 437 238 431 239 q 451 235 443 236 q 438 213 447 228 q 421 183 428 197 q 410 167 414 169 q 390 141 400 151 q 361 124 379 131 q 328 125 347 124 q 288 131 308 126 q 238 144 263 138 q 189 154 214 150 q 128 163 146 164 q 90 129 93 160 q 74 130 83 131 q 51 129 64 129 m 51 307 q 74 347 64 328 q 96 383 85 365 q 120 408 107 397 q 153 424 133 419 q 190 423 165 426 q 242 413 215 419 q 287 401 263 407 q 332 390 311 396 q 363 389 350 389 q 382 390 375 389 q 409 397 399 390 q 424 418 419 404 q 438 415 431 417 q 451 414 444 414 q 438 390 447 406 q 421 362 428 375 q 410 344 414 349 q 389 319 400 329 q 361 303 378 308 q 330 303 349 301 q 290 308 311 304 q 239 322 264 315 q 189 332 214 328 q 129 340 146 342 q 90 308 93 339 q 74 308 83 308 q 51 307 64 308 z "},"å":{"ha":768,"x_min":42,"x_max":728,"o":"m 364 -6 q 197 -1 261 -6 q 100 22 133 4 q 54 72 67 39 q 42 160 42 106 q 56 268 42 231 q 101 319 69 306 q 186 332 133 332 q 269 331 222 332 q 360 330 315 331 q 441 326 406 329 q 488 319 476 324 q 482 375 488 354 q 461 408 476 396 q 421 423 446 419 q 357 426 396 426 q 259 425 308 426 q 163 422 210 424 q 74 415 117 419 l 74 461 q 89 522 74 501 q 136 549 104 543 q 238 558 171 556 q 386 560 306 561 q 556 550 489 560 q 661 514 624 540 q 713 437 699 488 q 728 304 728 386 l 728 31 q 603 3 700 13 q 364 -6 507 -6 m 363 94 q 414 96 390 94 q 456 100 438 97 q 488 107 475 103 l 488 244 q 448 249 474 247 q 399 253 422 251 q 364 254 375 254 q 325 249 340 254 q 303 226 310 243 q 297 176 297 210 q 303 128 297 146 q 322 102 308 110 q 363 94 336 94 m 383 629 q 277 652 317 629 q 238 739 238 675 q 277 822 238 801 q 386 843 317 843 q 497 822 456 843 q 538 739 538 801 q 496 652 538 675 q 383 629 454 629 m 386 693 q 429 701 414 693 q 444 739 444 710 q 429 772 444 764 q 386 779 414 779 q 344 772 360 779 q 328 739 328 764 q 343 701 328 710 q 386 693 358 693 z "},"ǻ":{"ha":768,"x_min":42,"x_max":728,"o":"m 364 -6 q 197 -1 261 -6 q 100 22 133 4 q 54 72 67 39 q 42 160 42 106 q 56 268 42 231 q 101 319 69 306 q 186 332 133 332 q 269 331 222 332 q 360 330 315 331 q 441 326 406 329 q 488 319 476 324 q 482 375 488 354 q 461 408 476 396 q 421 423 446 419 q 357 426 396 426 q 259 425 308 426 q 163 422 210 424 q 74 415 117 419 l 74 461 q 89 522 74 501 q 136 549 104 543 q 238 558 171 556 q 386 560 306 561 q 556 550 489 560 q 661 514 624 540 q 713 437 699 488 q 728 304 728 386 l 728 31 q 603 3 700 13 q 364 -6 507 -6 m 363 94 q 414 96 390 94 q 456 100 438 97 q 488 107 475 103 l 488 244 q 448 249 474 247 q 399 253 422 251 q 364 254 375 254 q 325 249 340 254 q 303 226 310 243 q 297 176 297 210 q 303 128 297 146 q 322 102 308 110 q 363 94 336 94 m 383 629 q 277 652 317 629 q 238 739 238 675 q 277 822 238 801 q 386 843 317 843 q 497 822 456 843 q 538 739 538 801 q 496 652 538 675 q 383 629 454 629 m 386 693 q 429 701 414 693 q 444 739 444 710 q 429 772 444 764 q 386 779 414 779 q 344 772 360 779 q 328 739 328 764 q 343 701 328 710 q 386 693 358 693 m 319 886 l 522 1074 l 632 1013 l 419 886 l 319 886 z "},"^":{"ha":581,"x_min":50,"x_max":531,"o":"m 153 318 l 50 318 l 232 639 l 347 639 l 531 318 l 421 318 l 292 517 l 153 318 z "},"~":{"ha":604,"x_min":51,"x_max":553,"o":"m 51 674 q 62 688 51 674 q 90 722 72 703 q 133 758 108 742 q 183 776 157 774 q 240 769 211 779 q 300 745 269 758 q 360 722 331 732 q 415 715 389 713 q 451 730 432 718 q 488 756 471 742 q 510 776 504 769 l 553 711 q 542 697 553 711 q 514 664 532 683 q 472 628 496 644 q 419 608 447 613 q 363 615 393 606 q 303 638 333 625 q 244 661 272 651 q 188 669 215 671 q 153 656 172 668 q 117 629 133 643 q 94 608 100 615 l 51 674 z "},"*":{"ha":710,"x_min":56,"x_max":661,"o":"m 478 140 l 360 342 l 240 140 l 128 222 l 283 396 l 56 444 l 99 578 l 313 482 l 290 717 l 428 717 l 404 483 l 619 578 l 661 446 l 433 396 l 589 222 l 478 140 z "},"@":{"ha":1126,"x_min":58,"x_max":1069,"o":"m 556 579 q 373 569 446 579 q 256 527 300 558 q 194 433 213 496 q 175 268 175 371 q 193 131 175 182 q 249 53 211 79 q 342 17 286 26 q 476 8 399 8 q 644 13 556 7 q 817 28 732 18 q 967 54 901 39 q 1069 90 1033 69 q 1069 39 1069 64 q 1069 -12 1069 14 q 963 -42 1022 -29 q 834 -62 903 -54 q 693 -75 765 -71 q 577 -80 646 -76 q 432 -81 508 -83 q 284 -65 356 -79 q 160 -21 213 -51 q 88 63 107 10 q 65 147 71 99 q 58 258 58 196 q 83 476 58 396 q 165 597 108 557 q 315 648 222 636 q 546 660 408 660 q 751 653 660 660 q 907 622 842 647 q 1008 538 972 597 q 1047 374 1044 479 q 1042 261 1050 311 q 1011 176 1033 211 q 951 121 989 140 q 853 100 913 101 q 794 103 824 100 q 740 126 764 107 q 703 185 717 144 q 685 145 700 163 q 650 121 671 128 q 576 109 619 113 q 490 106 533 106 q 368 119 415 106 q 298 172 321 132 q 275 296 275 213 q 309 416 275 376 q 413 468 343 456 q 586 481 482 481 q 642 478 607 481 q 715 474 678 476 q 782 469 753 472 q 821 465 811 467 q 818 442 819 460 q 817 400 817 424 q 817 308 817 354 q 817 218 817 263 q 831 185 817 194 q 863 178 846 176 q 906 203 892 178 q 925 269 921 228 q 929 360 929 311 q 901 483 929 439 q 824 547 874 526 q 706 574 774 568 q 556 579 639 579 m 628 372 q 610 375 622 374 q 582 377 597 376 q 553 378 567 378 q 510 372 529 378 q 481 349 490 365 q 471 304 471 333 q 478 239 471 258 q 503 215 486 219 q 549 210 521 210 q 573 212 560 210 q 599 222 586 214 q 619 245 611 229 q 628 288 628 261 l 628 372 z "},"ã":{"ha":768,"x_min":42,"x_max":728,"o":"m 364 -6 q 197 -1 261 -6 q 100 22 133 4 q 54 72 67 39 q 42 160 42 106 q 56 268 42 231 q 101 319 69 306 q 186 332 133 332 q 269 331 222 332 q 360 330 315 331 q 441 326 406 329 q 488 319 476 324 q 482 375 488 354 q 461 408 476 396 q 421 423 446 419 q 357 426 396 426 q 259 425 308 426 q 163 422 210 424 q 74 415 117 419 l 74 461 q 89 522 74 501 q 136 549 104 543 q 238 558 171 556 q 386 560 306 561 q 556 550 489 560 q 661 514 624 540 q 713 437 699 488 q 728 304 728 386 l 728 31 q 603 3 700 13 q 364 -6 507 -6 m 363 94 q 414 96 390 94 q 456 100 438 97 q 488 107 475 103 l 488 244 q 448 249 474 247 q 399 253 422 251 q 364 254 375 254 q 325 249 340 254 q 303 226 310 243 q 297 176 297 210 q 303 128 297 146 q 322 102 308 110 q 363 94 336 94 m 469 640 q 414 654 440 639 q 362 685 388 669 q 307 700 336 701 q 263 682 279 700 q 242 657 247 664 l 199 694 q 206 711 199 696 q 227 747 214 726 q 260 784 240 768 q 307 800 281 800 q 363 786 336 801 q 415 756 389 771 q 467 740 440 740 q 517 758 499 740 q 542 789 535 776 l 585 756 q 577 738 585 756 q 555 699 569 721 q 519 658 540 676 q 469 640 497 640 z "},"b":{"ha":767,"x_min":54,"x_max":728,"o":"m 383 -7 q 217 3 282 -7 q 117 42 153 14 q 69 125 82 71 q 56 268 56 179 l 54 701 l 300 701 l 300 551 q 325 553 310 551 q 360 554 340 554 q 404 555 381 554 q 453 556 428 556 q 622 529 563 556 q 704 440 681 503 q 728 271 728 378 q 708 122 728 178 q 647 39 688 67 q 540 2 606 11 q 383 -7 474 -7 m 386 124 q 446 133 426 124 q 472 177 465 143 q 478 282 478 211 q 468 370 476 340 q 438 412 460 400 q 378 424 417 424 q 358 424 369 424 q 337 423 347 424 q 317 422 326 422 q 300 422 307 422 l 300 235 q 304 176 300 199 q 317 142 308 154 q 343 127 326 131 q 386 124 360 124 z "},"\\":{"ha":692,"x_min":103,"x_max":536,"o":"m 372 74 l 103 654 l 268 654 l 536 74 l 372 74 z "},"|":{"ha":461,"x_min":115,"x_max":346,"o":"m 346 639 l 346 -221 l 115 -221 l 115 639 l 346 639 z "},"{":{"ha":628,"x_min":50,"x_max":578,"o":"m 426 133 q 456 51 426 72 q 531 29 486 29 q 553 29 540 29 q 578 29 565 29 q 578 7 578 26 q 578 -31 578 -12 q 578 -53 578 -49 q 367 -49 451 -53 q 235 -28 283 -46 q 165 30 186 -11 q 144 144 144 71 q 139 245 144 214 q 113 285 133 276 q 50 294 93 294 q 50 315 50 297 q 50 349 50 332 q 50 369 50 367 q 118 381 99 369 q 141 425 138 392 q 144 528 144 458 q 173 642 144 601 q 256 701 201 683 q 391 722 310 718 q 578 725 472 725 q 578 703 578 722 q 578 666 578 685 q 578 643 578 647 l 515 643 q 449 624 472 643 q 426 539 426 606 l 426 501 q 410 409 426 446 q 366 353 393 372 q 310 333 339 333 q 366 315 339 333 q 410 265 393 297 q 426 185 426 232 l 426 133 z "},"}":{"ha":628,"x_min":50,"x_max":578,"o":"m 201 133 l 201 185 q 220 265 201 232 q 267 315 239 297 q 324 333 294 333 q 267 353 296 333 q 220 409 239 372 q 201 501 201 446 l 201 539 q 179 624 201 606 q 113 643 157 643 l 50 643 q 50 666 50 647 q 50 703 50 685 q 50 725 50 722 q 236 722 156 725 q 372 701 317 718 q 455 642 426 683 q 483 528 483 601 q 487 425 483 458 q 510 381 490 392 q 578 369 529 369 q 578 349 578 367 q 578 315 578 332 q 578 294 578 297 q 513 285 533 294 q 488 245 493 276 q 483 144 483 214 q 463 30 483 71 q 393 -28 442 -11 q 260 -49 344 -46 q 50 -53 176 -53 q 50 -31 50 -49 q 50 7 50 -12 q 50 29 50 26 q 75 29 63 29 q 97 29 88 29 q 172 51 142 29 q 201 133 201 72 z "},"[":{"ha":533,"x_min":50,"x_max":474,"o":"m 335 13 q 356 -31 335 -18 q 421 -43 376 -43 l 474 -43 l 474 -135 q 440 -135 472 -135 q 361 -136 408 -136 q 261 -136 314 -136 q 160 -136 208 -136 q 82 -136 113 -136 q 50 -136 51 -136 l 50 742 l 474 742 l 474 651 l 421 651 q 356 638 376 651 q 335 594 335 624 l 335 13 z "},"]":{"ha":533,"x_min":50,"x_max":474,"o":"m 189 594 q 168 637 189 624 q 103 650 147 650 l 50 650 l 50 742 l 474 742 l 474 -136 l 50 -136 l 50 -44 l 103 -44 q 168 -31 147 -44 q 189 13 189 -18 l 189 594 z "},"˘":{"ha":367,"x_min":0,"x_max":353,"o":"m 178 636 q 65 653 104 636 q 13 712 26 669 q 0 829 0 754 l 90 829 q 108 749 90 772 q 178 726 126 726 q 248 751 233 726 q 263 829 263 775 l 353 829 q 339 710 353 753 q 288 652 325 668 q 178 636 250 636 z "},"̮":{"ha":0,"x_min":0,"x_max":353,"o":"m 178 -257 q 65 -240 104 -257 q 13 -181 26 -224 q 0 -64 0 -139 l 90 -64 q 108 -144 90 -121 q 178 -167 126 -167 q 248 -142 233 -167 q 263 -64 263 -118 l 353 -64 q 339 -183 353 -140 q 288 -241 325 -225 q 178 -257 250 -257 z "},"̆":{"ha":0,"x_min":0,"x_max":353,"o":"m 178 636 q 65 653 104 636 q 13 712 26 669 q 0 829 0 754 l 90 829 q 108 749 90 772 q 178 726 126 726 q 248 751 233 726 q 263 829 263 775 l 353 829 q 339 710 353 753 q 288 652 325 668 q 178 636 250 636 z "},"̑":{"ha":0,"x_min":0,"x_max":353,"o":"m 178 829 q 288 813 250 829 q 339 756 325 797 q 353 636 353 714 l 263 636 q 248 715 263 692 q 178 739 233 739 q 108 716 126 739 q 90 636 90 693 l 0 636 q 13 754 0 713 q 65 813 26 796 q 178 829 104 829 z "},"¦":{"ha":340,"x_min":51,"x_max":283,"o":"m 283 146 l 283 -221 l 51 -221 l 51 146 l 283 146 m 283 639 l 283 289 l 51 289 l 51 639 l 283 639 z "},"•":{"ha":688,"x_min":85,"x_max":599,"o":"m 85 368 q 119 488 85 435 q 213 574 154 542 q 342 607 271 607 q 471 574 413 607 q 564 488 529 542 q 599 368 599 435 q 564 247 599 301 q 471 161 529 193 q 342 129 413 129 q 213 161 271 129 q 119 247 154 193 q 85 368 85 301 z "},"∙":{"ha":419,"x_min":82,"x_max":339,"o":"m 82 285 q 99 344 82 317 q 144 388 115 371 q 210 404 174 404 q 275 388 246 404 q 322 344 304 371 q 339 285 339 317 q 322 224 339 251 q 275 181 304 197 q 210 165 246 165 q 144 181 174 165 q 99 224 115 197 q 82 285 82 251 z "},"c":{"ha":676,"x_min":39,"x_max":643,"o":"m 399 -10 q 189 12 268 -10 q 74 92 110 33 q 39 263 39 151 q 74 451 39 386 q 189 539 110 515 q 399 563 268 563 q 470 559 435 563 q 558 549 506 556 q 605 535 586 546 q 633 499 624 525 q 643 421 643 472 q 597 431 628 426 q 530 437 565 435 q 465 439 494 439 q 362 424 400 439 q 308 375 324 410 q 292 281 292 340 q 308 185 292 221 q 362 135 324 150 q 465 121 400 121 q 531 124 496 121 q 597 131 567 126 q 643 140 628 135 l 643 75 q 609 17 643 35 q 520 -5 575 0 q 399 -10 465 -10 z "},"ć":{"ha":676,"x_min":39,"x_max":643,"o":"m 399 -10 q 189 12 268 -10 q 74 92 110 33 q 39 263 39 151 q 74 451 39 386 q 189 539 110 515 q 399 563 268 563 q 470 559 435 563 q 558 549 506 556 q 605 535 586 546 q 633 499 624 525 q 643 421 643 472 q 597 431 628 426 q 530 437 565 435 q 465 439 494 439 q 362 424 400 439 q 308 375 324 410 q 292 281 292 340 q 308 185 292 221 q 362 135 324 150 q 465 121 400 121 q 531 124 496 121 q 597 131 567 126 q 643 140 628 135 l 643 75 q 609 17 643 35 q 520 -5 575 0 q 399 -10 465 -10 m 307 639 l 510 826 l 619 765 l 407 639 l 307 639 z "},"ˇ":{"ha":399,"x_min":0,"x_max":379,"o":"m 0 833 l 99 833 l 188 742 l 274 833 l 379 833 l 221 639 l 156 639 l 0 833 z "},"̌":{"ha":0,"x_min":0,"x_max":379,"o":"m 0 833 l 99 833 l 188 742 l 274 833 l 379 833 l 221 639 l 156 639 l 0 833 z "},"č":{"ha":676,"x_min":39,"x_max":643,"o":"m 183 833 l 282 833 l 371 742 l 457 833 l 563 833 l 404 639 l 339 639 l 183 833 m 399 -10 q 189 12 268 -10 q 74 92 110 33 q 39 263 39 151 q 74 451 39 386 q 189 539 110 515 q 399 563 268 563 q 470 559 435 563 q 558 549 506 556 q 605 535 586 546 q 633 499 624 525 q 643 421 643 472 q 597 431 628 426 q 530 437 565 435 q 465 439 494 439 q 362 424 400 439 q 308 375 324 410 q 292 281 292 340 q 308 185 292 221 q 362 135 324 150 q 465 121 400 121 q 531 124 496 121 q 597 131 567 126 q 643 140 628 135 l 643 75 q 609 17 643 35 q 520 -5 575 0 q 399 -10 465 -10 z "},"ç":{"ha":676,"x_min":39,"x_max":643,"o":"m 399 -10 q 189 12 268 -10 q 74 92 110 33 q 39 263 39 151 q 74 451 39 386 q 189 539 110 515 q 399 563 268 563 q 470 559 435 563 q 558 549 506 556 q 605 535 586 546 q 633 499 624 525 q 643 421 643 472 q 597 431 628 426 q 530 437 565 435 q 465 439 494 439 q 362 424 400 439 q 308 375 324 410 q 292 281 292 340 q 308 185 292 221 q 362 135 324 150 q 465 121 400 121 q 531 124 496 121 q 597 131 567 126 q 643 140 628 135 l 643 75 q 609 17 643 35 q 520 -5 575 0 q 399 -10 465 -10 m 321 -246 q 255 -235 268 -246 q 242 -190 242 -225 q 259 -190 244 -190 q 306 -190 274 -190 q 356 -186 342 -190 q 369 -165 369 -182 q 356 -143 369 -147 q 306 -139 343 -139 l 243 -139 q 242 -130 243 -139 q 246 -105 240 -121 q 271 -67 251 -89 q 293 -45 282 -56 q 316 -26 304 -35 q 340 -9 328 -17 q 365 1 353 -1 l 438 1 l 363 -87 q 451 -91 422 -86 q 490 -113 481 -96 q 499 -168 499 -131 q 486 -222 499 -206 q 435 -242 474 -239 q 321 -246 397 -246 z "},"ĉ":{"ha":676,"x_min":39,"x_max":643,"o":"m 399 -10 q 189 12 268 -10 q 74 92 110 33 q 39 263 39 151 q 74 451 39 386 q 189 539 110 515 q 399 563 268 563 q 470 559 435 563 q 558 549 506 556 q 605 535 586 546 q 633 499 624 525 q 643 421 643 472 q 597 431 628 426 q 530 437 565 435 q 465 439 494 439 q 362 424 400 439 q 308 375 324 410 q 292 281 292 340 q 308 185 292 221 q 362 135 324 150 q 465 121 400 121 q 531 124 496 121 q 597 131 567 126 q 643 140 628 135 l 643 75 q 609 17 643 35 q 520 -5 575 0 q 399 -10 465 -10 m 183 639 l 339 833 l 404 833 l 563 639 l 457 639 l 371 729 l 282 639 l 183 639 z "},"ċ":{"ha":676,"x_min":39,"x_max":643,"o":"m 399 -10 q 189 12 268 -10 q 74 92 110 33 q 39 263 39 151 q 74 451 39 386 q 189 539 110 515 q 399 563 268 563 q 470 559 435 563 q 558 549 506 556 q 605 535 586 546 q 633 499 624 525 q 643 421 643 472 q 597 431 628 426 q 530 437 565 435 q 465 439 494 439 q 362 424 400 439 q 308 375 324 410 q 292 281 292 340 q 308 185 292 221 q 362 135 324 150 q 465 121 400 121 q 531 124 496 121 q 597 131 567 126 q 643 140 628 135 l 643 75 q 609 17 643 35 q 520 -5 575 0 q 399 -10 465 -10 m 374 635 q 311 644 335 635 q 288 692 288 653 q 313 739 288 729 q 376 749 339 749 q 435 738 413 749 q 457 692 457 728 q 435 644 457 653 q 374 635 413 635 z "},"₵":{"ha":883,"x_min":35,"x_max":843,"o":"m 319 -106 l 536 728 l 710 728 l 492 -106 l 319 -106 m 35 319 q 58 479 35 415 q 138 579 82 543 q 290 630 194 615 q 526 644 385 644 q 633 641 583 644 q 739 631 683 638 q 823 599 803 622 q 843 533 843 576 l 843 449 q 742 475 797 465 q 633 490 686 485 q 538 496 579 496 q 411 485 461 496 q 338 437 361 475 q 315 318 315 399 q 340 204 315 242 q 417 155 364 167 q 558 143 471 143 q 640 147 597 143 q 733 160 683 151 q 843 182 782 169 l 843 104 q 822 40 843 65 q 733 8 800 15 q 626 -3 679 0 q 515 -7 572 -7 q 279 8 372 -7 q 133 60 186 24 q 57 159 79 96 q 35 319 35 222 z "},"¸":{"ha":343,"x_min":3,"x_max":261,"o":"m 83 -246 q 17 -235 31 -246 q 4 -190 4 -225 q 22 -190 7 -190 q 68 -190 36 -190 q 118 -186 104 -190 q 132 -165 132 -182 q 119 -143 132 -147 q 68 -139 106 -139 l 6 -139 q 4 -130 6 -139 q 8 -105 3 -121 q 33 -67 14 -89 q 56 -45 44 -56 q 78 -26 67 -35 q 103 -9 90 -17 q 128 1 115 -1 l 200 1 l 125 -87 q 214 -91 185 -86 q 252 -113 243 -96 q 261 -168 261 -131 q 249 -222 261 -206 q 198 -242 236 -239 q 83 -246 160 -246 z "},"̧":{"ha":0,"x_min":3,"x_max":261,"o":"m 83 -246 q 17 -235 31 -246 q 4 -190 4 -225 q 22 -190 7 -190 q 68 -190 36 -190 q 118 -186 104 -190 q 132 -165 132 -182 q 119 -143 132 -147 q 68 -139 106 -139 l 6 -139 q 4 -130 6 -139 q 8 -105 3 -121 q 33 -67 14 -89 q 56 -45 44 -56 q 78 -26 67 -35 q 103 -9 90 -17 q 128 1 115 -1 l 200 1 l 125 -87 q 214 -91 185 -86 q 252 -113 243 -96 q 261 -168 261 -131 q 249 -222 261 -206 q 198 -242 236 -239 q 83 -246 160 -246 z "},"¢":{"ha":781,"x_min":39,"x_max":747,"o":"m 411 75 q 226 91 299 75 q 112 141 153 107 q 55 231 71 175 q 39 364 39 286 q 74 526 40 464 q 186 615 107 588 q 401 643 265 643 q 584 630 515 643 q 686 590 653 617 q 731 523 719 564 q 742 429 742 482 l 543 429 q 513 518 544 490 q 421 546 482 546 q 343 529 376 546 q 294 472 310 513 q 278 364 278 432 q 294 251 279 292 q 342 195 310 211 q 428 179 375 179 q 493 192 468 179 q 531 231 518 204 q 543 300 543 258 l 747 300 q 733 194 747 238 q 684 124 719 151 q 583 86 649 97 q 411 75 517 75 m 221 0 l 526 726 l 601 726 l 296 0 l 221 0 z "},"":{"ha":786,"x_min":39,"x_max":747,"o":"m 411 -18 q 226 -2 299 -18 q 112 48 153 14 q 55 138 71 82 q 39 271 39 193 q 74 433 40 371 q 186 522 107 494 q 401 550 265 550 q 584 537 515 550 q 686 497 653 524 q 731 430 719 471 q 742 336 742 389 l 543 336 q 513 425 544 397 q 421 453 482 453 q 343 436 376 453 q 294 379 310 419 q 278 271 278 339 q 294 158 279 199 q 342 102 310 118 q 428 86 375 86 q 493 99 468 86 q 531 138 518 111 q 543 207 543 165 l 747 207 q 733 101 747 144 q 684 31 719 58 q 583 -7 649 4 q 411 -18 517 -18 m 221 -93 l 526 633 l 601 633 l 296 -93 l 221 -93 z "},"":{"ha":610,"x_min":36,"x_max":567,"o":"m 315 56 q 176 67 231 56 q 90 106 121 79 q 48 173 60 132 q 36 272 36 214 q 62 392 36 346 q 147 460 88 439 q 307 482 206 482 q 444 472 393 482 q 520 442 494 463 q 554 391 546 421 q 563 322 563 361 l 414 322 q 391 388 415 368 q 322 408 367 408 q 263 396 288 408 q 226 353 239 383 q 214 272 214 324 q 227 188 215 218 q 263 147 239 158 q 328 135 288 135 q 376 144 357 135 q 404 174 394 154 q 414 225 414 193 l 567 225 q 556 146 567 178 q 519 94 546 114 q 443 65 493 74 q 315 56 393 56 m 172 0 l 401 543 l 457 543 l 229 0 l 172 0 z "},"":{"ha":599,"x_min":42,"x_max":549,"o":"m 310 406 q 176 417 228 406 q 94 453 124 428 q 53 517 65 478 q 42 611 42 556 q 67 727 43 683 q 148 791 92 771 q 301 811 204 811 q 432 802 383 811 q 505 774 481 793 q 538 726 529 754 q 546 660 546 697 l 403 660 q 382 722 404 701 q 315 742 360 742 q 260 730 283 742 q 224 689 236 718 q 213 611 213 660 q 225 530 214 558 q 259 490 236 501 q 321 479 282 479 q 367 488 349 479 q 394 517 386 497 q 403 565 403 536 l 549 565 q 539 490 549 521 q 503 441 529 460 q 431 414 478 422 q 310 406 383 406 m 172 351 l 390 871 l 444 871 l 226 351 l 172 351 z "},"ˆ":{"ha":399,"x_min":0,"x_max":379,"o":"m 0 639 l 156 833 l 221 833 l 379 639 l 274 639 l 188 729 l 99 639 l 0 639 z "},"̂":{"ha":0,"x_min":0,"x_max":379,"o":"m 0 639 l 156 833 l 221 833 l 379 639 l 274 639 l 188 729 l 99 639 l 0 639 z "},":":{"ha":349,"x_min":54,"x_max":293,"o":"m 56 74 q 91 138 56 125 q 179 151 126 151 q 263 138 232 151 q 293 74 293 124 q 278 20 293 36 q 238 0 264 4 q 175 -4 211 -4 q 113 0 140 -4 q 71 20 86 4 q 56 74 56 36 m 54 438 q 71 488 54 472 q 116 509 88 504 q 179 514 144 514 q 263 501 232 514 q 293 438 293 488 q 278 383 293 400 q 238 363 264 367 q 175 358 211 358 q 113 363 139 358 q 70 383 86 367 q 54 438 54 400 z "},"₡":{"ha":883,"x_min":35,"x_max":843,"o":"m 35 319 q 58 479 35 415 q 138 579 82 543 q 290 630 194 615 q 526 644 385 644 q 633 641 583 644 q 739 631 683 638 q 823 599 803 622 q 843 533 843 576 l 843 449 q 742 475 797 465 q 633 490 686 485 q 538 496 579 496 q 411 485 461 496 q 338 437 361 475 q 315 318 315 399 q 340 204 315 242 q 417 155 364 167 q 558 143 471 143 q 640 147 597 143 q 733 160 683 151 q 843 182 782 169 l 843 104 q 822 40 843 65 q 733 8 800 15 q 626 -3 679 0 q 515 -7 572 -7 q 279 8 372 -7 q 133 60 186 24 q 57 159 79 96 q 35 319 35 222 m 303 -106 l 522 728 l 619 728 l 400 -106 l 303 -106 m 467 -106 l 686 728 l 783 728 l 564 -106 l 467 -106 z "},",":{"ha":367,"x_min":54,"x_max":313,"o":"m 54 -182 q 107 -90 81 -136 q 157 0 133 -43 q 146 1 151 0 q 135 1 140 1 q 87 19 106 4 q 68 74 68 35 q 85 125 68 108 q 132 147 103 142 q 197 151 161 151 q 282 138 251 151 q 313 74 313 125 q 293 -11 313 38 q 247 -106 274 -60 q 196 -182 219 -151 l 54 -182 z "},"̦":{"ha":0,"x_min":1,"x_max":201,"o":"m 1 -382 q 31 -329 18 -351 q 54 -286 43 -307 q 81 -237 65 -265 q 69 -237 75 -237 q 56 -235 63 -236 q 19 -217 35 -231 q 3 -162 3 -203 q 33 -99 3 -112 q 115 -86 63 -86 q 156 -91 138 -86 q 188 -112 175 -96 q 201 -162 201 -129 q 188 -237 201 -199 q 152 -314 174 -276 q 106 -382 131 -351 l 1 -382 z "},"":{"ha":386,"x_min":83,"x_max":303,"o":"m 83 -183 q 129 -105 107 -144 q 169 -28 151 -65 q 162 -27 167 -28 q 151 -26 157 -26 q 110 -11 126 -24 q 94 35 94 1 q 110 78 94 65 q 150 97 125 92 q 204 101 175 101 q 277 90 251 101 q 303 35 303 78 q 287 -37 303 4 q 247 -117 271 -78 q 203 -183 224 -157 l 83 -183 z "},"":{"ha":411,"x_min":78,"x_max":336,"o":"m 78 183 q 131 276 104 229 q 181 365 157 322 q 169 366 175 365 q 158 367 164 367 q 110 385 129 369 q 92 439 92 400 q 109 490 92 474 q 156 512 126 507 q 221 517 185 517 q 306 503 275 517 q 336 439 336 490 q 317 354 336 403 q 270 260 297 306 q 219 183 243 214 l 78 183 z "},"̒":{"ha":0,"x_min":0,"x_max":200,"o":"m 85 639 q 45 644 65 639 q 13 667 25 650 q 0 717 0 683 q 13 792 0 753 q 49 868 26 831 q 94 935 71 906 l 200 935 q 171 884 183 906 q 147 841 158 863 q 121 790 136 819 q 134 790 128 790 q 146 788 140 789 q 183 770 167 785 q 199 715 199 756 q 169 652 199 665 q 85 639 140 639 z "},"⁒":{"ha":858,"x_min":82,"x_max":818,"o":"m 561 190 q 578 249 561 222 q 625 293 596 276 q 690 310 654 310 q 755 293 726 310 q 801 249 783 276 q 818 190 818 222 q 801 130 818 157 q 755 87 783 103 q 690 71 726 71 q 625 87 654 71 q 578 130 596 103 q 561 190 561 157 m 82 503 q 99 562 82 535 q 144 606 115 589 q 210 622 174 622 q 275 606 246 622 q 322 562 304 589 q 339 503 339 535 q 322 442 339 469 q 275 399 304 415 q 210 383 246 383 q 144 399 174 383 q 99 442 115 415 q 82 503 82 469 m 181 -53 l 544 781 l 717 781 l 353 -53 l 181 -53 z "},"©":{"ha":813,"x_min":49,"x_max":764,"o":"m 49 342 q 97 515 49 440 q 227 631 146 590 q 407 672 308 672 q 588 631 507 672 q 716 515 668 590 q 764 342 764 440 q 716 165 764 243 q 588 42 668 88 q 407 -3 507 -3 q 227 42 308 -3 q 97 165 146 88 q 49 342 49 243 m 128 342 q 165 204 128 264 q 266 110 203 144 q 407 75 329 75 q 545 110 482 75 q 645 204 608 144 q 682 342 682 264 q 645 476 682 419 q 545 563 608 532 q 407 593 482 593 q 266 563 329 593 q 165 476 203 532 q 128 342 128 419 m 418 497 q 506 492 468 497 q 565 467 543 486 q 586 408 586 447 q 586 397 586 403 q 586 383 586 390 l 483 383 q 481 405 483 396 q 475 421 479 414 q 453 441 469 435 q 413 447 438 447 q 373 440 392 447 q 349 414 354 433 q 340 384 343 401 q 336 349 336 367 q 338 319 336 333 q 347 292 340 306 q 411 249 358 249 q 450 254 432 249 q 476 275 468 260 q 481 288 479 281 q 483 306 483 294 q 483 310 483 308 q 483 314 483 311 l 588 314 q 588 297 588 306 q 588 279 588 288 q 562 222 588 239 q 496 201 536 206 q 411 197 456 197 q 297 208 339 197 q 235 249 254 218 q 215 344 215 281 q 237 438 215 404 q 304 484 258 471 q 418 497 350 497 z "},"¤":{"ha":678,"x_min":72,"x_max":603,"o":"m 504 651 q 544 566 535 619 q 546 458 554 513 q 513 368 538 404 l 603 260 l 542 260 l 465 332 q 387 315 433 319 q 294 316 340 311 q 211 333 247 321 l 133 260 l 72 260 l 164 372 q 134 458 142 407 q 136 560 126 508 q 172 646 146 611 l 72 771 l 133 771 l 225 682 q 333 699 275 700 q 451 685 392 699 l 542 771 l 603 771 l 504 651 m 222 506 q 238 426 222 451 q 281 392 253 400 q 343 383 308 383 q 402 392 376 383 q 442 426 428 400 q 457 506 457 453 q 442 585 457 560 q 402 619 428 611 q 343 628 376 628 q 281 619 308 628 q 238 586 253 611 q 222 506 222 561 z "},"d":{"ha":750,"x_min":39,"x_max":713,"o":"m 39 276 q 73 452 39 390 q 170 538 107 514 q 319 561 233 561 q 378 558 347 561 q 438 549 410 556 q 489 534 467 543 q 524 515 511 525 l 467 492 l 467 701 l 713 701 l 713 279 q 694 127 713 183 q 633 43 675 71 q 524 6 592 15 q 356 -3 456 -3 q 203 9 264 -3 q 106 51 142 21 q 54 136 69 82 q 39 276 39 190 m 372 124 q 419 131 400 124 q 448 151 438 138 q 463 190 458 165 q 467 251 467 215 l 464 421 q 449 421 458 421 q 430 422 440 421 q 408 422 419 422 q 334 411 360 422 q 299 369 308 400 q 289 275 289 338 q 298 179 289 211 q 326 135 307 147 q 372 124 344 124 z "},"†":{"ha":557,"x_min":40,"x_max":464,"o":"m 40 579 l 147 579 l 147 757 l 356 757 l 356 579 l 464 579 l 464 461 l 356 461 l 356 -22 l 147 -22 l 147 461 l 40 461 l 40 579 z "},"‡":{"ha":600,"x_min":53,"x_max":542,"o":"m 53 615 l 171 615 l 171 833 l 422 833 l 422 615 l 542 615 l 542 540 l 422 540 l 422 421 l 542 421 l 542 346 l 422 346 l 422 -26 l 171 -26 l 171 346 l 53 346 l 53 421 l 171 421 l 171 540 l 53 540 l 53 615 z "},"̏":{"ha":0,"x_min":0,"x_max":431,"o":"m 179 639 l 0 765 l 128 826 l 279 639 l 179 639 m 342 639 l 201 804 l 329 864 l 431 639 l 342 639 z "},"ď":{"ha":750,"x_min":39,"x_max":915,"o":"m 39 276 q 73 452 39 390 q 170 538 107 514 q 319 561 233 561 q 378 558 347 561 q 438 549 410 556 q 489 534 467 543 q 524 515 511 525 l 467 492 l 467 701 l 713 701 l 713 279 q 694 127 713 183 q 633 43 675 71 q 524 6 592 15 q 356 -3 456 -3 q 203 9 264 -3 q 106 51 142 21 q 54 136 69 82 q 39 276 39 190 m 372 124 q 419 131 400 124 q 448 151 438 138 q 463 190 458 165 q 467 251 467 215 l 464 421 q 449 421 458 421 q 430 422 440 421 q 408 422 419 422 q 334 411 360 422 q 299 369 308 400 q 289 275 289 338 q 298 179 289 211 q 326 135 307 147 q 372 124 344 124 m 803 488 l 806 701 l 915 701 l 888 488 l 803 488 z "},"đ":{"ha":774,"x_min":39,"x_max":808,"o":"m 386 749 l 474 749 l 474 863 l 724 863 l 724 749 l 808 749 l 808 658 l 724 658 l 722 279 q 708 144 722 199 q 657 58 694 90 q 551 11 619 25 q 375 -3 483 -3 q 208 8 274 -3 q 105 47 142 18 q 53 131 68 75 q 39 276 39 186 q 70 442 39 382 q 173 529 101 503 q 364 556 244 556 q 389 556 374 556 q 421 554 404 556 q 451 551 438 553 q 474 547 465 550 l 474 658 l 386 658 l 386 749 m 379 124 q 422 129 404 124 q 451 148 440 135 q 468 187 463 161 q 474 251 474 213 l 474 421 q 467 421 471 421 q 454 422 463 421 q 435 422 446 422 q 411 422 424 422 q 335 410 361 422 q 298 365 308 397 q 288 269 288 332 q 297 177 288 208 q 327 135 307 146 q 379 124 347 124 z "},"°":{"ha":469,"x_min":51,"x_max":419,"o":"m 51 717 q 77 824 51 789 q 147 872 103 860 q 243 883 190 883 q 335 871 296 883 q 397 822 375 858 q 419 717 419 786 q 397 601 419 639 q 333 551 375 564 q 235 538 290 538 q 140 551 182 538 q 74 601 97 564 q 51 717 51 639 m 150 718 q 174 648 150 664 q 235 632 197 632 q 296 648 272 632 q 319 718 319 664 q 297 785 319 769 q 238 800 274 800 q 176 785 201 800 q 150 718 150 771 z "},"¨":{"ha":500,"x_min":0,"x_max":449,"o":"m 364 636 q 301 647 325 636 q 276 700 276 658 q 303 751 276 742 q 367 760 329 760 q 426 749 404 760 q 449 700 449 739 q 426 647 449 658 q 364 636 403 636 m 88 636 q 24 647 49 636 q 0 701 0 658 q 26 751 0 742 q 90 760 53 760 q 150 749 128 760 q 172 701 172 739 q 149 647 172 658 q 88 636 125 636 z "},"̤":{"ha":0,"x_min":0,"x_max":449,"o":"m 364 -143 q 301 -132 325 -143 q 276 -79 276 -121 q 303 -28 276 -37 q 367 -19 329 -19 q 426 -30 404 -19 q 449 -79 449 -40 q 426 -132 449 -121 q 364 -143 403 -143 m 88 -143 q 24 -132 49 -143 q 0 -78 0 -121 q 26 -28 0 -37 q 90 -19 53 -19 q 150 -30 128 -19 q 172 -78 172 -40 q 149 -132 172 -121 q 88 -143 125 -143 z "},"̈":{"ha":0,"x_min":0,"x_max":449,"o":"m 364 636 q 301 647 325 636 q 276 700 276 658 q 303 751 276 742 q 367 760 329 760 q 426 749 404 760 q 449 700 449 739 q 426 647 449 658 q 364 636 403 636 m 88 636 q 24 647 49 636 q 0 701 0 658 q 26 751 0 742 q 90 760 53 760 q 150 749 128 760 q 172 701 172 739 q 149 647 172 658 q 88 636 125 636 z "},"÷":{"ha":796,"x_min":67,"x_max":665,"o":"m 67 307 l 665 307 l 665 222 l 67 222 l 67 307 m 274 78 q 303 144 274 131 q 372 157 332 157 q 438 142 414 157 q 463 78 463 128 q 451 24 463 40 q 419 3 440 7 q 369 -1 399 -1 q 321 3 343 -1 q 286 24 299 7 q 274 78 274 40 m 274 449 q 303 514 274 501 q 372 526 332 526 q 438 513 414 526 q 463 449 463 499 q 451 394 463 411 q 419 372 440 376 q 369 368 399 368 q 320 372 342 368 q 286 394 299 376 q 274 449 274 411 z "},"∕":{"ha":639,"x_min":51,"x_max":588,"o":"m 51 -53 l 415 781 l 588 781 l 224 -53 l 51 -53 z "},"$":{"ha":797,"x_min":43,"x_max":756,"o":"m 96 -115 q 133 -49 114 -83 q 169 20 151 -14 q 204 86 188 54 q 108 111 143 94 q 58 165 72 128 q 43 265 43 201 q 147 265 94 265 q 250 265 199 265 q 263 230 247 243 q 308 210 279 217 q 371 203 338 204 q 415 206 394 203 q 453 215 436 208 q 481 233 471 221 q 492 261 492 244 q 481 290 492 282 q 451 299 471 299 q 363 299 407 299 q 274 299 318 299 q 180 301 222 299 q 107 318 138 304 q 60 364 76 332 q 43 454 43 396 q 88 582 43 542 q 216 634 132 622 q 415 646 300 646 q 453 645 435 646 q 490 644 472 644 q 531 722 513 683 q 572 800 550 761 l 654 800 q 612 719 632 758 q 569 639 592 681 q 678 616 642 635 q 728 560 714 597 q 742 461 742 524 q 640 461 690 461 q 540 461 590 461 q 523 497 539 483 q 480 516 507 510 q 419 522 453 522 q 360 519 388 524 q 316 502 333 514 q 299 469 299 490 q 312 440 299 446 q 349 435 325 435 q 439 435 394 435 q 529 435 483 435 q 642 424 590 435 q 724 379 693 414 q 756 268 756 344 q 725 163 756 200 q 646 109 694 125 q 542 89 597 93 q 437 82 494 83 q 283 81 379 81 l 178 -115 l 96 -115 z "},"":{"ha":833,"x_min":42,"x_max":754,"o":"m 94 -194 q 131 -128 113 -162 q 168 -59 150 -93 q 203 7 186 -25 q 106 32 142 15 q 56 85 71 49 q 42 186 42 122 q 145 186 93 186 q 249 186 197 186 q 262 151 246 164 q 307 131 278 138 q 369 124 336 125 q 414 126 393 124 q 452 135 435 129 q 480 153 469 142 q 490 182 490 165 q 480 211 490 203 q 450 219 469 219 q 361 219 406 219 q 272 219 317 219 q 178 222 221 219 q 106 239 136 225 q 58 285 75 253 q 42 375 42 317 q 86 503 42 463 q 215 555 131 543 q 414 567 299 567 q 452 566 433 567 q 489 565 471 565 q 530 643 511 604 q 571 721 549 682 l 653 721 q 610 640 631 679 q 568 560 590 601 q 676 537 640 556 q 726 481 713 518 q 740 382 740 444 q 639 382 689 382 q 539 382 589 382 q 522 417 538 404 q 478 437 506 431 q 418 443 451 443 q 359 440 386 444 q 315 423 332 435 q 297 390 297 411 q 310 361 297 367 q 347 356 324 356 q 438 356 393 356 q 528 356 482 356 q 640 345 589 356 q 723 300 692 335 q 754 189 754 265 q 724 83 754 121 q 644 30 693 46 q 540 10 596 14 q 435 3 493 4 q 282 1 378 1 l 176 -194 l 94 -194 z "},"":{"ha":625,"x_min":31,"x_max":564,"o":"m 71 -86 q 97 -37 83 -62 q 124 15 110 -11 q 151 64 138 40 q 79 83 106 69 q 42 123 53 96 q 31 199 31 150 q 108 199 69 199 q 186 199 147 199 q 194 172 182 182 q 228 156 207 161 q 275 151 250 151 q 308 153 292 151 q 338 160 325 156 q 358 174 350 165 q 365 196 365 182 q 358 217 365 211 q 336 224 350 224 q 269 224 303 224 q 203 224 236 224 q 132 226 164 224 q 78 238 100 228 q 43 272 56 247 q 31 339 31 296 q 64 435 31 404 q 160 474 97 465 q 308 483 222 483 q 337 483 322 483 q 365 482 351 482 q 396 540 382 511 q 426 599 410 568 l 486 599 q 457 538 472 567 q 425 478 442 508 q 504 460 476 474 q 542 419 532 447 q 553 346 553 390 q 476 346 514 346 q 403 346 439 346 q 389 371 401 361 q 356 385 376 381 q 311 390 336 390 q 267 388 288 390 q 235 376 247 385 q 222 351 222 367 q 232 329 222 333 q 258 325 242 325 q 326 325 293 325 q 393 325 360 325 q 478 317 439 325 q 540 282 517 308 q 564 201 564 256 q 540 122 564 150 q 481 81 517 93 q 403 67 444 69 q 325 61 368 63 q 211 60 282 60 l 131 -86 l 71 -86 z "},"":{"ha":701,"x_min":68,"x_max":603,"o":"m 108 263 q 135 312 121 286 q 163 364 149 338 q 189 414 176 390 q 117 433 143 419 q 79 473 90 446 q 68 549 68 500 q 146 549 107 549 q 224 549 185 549 q 233 521 221 531 q 266 506 244 511 q 314 500 288 501 q 347 502 331 500 q 376 510 364 504 q 397 523 389 515 q 404 546 404 531 q 397 566 404 560 q 375 572 389 572 q 308 572 342 572 q 240 572 274 572 q 170 574 201 572 q 116 587 139 576 q 81 622 93 597 q 68 689 68 646 q 102 785 68 754 q 198 824 136 815 q 347 833 260 833 q 376 833 361 833 q 404 832 390 832 q 435 890 421 861 q 465 949 449 919 l 526 949 q 495 889 511 918 q 464 828 479 860 q 544 810 517 824 q 581 769 571 797 q 592 696 592 740 q 516 696 554 696 q 442 696 478 696 q 428 721 440 711 q 395 735 415 731 q 350 740 375 740 q 306 737 326 740 q 272 725 285 733 q 260 701 260 717 q 269 678 260 683 q 297 674 279 674 q 365 674 332 674 q 432 674 399 674 q 517 666 479 674 q 579 632 556 658 q 603 550 603 606 q 580 471 603 499 q 520 431 557 443 q 442 415 483 418 q 363 410 407 411 q 249 410 319 410 l 169 263 l 108 263 z "},"₫":{"ha":774,"x_min":39,"x_max":808,"o":"m 386 749 l 474 749 l 474 863 l 724 863 l 724 749 l 808 749 l 808 658 l 724 658 l 722 279 q 708 144 722 199 q 657 58 694 90 q 551 11 619 25 q 375 -3 483 -3 q 208 8 274 -3 q 105 47 142 18 q 53 131 68 75 q 39 276 39 186 q 70 442 39 382 q 173 529 101 503 q 364 556 244 556 q 389 556 374 556 q 421 554 404 556 q 451 551 438 553 q 474 547 465 550 l 474 658 l 386 658 l 386 749 m 379 124 q 422 129 404 124 q 451 148 440 135 q 468 187 463 161 q 474 251 474 213 l 474 421 q 467 421 471 421 q 454 422 463 421 q 435 422 446 422 q 411 422 424 422 q 335 410 361 422 q 298 365 308 397 q 288 269 288 332 q 297 177 288 208 q 327 135 307 146 q 379 124 347 124 m 183 -89 l 592 -89 l 592 -150 l 183 -150 l 183 -89 z "},"˙":{"ha":193,"x_min":0,"x_max":169,"o":"m 86 635 q 24 644 47 635 q 0 692 0 653 q 26 739 0 729 q 89 749 51 749 q 147 738 125 749 q 169 692 169 728 q 147 644 169 653 q 86 635 125 635 z "},"̇":{"ha":0,"x_min":0,"x_max":169,"o":"m 86 635 q 24 644 47 635 q 0 692 0 653 q 26 739 0 729 q 89 749 51 749 q 147 738 125 749 q 169 692 169 728 q 147 644 169 653 q 86 635 125 635 z "},"̣":{"ha":0,"x_min":0,"x_max":238,"o":"m 119 -239 q 58 -235 85 -239 q 15 -214 31 -231 q 0 -161 0 -197 q 36 -97 0 -110 q 125 -83 72 -83 q 207 -97 176 -83 q 238 -161 238 -110 q 223 -214 238 -197 q 182 -235 208 -231 q 119 -239 156 -239 z "},"ʺ":{"ha":479,"x_min":0,"x_max":399,"o":"m 60 763 l 199 763 l 108 554 l 0 554 l 60 763 m 260 763 l 399 763 l 308 554 l 200 554 l 260 763 z "},"ǆ":{"ha":1431,"x_min":39,"x_max":1410,"o":"m 904 833 l 1001 833 l 1092 742 l 1176 833 l 1282 833 l 1124 639 l 1060 639 l 904 833 m 39 276 q 73 452 39 390 q 170 538 107 514 q 319 561 233 561 q 378 558 347 561 q 438 549 410 556 q 489 534 467 543 q 524 515 511 525 l 467 492 l 467 701 l 713 701 l 713 279 q 694 127 713 183 q 633 43 675 71 q 524 6 592 15 q 356 -3 456 -3 q 203 9 264 -3 q 106 51 142 21 q 54 136 69 82 q 39 276 39 190 m 372 124 q 419 131 400 124 q 448 151 438 138 q 463 190 458 165 q 467 251 467 215 l 464 421 q 449 421 458 421 q 430 422 440 421 q 408 422 419 422 q 334 411 360 422 q 299 369 308 400 q 289 275 289 338 q 298 179 289 211 q 326 135 307 147 q 372 124 344 124 m 1094 131 l 1408 131 l 1408 76 q 1391 15 1410 31 q 1325 0 1372 0 l 776 0 l 776 118 l 1054 424 l 788 424 l 788 488 q 805 536 788 518 q 846 554 822 554 l 1394 554 q 1388 493 1401 528 q 1351 424 1374 458 q 1307 367 1328 390 l 1094 131 z "},"e":{"ha":739,"x_min":39,"x_max":708,"o":"m 378 -7 q 209 4 275 -7 q 106 44 143 15 q 54 125 69 72 q 39 260 39 178 q 71 435 39 371 q 183 528 103 500 q 406 557 263 557 q 584 535 518 557 q 678 467 650 513 q 707 349 707 421 l 707 231 l 324 231 q 338 288 324 265 q 394 311 353 311 l 486 311 l 486 338 q 467 407 485 383 q 396 431 450 431 q 328 417 351 431 q 297 369 306 404 q 289 265 289 333 q 300 178 289 207 q 342 141 311 150 q 433 132 374 132 q 499 133 457 132 q 587 135 542 135 q 667 138 632 136 q 708 142 701 140 l 708 113 q 702 66 708 92 q 681 26 696 40 q 585 -1 657 4 q 378 -7 513 -7 z "},"é":{"ha":739,"x_min":39,"x_max":708,"o":"m 378 -7 q 209 4 275 -7 q 106 44 143 15 q 54 125 69 72 q 39 260 39 178 q 71 435 39 371 q 183 528 103 500 q 406 557 263 557 q 584 535 518 557 q 678 467 650 513 q 707 349 707 421 l 707 231 l 324 231 q 338 288 324 265 q 394 311 353 311 l 486 311 l 486 338 q 467 407 485 383 q 396 431 450 431 q 328 417 351 431 q 297 369 306 404 q 289 265 289 333 q 300 178 289 207 q 342 141 311 150 q 433 132 374 132 q 499 133 457 132 q 587 135 542 135 q 667 138 632 136 q 708 142 701 140 l 708 113 q 702 66 708 92 q 681 26 696 40 q 585 -1 657 4 q 378 -7 513 -7 m 315 639 l 518 826 l 628 765 l 415 639 l 315 639 z "},"ĕ":{"ha":739,"x_min":39,"x_max":708,"o":"m 378 -7 q 209 4 275 -7 q 106 44 143 15 q 54 125 69 72 q 39 260 39 178 q 71 435 39 371 q 183 528 103 500 q 406 557 263 557 q 584 535 518 557 q 678 467 650 513 q 707 349 707 421 l 707 231 l 324 231 q 338 288 324 265 q 394 311 353 311 l 486 311 l 486 338 q 467 407 485 383 q 396 431 450 431 q 328 417 351 431 q 297 369 306 404 q 289 265 289 333 q 300 178 289 207 q 342 141 311 150 q 433 132 374 132 q 499 133 457 132 q 587 135 542 135 q 667 138 632 136 q 708 142 701 140 l 708 113 q 702 66 708 92 q 681 26 696 40 q 585 -1 657 4 q 378 -7 513 -7 m 382 636 q 269 653 308 636 q 217 712 231 669 q 204 829 204 754 l 294 829 q 313 749 294 772 q 382 726 331 726 q 452 751 438 726 q 467 829 467 775 l 557 829 q 543 710 557 753 q 492 652 529 668 q 382 636 454 636 z "},"ě":{"ha":739,"x_min":39,"x_max":708,"o":"m 192 833 l 290 833 l 381 742 l 465 833 l 571 833 l 413 639 l 347 639 l 192 833 m 378 -7 q 209 4 275 -7 q 106 44 143 15 q 54 125 69 72 q 39 260 39 178 q 71 435 39 371 q 183 528 103 500 q 406 557 263 557 q 584 535 518 557 q 678 467 650 513 q 707 349 707 421 l 707 231 l 324 231 q 338 288 324 265 q 394 311 353 311 l 486 311 l 486 338 q 467 407 485 383 q 396 431 450 431 q 328 417 351 431 q 297 369 306 404 q 289 265 289 333 q 300 178 289 207 q 342 141 311 150 q 433 132 374 132 q 499 133 457 132 q 587 135 542 135 q 667 138 632 136 q 708 142 701 140 l 708 113 q 702 66 708 92 q 681 26 696 40 q 585 -1 657 4 q 378 -7 513 -7 z "},"ê":{"ha":739,"x_min":39,"x_max":708,"o":"m 378 -7 q 209 4 275 -7 q 106 44 143 15 q 54 125 69 72 q 39 260 39 178 q 71 435 39 371 q 183 528 103 500 q 406 557 263 557 q 584 535 518 557 q 678 467 650 513 q 707 349 707 421 l 707 231 l 324 231 q 338 288 324 265 q 394 311 353 311 l 486 311 l 486 338 q 467 407 485 383 q 396 431 450 431 q 328 417 351 431 q 297 369 306 404 q 289 265 289 333 q 300 178 289 207 q 342 141 311 150 q 433 132 374 132 q 499 133 457 132 q 587 135 542 135 q 667 138 632 136 q 708 142 701 140 l 708 113 q 702 66 708 92 q 681 26 696 40 q 585 -1 657 4 q 378 -7 513 -7 m 192 639 l 347 833 l 413 833 l 571 639 l 465 639 l 379 729 l 290 639 l 192 639 z "},"ế":{"ha":739,"x_min":39,"x_max":857,"o":"m 378 -7 q 209 4 275 -7 q 106 44 143 15 q 54 125 69 72 q 39 260 39 178 q 71 435 39 371 q 183 528 103 500 q 406 557 263 557 q 584 535 518 557 q 678 467 650 513 q 707 349 707 421 l 707 231 l 324 231 q 338 288 324 265 q 394 311 353 311 l 486 311 l 486 338 q 467 407 485 383 q 396 431 450 431 q 328 417 351 431 q 297 369 306 404 q 289 265 289 333 q 300 178 289 207 q 342 141 311 150 q 433 132 374 132 q 499 133 457 132 q 587 135 542 135 q 667 138 632 136 q 708 142 701 140 l 708 113 q 702 66 708 92 q 681 26 696 40 q 585 -1 657 4 q 378 -7 513 -7 m 192 639 l 347 833 l 413 833 l 571 639 l 465 639 l 379 729 l 290 639 l 192 639 m 544 782 l 747 969 l 857 908 l 644 782 l 544 782 z "},"ệ":{"ha":739,"x_min":39,"x_max":708,"o":"m 378 -7 q 209 4 275 -7 q 106 44 143 15 q 54 125 69 72 q 39 260 39 178 q 71 435 39 371 q 183 528 103 500 q 406 557 263 557 q 584 535 518 557 q 678 467 650 513 q 707 349 707 421 l 707 231 l 324 231 q 338 288 324 265 q 394 311 353 311 l 486 311 l 486 338 q 467 407 485 383 q 396 431 450 431 q 328 417 351 431 q 297 369 306 404 q 289 265 289 333 q 300 178 289 207 q 342 141 311 150 q 433 132 374 132 q 499 133 457 132 q 587 135 542 135 q 667 138 632 136 q 708 142 701 140 l 708 113 q 702 66 708 92 q 681 26 696 40 q 585 -1 657 4 q 378 -7 513 -7 m 381 -239 q 319 -235 346 -239 q 276 -214 292 -231 q 261 -161 261 -197 q 297 -97 261 -110 q 386 -83 333 -83 q 468 -97 438 -83 q 499 -161 499 -110 q 484 -214 499 -197 q 443 -235 469 -231 q 381 -239 417 -239 m 192 639 l 347 833 l 413 833 l 571 639 l 465 639 l 379 729 l 290 639 l 192 639 z "},"ề":{"ha":739,"x_min":39,"x_max":708,"o":"m 378 -7 q 209 4 275 -7 q 106 44 143 15 q 54 125 69 72 q 39 260 39 178 q 71 435 39 371 q 183 528 103 500 q 406 557 263 557 q 584 535 518 557 q 678 467 650 513 q 707 349 707 421 l 707 231 l 324 231 q 338 288 324 265 q 394 311 353 311 l 486 311 l 486 338 q 467 407 485 383 q 396 431 450 431 q 328 417 351 431 q 297 369 306 404 q 289 265 289 333 q 300 178 289 207 q 342 141 311 150 q 433 132 374 132 q 499 133 457 132 q 587 135 542 135 q 667 138 632 136 q 708 142 701 140 l 708 113 q 702 66 708 92 q 681 26 696 40 q 585 -1 657 4 q 378 -7 513 -7 m 192 639 l 347 833 l 413 833 l 571 639 l 465 639 l 379 729 l 290 639 l 192 639 m 607 782 l 394 908 l 504 969 l 707 782 l 607 782 z "},"ể":{"ha":739,"x_min":39,"x_max":726,"o":"m 378 -7 q 209 4 275 -7 q 106 44 143 15 q 54 125 69 72 q 39 260 39 178 q 71 435 39 371 q 183 528 103 500 q 406 557 263 557 q 584 535 518 557 q 678 467 650 513 q 707 349 707 421 l 707 231 l 324 231 q 338 288 324 265 q 394 311 353 311 l 486 311 l 486 338 q 467 407 485 383 q 396 431 450 431 q 328 417 351 431 q 297 369 306 404 q 289 265 289 333 q 300 178 289 207 q 342 141 311 150 q 433 132 374 132 q 499 133 457 132 q 587 135 542 135 q 667 138 632 136 q 708 142 701 140 l 708 113 q 702 66 708 92 q 681 26 696 40 q 585 -1 657 4 q 378 -7 513 -7 m 192 639 l 347 833 l 413 833 l 571 639 l 465 639 l 379 729 l 290 639 l 192 639 m 572 781 l 572 799 q 584 827 572 819 q 608 842 596 835 q 619 865 619 849 l 619 879 q 616 903 619 896 q 599 911 613 911 q 583 903 588 911 q 578 882 579 896 l 497 894 q 607 978 501 978 q 697 958 667 978 q 726 888 726 939 l 726 882 q 713 837 726 851 q 685 814 699 822 q 671 790 671 806 l 671 781 l 572 781 z "}}}
